STARTFONT 2.1
FONT -Misc-Fixed-Bold-R-Normal--46-440-75-75-C-250-ISO10646-1
SIZE 44 75 75
FONTBOUNDINGBOX 23 46 0 -10
COMMENT "Generated by fontforge, http://fontforge.sourceforge.net"
COMMENT "Public domain font.  Share and enjoy."
STARTPROPERTIES 32
FOUNDRY "Misc"
FAMILY_NAME "Fixed"
WEIGHT_NAME "Bold"
SLANT "R"
SETWIDTH_NAME "Normal"
ADD_STYLE_NAME ""
PIXEL_SIZE 46
POINT_SIZE 440
RESOLUTION_X 75
RESOLUTION_Y 75
SPACING "C"
AVERAGE_WIDTH 250
CHARSET_REGISTRY "ISO10646"
CHARSET_ENCODING "1"
FONTNAME_REGISTRY ""
CHARSET_COLLECTIONS "ISO8859-2 ISO8859-5 ISO8859-7 ISO8859-9 ISO8859-8 ISO8859-4 ISO8859-11 ISO10646-1"
FONT_NAME "FixedBold"
FACE_NAME "Fixed Bold"
COPYRIGHT "Public domain font.  Share and enjoy."
FONT_VERSION "001.000"
FONT_ASCENT 35
FONT_DESCENT 11
UNDERLINE_POSITION -5
UNDERLINE_THICKNESS 3
X_HEIGHT 17
CAP_HEIGHT 25
RAW_ASCENT 777
RAW_DESCENT 223
NORM_SPACE 25
FIGURE_WIDTH 25
AVG_LOWERCASE_WIDTH 250
AVG_UPPERCASE_WIDTH 250
ENDPROPERTIES
CHARS 762
STARTCHAR char0
ENCODING 0
SWIDTH 540 0
DWIDTH 25 0
BBX 17 26 3 0
BITMAP
F9F180
F9F180
F9F180
000180
000180
C00000
C00000
C00000
C00180
C00180
000180
000180
000180
C00000
C00000
C00000
C00180
C00180
000180
000180
000180
C00000
C00000
C7CF80
C7CF80
C7CF80
ENDCHAR
STARTCHAR space
ENCODING 32
SWIDTH 540 0
DWIDTH 25 0
BBX 1 1 22 -10
BITMAP
00
ENDCHAR
STARTCHAR exclam
ENCODING 33
SWIDTH 540 0
DWIDTH 25 0
BBX 5 28 8 0
BITMAP
F8
F8
F8
F8
F8
F8
F8
F8
F8
F8
F8
F8
F8
F8
F8
F8
F8
F0
00
00
00
00
00
F8
F8
F8
F8
F8
ENDCHAR
STARTCHAR quotedbl
ENCODING 34
SWIDTH 540 0
DWIDTH 25 0
BBX 13 10 5 18
BITMAP
F8F8
F8F8
F8F8
F8F8
F8F8
F8F8
F8F8
F8F8
F8F8
F8F8
ENDCHAR
STARTCHAR numbersign
ENCODING 35
SWIDTH 540 0
DWIDTH 25 0
BBX 17 26 3 0
BITMAP
3E3E00
3E3E00
3E3E00
3E3E00
3E3E00
3E3E00
3E3E00
3E3E00
FFFF80
FFFF80
3F7E00
3E3E00
3E3E00
3E3E00
3E3E00
3F7E00
FFFF80
FFFF80
3E3E00
3E3E00
3E3E00
3E3E00
3E3E00
3E3E00
3E3E00
3E3E00
ENDCHAR
STARTCHAR dollar
ENCODING 36
SWIDTH 540 0
DWIDTH 25 0
BBX 20 28 0 -2
BITMAP
00F800
00F800
00F800
1FFFC0
1FFFC0
F9F9F0
F8F9F0
F8F9F0
F8F800
F8F800
3FF800
1FF800
1FF800
07FE00
07FE00
03FF00
00FFC0
00FFC0
00F9F0
00F9F0
00F9F0
F8F9F0
F8F9F0
3FFFC0
1FFFC0
1FFFC0
00F800
00F800
ENDCHAR
STARTCHAR percent
ENCODING 37
SWIDTH 540 0
DWIDTH 25 0
BBX 20 26 0 0
BITMAP
1FC1F0
1FC1F0
3FC1F0
F8FFC0
F8FFC0
F8FFC0
F8FFC0
F8FFC0
1F3E00
1F3E00
00F800
00F800
00F800
00F800
00F800
01F800
07C7C0
07C7C0
1FF9F0
1FF9F0
1FF9F0
1FF9F0
1FF9F0
F83FC0
F83FC0
F83FC0
ENDCHAR
STARTCHAR ampersand
ENCODING 38
SWIDTH 540 0
DWIDTH 25 0
BBX 20 26 0 0
BITMAP
1FC000
1FC000
3FC000
F8F800
F8F800
F8F800
F8F800
F8F800
F8F800
F8F800
3FE000
1FC000
1FC000
1FC1F0
1FC1F0
3FE1F0
F8FFC0
F8FFC0
F83E00
F83E00
F83F00
F8FFC0
F8FFC0
3FC1F0
1FC1F0
1FC1F0
ENDCHAR
STARTCHAR quotesingle
ENCODING 39
SWIDTH 540 0
DWIDTH 25 0
BBX 5 10 8 18
BITMAP
F8
F8
F8
F8
F8
F8
F8
F8
F8
F8
ENDCHAR
STARTCHAR parenleft
ENCODING 40
SWIDTH 540 0
DWIDTH 25 0
BBX 10 30 5 -2
BITMAP
07C0
07C0
1F00
1F00
1F00
1F00
1F00
F800
F800
F800
F800
F800
F800
F800
F800
F800
F800
F800
F800
F800
F800
F800
F800
1F00
1F00
1F00
1F00
1F00
07C0
07C0
ENDCHAR
STARTCHAR parenright
ENCODING 41
SWIDTH 540 0
DWIDTH 25 0
BBX 10 30 5 -2
BITMAP
F800
F800
1F00
1F00
1F00
1F00
1F00
07C0
07C0
07C0
07C0
07C0
07C0
07C0
07C0
07C0
07C0
07C0
07C0
07C0
07C0
07C0
07C0
1F00
1F00
1F00
1F00
1F00
F800
F800
ENDCHAR
STARTCHAR asterisk
ENCODING 42
SWIDTH 540 0
DWIDTH 25 0
BBX 20 18 0 3
BITMAP
00F800
00F800
00F800
F8F9F0
F8F9F0
3FFFC0
1FFFC0
1FFFC0
07FE00
07FE00
07FF00
1FFFC0
1FFFC0
F8F9F0
F8F9F0
F8F8F0
00F800
00F800
ENDCHAR
STARTCHAR plus
ENCODING 43
SWIDTH 540 0
DWIDTH 25 0
BBX 20 18 0 3
BITMAP
00F800
00F800
00F800
00F800
00F800
00F800
00F800
00F800
FFFFF0
FFFFF0
FFFFF0
00F800
00F800
00F800
00F800
00F800
00F800
00F800
ENDCHAR
STARTCHAR comma
ENCODING 44
SWIDTH 540 0
DWIDTH 25 0
BBX 7 10 8 -5
BITMAP
FE
FE
FE
FE
FE
3E
3E
F8
F8
F8
ENDCHAR
STARTCHAR hyphen
ENCODING 45
SWIDTH 540 0
DWIDTH 25 0
BBX 17 3 3 10
BITMAP
FFFF80
FFFF80
FFFF80
ENDCHAR
STARTCHAR period
ENCODING 46
SWIDTH 540 0
DWIDTH 25 0
BBX 7 5 8 0
BITMAP
FE
FE
FE
FE
FE
ENDCHAR
STARTCHAR slash
ENCODING 47
SWIDTH 540 0
DWIDTH 25 0
BBX 20 26 0 0
BITMAP
0001F0
0001F0
0001F0
0007C0
0007C0
0007C0
0007C0
0007C0
003E00
003E00
00F800
00F800
00F800
00F800
00F800
01F000
07C000
07C000
1F0000
1F0000
1F0000
1F0000
1F0000
F80000
F80000
F80000
ENDCHAR
STARTCHAR zero
ENCODING 48
SWIDTH 540 0
DWIDTH 25 0
BBX 17 26 3 0
BITMAP
07F000
07F000
07F000
3E3E00
3E3E00
F80F80
F80F80
F80F80
F80F80
F80F80
F80F80
F80F80
F80F80
F80F80
F80F80
F80F80
F80F80
F80F80
F80F80
F80F80
F80F80
3E3E00
3E3E00
07F000
07F000
07F000
ENDCHAR
STARTCHAR one
ENCODING 49
SWIDTH 540 0
DWIDTH 25 0
BBX 20 26 0 0
BITMAP
00F800
00F800
00F800
07F800
07F800
1FF800
1FF800
3FF800
F8F800
F8F800
00F800
00F800
00F800
00F800
00F800
00F800
00F800
00F800
00F800
00F800
00F800
00F800
00F800
FFFFF0
FFFFF0
FFFFF0
ENDCHAR
STARTCHAR two
ENCODING 50
SWIDTH 540 0
DWIDTH 25 0
BBX 17 26 3 0
BITMAP
07F000
07F000
07F000
3E3E00
3E3E00
F80F80
F80F80
F80F80
000F80
000F80
000F80
000F80
000F80
003E00
003E00
007C00
01F000
01F000
07C000
07C000
0FC000
3E0000
3E0000
FFFF80
FFFF80
FFFF80
ENDCHAR
STARTCHAR three
ENCODING 51
SWIDTH 540 0
DWIDTH 25 0
BBX 17 26 3 0
BITMAP
FFFF80
FFFF80
FFFF80
000F80
000F80
003E00
003E00
003E00
01F000
01F000
07F000
07F000
07F000
003E00
003E00
003E00
000F80
000F80
000F80
000F80
000F80
F83E00
F83E00
3FF000
3FF000
3FF000
ENDCHAR
STARTCHAR four
ENCODING 52
SWIDTH 540 0
DWIDTH 25 0
BBX 17 26 3 0
BITMAP
003E00
003E00
003E00
01FE00
01FE00
07FE00
07FE00
07FE00
3E3E00
3E3E00
F83E00
F83E00
F83E00
F83E00
F83E00
F87E00
FFFF80
FFFF80
003E00
003E00
003E00
003E00
003E00
003E00
003E00
003E00
ENDCHAR
STARTCHAR five
ENCODING 53
SWIDTH 540 0
DWIDTH 25 0
BBX 17 26 3 0
BITMAP
FFFF80
FFFF80
FFFF80
F80000
F80000
F80000
F80000
F80000
F80000
F80000
FFF000
FFF000
FFF000
003E00
003E00
003E00
000F80
000F80
000F80
000F80
000F80
F83E00
F83E00
3FF000
3FF000
3FF000
ENDCHAR
STARTCHAR six
ENCODING 54
SWIDTH 540 0
DWIDTH 25 0
BBX 17 26 3 0
BITMAP
07FE00
07FE00
07FE00
3E0000
3E0000
F80000
F80000
F80000
F80000
F80000
FFF000
FFF000
FFF000
F83E00
F83E00
F83E00
F80F80
F80F80
F80F80
F80F80
F80F80
3E3E00
3E3E00
07F000
07F000
07F000
ENDCHAR
STARTCHAR seven
ENCODING 55
SWIDTH 540 0
DWIDTH 25 0
BBX 17 26 3 0
BITMAP
FFFF80
FFFF80
FFFF80
000F80
000F80
003E00
003E00
003E00
003E00
003E00
00F800
01F000
01F000
01F000
01F000
01F000
07C000
07C000
07C000
07C000
07C000
07C000
07C000
07C000
07C000
07C000
ENDCHAR
STARTCHAR eight
ENCODING 56
SWIDTH 540 0
DWIDTH 25 0
BBX 17 26 3 0
BITMAP
07F000
07F000
07F000
3E3E00
3E3E00
F80F80
F80F80
F80F80
3E3E00
3E3E00
0FF800
07F000
07F000
3E3E00
3E3E00
3E3E00
F80F80
F80F80
F80F80
F80F80
F80F80
3E3E00
3E3E00
07F000
07F000
07F000
ENDCHAR
STARTCHAR nine
ENCODING 57
SWIDTH 540 0
DWIDTH 25 0
BBX 17 26 3 0
BITMAP
07F000
07F000
07F000
3E3E00
3E3E00
F80F80
F80F80
F80F80
F80F80
F80F80
3E3F80
3E3F80
3E3F80
07FF80
07FF80
07FF80
000F80
000F80
000F80
000F80
000F80
003E00
003E00
3FF000
3FF000
3FF000
ENDCHAR
STARTCHAR colon
ENCODING 58
SWIDTH 540 0
DWIDTH 25 0
BBX 7 18 8 0
BITMAP
FE
FE
FE
FE
FE
00
00
00
00
00
00
00
00
FE
FE
FE
FE
FE
ENDCHAR
STARTCHAR semicolon
ENCODING 59
SWIDTH 540 0
DWIDTH 25 0
BBX 7 23 8 -5
BITMAP
FE
FE
FE
FE
FE
00
00
00
00
00
00
00
00
FE
FE
FE
FE
FE
3E
3E
F8
F8
F8
ENDCHAR
STARTCHAR less
ENCODING 60
SWIDTH 540 0
DWIDTH 25 0
BBX 15 23 3 0
BITMAP
003E
003E
01F8
01F0
01F0
07C0
07C0
1F00
3E00
3E00
F800
F800
F800
3E00
3E00
07C0
07C0
07C0
01F0
01F0
003E
003E
003E
ENDCHAR
STARTCHAR equal
ENCODING 61
SWIDTH 540 0
DWIDTH 25 0
BBX 17 11 3 5
BITMAP
FFFF80
FFFF80
FFFF80
000000
000000
000000
000000
000000
FFFF80
FFFF80
FFFF80
ENDCHAR
STARTCHAR greater
ENCODING 62
SWIDTH 540 0
DWIDTH 25 0
BBX 15 23 3 0
BITMAP
F800
F800
3E00
3E00
3E00
07C0
07C0
01F0
01F0
01F0
003E
003E
007C
01F0
01F0
07C0
07C0
0FC0
3E00
3E00
F800
F800
F800
ENDCHAR
STARTCHAR question
ENCODING 63
SWIDTH 540 0
DWIDTH 25 0
BBX 17 26 3 0
BITMAP
07F000
07F000
07F000
3E3E00
3E3E00
F80F80
F80F80
F80F80
000F80
000F80
003E00
003E00
003E00
01F000
01F000
01F000
07C000
07C000
07C000
07C000
07C000
000000
000000
07C000
07C000
07C000
ENDCHAR
STARTCHAR at
ENCODING 64
SWIDTH 540 0
DWIDTH 25 0
BBX 23 26 0 0
BITMAP
07FFC0
07FFC0
07FFC0
1F01F0
1F01F0
F83E3E
F83E3E
F83E3E
F8C63E
F8C63E
F8C63E
F8C63E
F8C63E
F8C63E
F8C63E
F8C63E
F8C63E
F8C63E
F83FF8
F83FF0
F83FF0
1F0000
1F0000
07FFC0
07FFC0
07FFC0
ENDCHAR
STARTCHAR A
ENCODING 65
SWIDTH 540 0
DWIDTH 25 0
BBX 17 26 3 0
BITMAP
01C000
01C000
01C000
07F000
07F000
07F000
07F000
07F000
07F000
07F000
1F7C00
3E3E00
3E3E00
3FFE00
3FFE00
3FFE00
3E3E00
3E3E00
F80F80
F80F80
F80F80
F80F80
F80F80
F80F80
F80F80
F80F80
ENDCHAR
STARTCHAR B
ENCODING 66
SWIDTH 540 0
DWIDTH 25 0
BBX 17 26 3 0
BITMAP
FFFE00
FFFE00
FFFE00
F80F80
F80F80
F80F80
F80F80
F80F80
F80F80
F80F80
FFFE00
FFFE00
FFFE00
F80F80
F80F80
F80F80
F80F80
F80F80
F80F80
F80F80
F80F80
F80F80
F80F80
FFFE00
FFFE00
FFFE00
ENDCHAR
STARTCHAR C
ENCODING 67
SWIDTH 540 0
DWIDTH 25 0
BBX 17 26 3 0
BITMAP
07FE00
07FE00
07FE00
3E0F80
3E0F80
F80000
F80000
F80000
F80000
F80000
F80000
F80000
F80000
F80000
F80000
F80000
F80000
F80000
F80000
F80000
F80000
3E0F80
3E0F80
07FE00
07FE00
07FE00
ENDCHAR
STARTCHAR D
ENCODING 68
SWIDTH 540 0
DWIDTH 25 0
BBX 17 26 3 0
BITMAP
FFF000
FFF000
FFF000
F83E00
F83E00
F80F80
F80F80
F80F80
F80F80
F80F80
F80F80
F80F80
F80F80
F80F80
F80F80
F80F80
F80F80
F80F80
F80F80
F80F80
F80F80
F83E00
F83E00
FFF000
FFF000
FFF000
ENDCHAR
STARTCHAR E
ENCODING 69
SWIDTH 540 0
DWIDTH 25 0
BBX 17 26 3 0
BITMAP
FFFF80
FFFF80
FFFF80
F80000
F80000
F80000
F80000
F80000
F80000
F80000
FFF000
FFF000
FFF000
F80000
F80000
F80000
F80000
F80000
F80000
F80000
F80000
F80000
F80000
FFFF80
FFFF80
FFFF80
ENDCHAR
STARTCHAR F
ENCODING 70
SWIDTH 540 0
DWIDTH 25 0
BBX 17 26 3 0
BITMAP
FFFF80
FFFF80
FFFF80
F80000
F80000
F80000
F80000
F80000
F80000
F80000
FFF000
FFF000
FFF000
F80000
F80000
F80000
F80000
F80000
F80000
F80000
F80000
F80000
F80000
F80000
F80000
F80000
ENDCHAR
STARTCHAR G
ENCODING 71
SWIDTH 540 0
DWIDTH 25 0
BBX 17 26 3 0
BITMAP
07F000
07F000
07F000
3E3E00
3E3E00
F80F80
F80F80
F80F80
F80000
F80000
F80000
F80000
F80000
F83F80
F83F80
F83F80
F80F80
F80F80
F80F80
F80F80
F80F80
3E3E00
3E3E00
07F000
07F000
07F000
ENDCHAR
STARTCHAR H
ENCODING 72
SWIDTH 540 0
DWIDTH 25 0
BBX 17 26 3 0
BITMAP
F80F80
F80F80
F80F80
F80F80
F80F80
F80F80
F80F80
F80F80
F80F80
F80F80
FFFF80
FFFF80
FFFF80
F80F80
F80F80
F80F80
F80F80
F80F80
F80F80
F80F80
F80F80
F80F80
F80F80
F80F80
F80F80
F80F80
ENDCHAR
STARTCHAR I
ENCODING 73
SWIDTH 540 0
DWIDTH 25 0
BBX 15 26 3 0
BITMAP
FFFE
FFFE
FFFE
07C0
07C0
07C0
07C0
07C0
07C0
07C0
07C0
07C0
07C0
07C0
07C0
07C0
07C0
07C0
07C0
07C0
07C0
07C0
07C0
FFFE
FFFE
FFFE
ENDCHAR
STARTCHAR J
ENCODING 74
SWIDTH 540 0
DWIDTH 25 0
BBX 17 26 3 0
BITMAP
01FF80
01FF80
01FF80
003E00
003E00
003E00
003E00
003E00
003E00
003E00
003E00
003E00
003E00
003E00
003E00
003E00
003E00
003E00
F83E00
F83E00
F83E00
F83E00
F83E00
3FF000
3FF000
3FF000
ENDCHAR
STARTCHAR K
ENCODING 75
SWIDTH 540 0
DWIDTH 25 0
BBX 17 26 3 0
BITMAP
F80F80
F80F80
F80F80
F83E00
F83E00
F9F800
F9F000
F9F000
FFC000
FFC000
FF0000
FE0000
FE0000
FFC000
FFC000
FFC000
F9F000
F9F000
F83E00
F83E00
F83E00
F80F80
F80F80
F80F80
F80F80
F80F80
ENDCHAR
STARTCHAR L
ENCODING 76
SWIDTH 540 0
DWIDTH 25 0
BBX 17 26 3 0
BITMAP
F80000
F80000
F80000
F80000
F80000
F80000
F80000
F80000
F80000
F80000
F80000
F80000
F80000
F80000
F80000
F80000
F80000
F80000
F80000
F80000
F80000
F80000
F80000
FFFF80
FFFF80
FFFF80
ENDCHAR
STARTCHAR M
ENCODING 77
SWIDTH 540 0
DWIDTH 25 0
BBX 17 26 3 0
BITMAP
F80F80
F80F80
F80F80
FE3F80
FE3F80
FFFF80
FFFF80
FFFF80
F9CF80
F9CF80
F80F80
F80F80
F80F80
F80F80
F80F80
F80F80
F80F80
F80F80
F80F80
F80F80
F80F80
F80F80
F80F80
F80F80
F80F80
F80F80
ENDCHAR
STARTCHAR N
ENCODING 78
SWIDTH 540 0
DWIDTH 25 0
BBX 17 26 3 0
BITMAP
F80F80
F80F80
F80F80
F80F80
F80F80
FE0F80
FE0F80
FE0F80
FFCF80
FFCF80
F9FF80
F9FF80
F9FF80
F83F80
F83F80
F83F80
F80F80
F80F80
F80F80
F80F80
F80F80
F80F80
F80F80
F80F80
F80F80
F80F80
ENDCHAR
STARTCHAR O
ENCODING 79
SWIDTH 540 0
DWIDTH 25 0
BBX 17 26 3 0
BITMAP
3FFE00
3FFE00
3FFE00
F80F80
F80F80
F80F80
F80F80
F80F80
F80F80
F80F80
F80F80
F80F80
F80F80
F80F80
F80F80
F80F80
F80F80
F80F80
F80F80
F80F80
F80F80
F80F80
F80F80
3FFE00
3FFE00
3FFE00
ENDCHAR
STARTCHAR P
ENCODING 80
SWIDTH 540 0
DWIDTH 25 0
BBX 17 26 3 0
BITMAP
FFF000
FFF000
FFF000
F83E00
F83E00
F80F80
F80F80
F80F80
F80F80
F80F80
F83E00
F83E00
F83E00
FFF000
FFF000
FFF000
F80000
F80000
F80000
F80000
F80000
F80000
F80000
F80000
F80000
F80000
ENDCHAR
STARTCHAR Q
ENCODING 81
SWIDTH 540 0
DWIDTH 25 0
BBX 20 28 3 -2
BITMAP
07F000
07F000
07F000
3E3E00
3E3E00
F80F80
F80F80
F80F80
F80F80
F80F80
F80F80
F80F80
F80F80
F80F80
F80F80
F80F80
F80F80
F80F80
F9FF80
F9FF80
F9FF80
3E3E00
3E3E00
07FF80
07FF80
07FFC0
0001F0
0001F0
ENDCHAR
STARTCHAR R
ENCODING 82
SWIDTH 540 0
DWIDTH 25 0
BBX 17 26 3 0
BITMAP
FFFE00
FFFE00
FFFE00
F80F80
F80F80
F80F80
F80F80
F80F80
F80F80
F80F80
F80F80
F80F80
F80F80
FFFE00
FFFE00
FFFC00
F9F000
F9F000
F83E00
F83E00
F83E00
F80F80
F80F80
F80F80
F80F80
F80F80
ENDCHAR
STARTCHAR S
ENCODING 83
SWIDTH 540 0
DWIDTH 25 0
BBX 17 26 3 0
BITMAP
3FFE00
3FFE00
3FFE00
F80F80
F80F80
F80000
F80000
F80000
F80000
F80000
3FFC00
3FFE00
3FFE00
000F80
000F80
000F80
000F80
000F80
000F80
000F80
000F80
F80F80
F80F80
3FFE00
3FFE00
3FFE00
ENDCHAR
STARTCHAR T
ENCODING 84
SWIDTH 540 0
DWIDTH 25 0
BBX 15 26 3 0
BITMAP
FFFE
FFFE
FFFE
07C0
07C0
07C0
07C0
07C0
07C0
07C0
07C0
07C0
07C0
07C0
07C0
07C0
07C0
07C0
07C0
07C0
07C0
07C0
07C0
07C0
07C0
07C0
ENDCHAR
STARTCHAR U
ENCODING 85
SWIDTH 540 0
DWIDTH 25 0
BBX 17 26 3 0
BITMAP
F80F80
F80F80
F80F80
F80F80
F80F80
F80F80
F80F80
F80F80
F80F80
F80F80
F80F80
F80F80
F80F80
F80F80
F80F80
F80F80
F80F80
F80F80
F80F80
F80F80
F80F80
3E3E00
3E3E00
07F000
07F000
07F000
ENDCHAR
STARTCHAR V
ENCODING 86
SWIDTH 540 0
DWIDTH 25 0
BBX 17 26 3 0
BITMAP
F80F80
F80F80
F80F80
F80F80
F80F80
F80F80
F80F80
F80F80
3E3E00
3E3E00
3E3E00
3E3E00
3E3E00
3E3E00
3E3E00
1F7C00
07F000
07F000
07F000
07F000
07F000
07F000
07F000
01C000
01C000
01C000
ENDCHAR
STARTCHAR W
ENCODING 87
SWIDTH 540 0
DWIDTH 25 0
BBX 17 26 3 0
BITMAP
F80F80
F80F80
F80F80
F80F80
F80F80
F80F80
F80F80
F80F80
F80F80
F80F80
F88F80
F9CF80
F9CF80
F9CF80
F9CF80
F9CF80
F9CF80
F9CF80
FFFF80
FFFF80
FFFF80
FE3F80
FE3F80
380E00
380E00
380E00
ENDCHAR
STARTCHAR X
ENCODING 88
SWIDTH 540 0
DWIDTH 25 0
BBX 17 26 3 0
BITMAP
F80F80
F80F80
F80F80
F80F80
F80F80
3E3E00
3E3E00
3E3E00
07F000
07F000
01C000
01C000
01C000
01C000
01C000
01C000
07F000
07F000
3E3E00
3E3E00
3E3E00
F80F80
F80F80
F80F80
F80F80
F80F80
ENDCHAR
STARTCHAR Y
ENCODING 89
SWIDTH 540 0
DWIDTH 25 0
BBX 20 26 0 0
BITMAP
F801F0
F801F0
F801F0
F801F0
F801F0
3E07C0
1F07C0
1F07C0
07FE00
07FE00
01F800
00F800
00F800
00F800
00F800
00F800
00F800
00F800
00F800
00F800
00F800
00F800
00F800
00F800
00F800
00F800
ENDCHAR
STARTCHAR Z
ENCODING 90
SWIDTH 540 0
DWIDTH 25 0
BBX 17 26 3 0
BITMAP
FFFF80
FFFF80
FFFF80
000F80
000F80
000F80
000F80
000F80
003E00
003E00
00F800
01F000
01F000
07C000
07C000
0F8000
3E0000
3E0000
F80000
F80000
F80000
F80000
F80000
FFFF80
FFFF80
FFFF80
ENDCHAR
STARTCHAR bracketleft
ENCODING 91
SWIDTH 540 0
DWIDTH 25 0
BBX 13 30 5 -2
BITMAP
FFF8
FFF8
F800
F800
F800
F800
F800
F800
F800
F800
F800
F800
F800
F800
F800
F800
F800
F800
F800
F800
F800
F800
F800
F800
F800
F800
F800
F800
FFF8
FFF8
ENDCHAR
STARTCHAR backslash
ENCODING 92
SWIDTH 540 0
DWIDTH 25 0
BBX 20 26 0 0
BITMAP
F80000
F80000
F80000
1F0000
1F0000
1F0000
1F0000
1F0000
07C000
07C000
01F000
00F800
00F800
00F800
00F800
00F800
003E00
003E00
0007C0
0007C0
0007C0
0007C0
0007C0
0001F0
0001F0
0001F0
ENDCHAR
STARTCHAR bracketright
ENCODING 93
SWIDTH 540 0
DWIDTH 25 0
BBX 10 30 5 -2
BITMAP
FFC0
FFC0
07C0
07C0
07C0
07C0
07C0
07C0
07C0
07C0
07C0
07C0
07C0
07C0
07C0
07C0
07C0
07C0
07C0
07C0
07C0
07C0
07C0
07C0
07C0
07C0
07C0
07C0
FFC0
FFC0
ENDCHAR
STARTCHAR asciicircum
ENCODING 94
SWIDTH 540 0
DWIDTH 25 0
BBX 20 10 0 16
BITMAP
00F800
00F800
00F800
07FE00
07FE00
1F07C0
1F07C0
3F07C0
F801F0
F801F0
ENDCHAR
STARTCHAR underscore
ENCODING 95
SWIDTH 540 0
DWIDTH 25 0
BBX 20 2 0 -2
BITMAP
FFFFF0
FFFFF0
ENDCHAR
STARTCHAR grave
ENCODING 96
SWIDTH 540 0
DWIDTH 25 0
BBX 10 7 5 26
BITMAP
F800
F800
1F00
1F00
1F00
07C0
07C0
ENDCHAR
STARTCHAR a
ENCODING 97
SWIDTH 540 0
DWIDTH 25 0
BBX 17 18 3 0
BITMAP
3FFE00
3FFE00
000F80
000F80
000F80
000F80
000F80
000F80
3FFF80
3FFF80
F80F80
F80F80
F80F80
F80F80
F80F80
3FFF80
3FFF80
3FFF80
ENDCHAR
STARTCHAR b
ENCODING 98
SWIDTH 540 0
DWIDTH 25 0
BBX 17 26 3 0
BITMAP
F80000
F80000
F80000
F80000
F80000
F80000
F80000
F80000
FFFE00
FFFE00
F80F80
F80F80
F80F80
F80F80
F80F80
F80F80
F80F80
F80F80
F80F80
F80F80
F80F80
F80F80
F80F80
FFFE00
FFFE00
FFFE00
ENDCHAR
STARTCHAR c
ENCODING 99
SWIDTH 540 0
DWIDTH 25 0
BBX 17 18 3 0
BITMAP
3FFE00
3FFE00
F80F80
F80F80
F80F80
F80000
F80000
F80000
F80000
F80000
F80000
F80000
F80000
F80F80
F80F80
3FFE00
3FFE00
3FFE00
ENDCHAR
STARTCHAR d
ENCODING 100
SWIDTH 540 0
DWIDTH 25 0
BBX 17 26 3 0
BITMAP
000F80
000F80
000F80
000F80
000F80
000F80
000F80
000F80
3FFF80
3FFF80
F80F80
F80F80
F80F80
F80F80
F80F80
F80F80
F80F80
F80F80
F80F80
F80F80
F80F80
F80F80
F80F80
3FFF80
3FFF80
3FFF80
ENDCHAR
STARTCHAR e
ENCODING 101
SWIDTH 540 0
DWIDTH 25 0
BBX 17 18 3 0
BITMAP
3FFE00
3FFE00
F80F80
F80F80
F80F80
F80F80
F80F80
F80F80
FFFF80
FFFF80
F80000
F80000
F80000
F80F80
F80F80
3FFE00
3FFE00
3FFE00
ENDCHAR
STARTCHAR f
ENCODING 102
SWIDTH 540 0
DWIDTH 25 0
BBX 15 26 3 0
BITMAP
07F0
07F0
07F0
3E3E
3E3E
3E3E
3E3E
3E3E
3E00
3E00
3E00
3E00
3E00
FFC0
FFC0
FF80
3E00
3E00
3E00
3E00
3E00
3E00
3E00
3E00
3E00
3E00
ENDCHAR
STARTCHAR g
ENCODING 103
SWIDTH 540 0
DWIDTH 25 0
BBX 17 25 3 -7
BITMAP
3FFF80
3FFF80
F87E00
F83E00
F83E00
F83E00
F83E00
F83E00
F83E00
F83E00
3FF000
3FF000
3FF000
F80000
F80000
3FFE00
3FFE00
3FFE00
F80F80
F80F80
F80F80
F80F80
F80F80
3FFE00
3FFE00
ENDCHAR
STARTCHAR h
ENCODING 104
SWIDTH 540 0
DWIDTH 25 0
BBX 17 26 3 0
BITMAP
F80000
F80000
F80000
F80000
F80000
F80000
F80000
F80000
FFFE00
FFFE00
F80F80
F80F80
F80F80
F80F80
F80F80
F80F80
F80F80
F80F80
F80F80
F80F80
F80F80
F80F80
F80F80
F80F80
F80F80
F80F80
ENDCHAR
STARTCHAR i
ENCODING 105
SWIDTH 540 0
DWIDTH 25 0
BBX 15 26 3 0
BITMAP
07C0
07C0
07C0
07C0
07C0
0000
0000
0000
FFC0
FFC0
0FC0
07C0
07C0
07C0
07C0
07C0
07C0
07C0
07C0
07C0
07C0
07C0
07C0
FFFE
FFFE
FFFE
ENDCHAR
STARTCHAR j
ENCODING 106
SWIDTH 540 0
DWIDTH 25 0
BBX 13 33 5 -7
BITMAP
00F8
00F8
00F8
00F8
00F8
0000
0000
0000
07F8
07F8
01F8
00F8
00F8
00F8
00F8
00F8
00F8
00F8
00F8
00F8
00F8
00F8
00F8
00F8
00F8
00F8
F8F8
F8F8
F8F8
F8F8
F8F8
1FC0
1FC0
ENDCHAR
STARTCHAR k
ENCODING 107
SWIDTH 540 0
DWIDTH 25 0
BBX 17 26 3 0
BITMAP
F80000
F80000
F80000
F80000
F80000
F80000
F80000
F80000
F83E00
F83E00
F8F800
F9F000
F9F000
FFC000
FFC000
FFC000
FFC000
FFC000
F9F000
F9F000
F9F800
F83E00
F83E00
F80F80
F80F80
F80F80
ENDCHAR
STARTCHAR l
ENCODING 108
SWIDTH 540 0
DWIDTH 25 0
BBX 15 26 3 0
BITMAP
FFC0
FFC0
FFC0
07C0
07C0
07C0
07C0
07C0
07C0
07C0
07C0
07C0
07C0
07C0
07C0
07C0
07C0
07C0
07C0
07C0
07C0
07C0
07C0
FFFE
FFFE
FFFE
ENDCHAR
STARTCHAR m
ENCODING 109
SWIDTH 540 0
DWIDTH 25 0
BBX 20 18 0 0
BITMAP
FFFFC0
FFFFC0
FDF9F0
F8F9F0
F8F9F0
F8F9F0
F8F9F0
F8F9F0
F8F9F0
F8F9F0
F8F9F0
F8F9F0
F8F9F0
F8F9F0
F8F9F0
F801F0
F801F0
F801F0
ENDCHAR
STARTCHAR n
ENCODING 110
SWIDTH 540 0
DWIDTH 25 0
BBX 17 18 3 0
BITMAP
F9FE00
F9FE00
FE0F80
FE0F80
FE0F80
F80F80
F80F80
F80F80
F80F80
F80F80
F80F80
F80F80
F80F80
F80F80
F80F80
F80F80
F80F80
F80F80
ENDCHAR
STARTCHAR o
ENCODING 111
SWIDTH 540 0
DWIDTH 25 0
BBX 17 18 3 0
BITMAP
07F000
07F000
1F7C00
3E3E00
3E3E00
F80F80
F80F80
F80F80
F80F80
F80F80
F80F80
F80F80
F80F80
3E3E00
3E3E00
07F000
07F000
07F000
ENDCHAR
STARTCHAR p
ENCODING 112
SWIDTH 540 0
DWIDTH 25 0
BBX 17 25 3 -7
BITMAP
FFF000
FFF000
F87C00
F83E00
F83E00
F80F80
F80F80
F80F80
F80F80
F80F80
F80F80
F80F80
F80F80
F83E00
F83E00
FFF000
FFF000
FFF000
F80000
F80000
F80000
F80000
F80000
F80000
F80000
ENDCHAR
STARTCHAR q
ENCODING 113
SWIDTH 540 0
DWIDTH 25 0
BBX 17 25 3 -7
BITMAP
07FF80
07FF80
1F0F80
3E0F80
3E0F80
F80F80
F80F80
F80F80
F80F80
F80F80
F80F80
F80F80
F80F80
3E0F80
3E0F80
07FF80
07FF80
07FF80
000F80
000F80
000F80
000F80
000F80
000F80
000F80
ENDCHAR
STARTCHAR r
ENCODING 114
SWIDTH 540 0
DWIDTH 25 0
BBX 17 18 3 0
BITMAP
F9FE00
F9FE00
3FCF80
3FCF80
3FCF80
3E0000
3E0000
3E0000
3E0000
3E0000
3E0000
3E0000
3E0000
3E0000
3E0000
3E0000
3E0000
3E0000
ENDCHAR
STARTCHAR s
ENCODING 115
SWIDTH 540 0
DWIDTH 25 0
BBX 17 18 3 0
BITMAP
3FFE00
3FFE00
F80F80
F80F80
F80F80
F80000
F80000
F80000
3FFE00
3FFE00
000F80
000F80
000F80
F80F80
F80F80
3FFE00
3FFE00
3FFE00
ENDCHAR
STARTCHAR t
ENCODING 116
SWIDTH 540 0
DWIDTH 25 0
BBX 17 23 3 0
BITMAP
07C000
07C000
07C000
07C000
07C000
FFFE00
FFFE00
0FC000
07C000
07C000
07C000
07C000
07C000
07C000
07C000
07C000
07C000
07C000
07CF80
07CF80
01FE00
01FE00
01FE00
ENDCHAR
STARTCHAR u
ENCODING 117
SWIDTH 540 0
DWIDTH 25 0
BBX 17 18 3 0
BITMAP
F80F80
F80F80
F80F80
F80F80
F80F80
F80F80
F80F80
F80F80
F80F80
F80F80
F80F80
F80F80
F80F80
F80F80
F80F80
3FFF80
3FFF80
3FFF80
ENDCHAR
STARTCHAR v
ENCODING 118
SWIDTH 540 0
DWIDTH 25 0
BBX 17 18 3 0
BITMAP
F80F80
F80F80
F80F80
F80F80
F80F80
3E3E00
3E3E00
3E3E00
3E3E00
3E3E00
07F000
07F000
07F000
07F000
07F000
01C000
01C000
01C000
ENDCHAR
STARTCHAR w
ENCODING 119
SWIDTH 540 0
DWIDTH 25 0
BBX 20 18 0 0
BITMAP
F801F0
F801F0
F801F0
F801F0
F801F0
F8F9F0
F8F9F0
F8F9F0
F8F9F0
F8F9F0
F8F9F0
F8F9F0
F9F9F0
FFFFF0
FFFFF0
3F07C0
1F07C0
1F07C0
ENDCHAR
STARTCHAR x
ENCODING 120
SWIDTH 540 0
DWIDTH 25 0
BBX 17 18 3 0
BITMAP
F80F80
F80F80
3E3E00
3E3E00
3E3E00
07F000
07F000
07F000
01C000
01C000
07F000
07F000
0FF800
3E3E00
3E3E00
F80F80
F80F80
F80F80
ENDCHAR
STARTCHAR y
ENCODING 121
SWIDTH 540 0
DWIDTH 25 0
BBX 17 25 3 -7
BITMAP
F80F80
F80F80
F80F80
F80F80
F80F80
3E3E00
3E3E00
3E3E00
3E3E00
3E3E00
3E3E00
3E3E00
3E3E00
07F000
07F000
07F000
07F000
07F000
07C000
07C000
C7C000
C7C000
C7C000
3E0000
3E0000
ENDCHAR
STARTCHAR z
ENCODING 122
SWIDTH 540 0
DWIDTH 25 0
BBX 15 18 3 0
BITMAP
FFFE
FFFE
007E
003E
003E
01F0
01F0
01F0
07C0
07C0
3E00
3E00
3E00
F800
F800
FFFE
FFFE
FFFE
ENDCHAR
STARTCHAR braceleft
ENCODING 123
SWIDTH 540 0
DWIDTH 25 0
BBX 15 28 3 0
BITMAP
07FE
07FE
3E00
3E00
3E00
3E00
3E00
3E00
3E00
3E00
3E00
3E00
F800
F800
F800
3E00
3E00
3E00
3E00
3E00
3E00
3E00
3E00
3E00
3E00
07FE
07FE
07FE
ENDCHAR
STARTCHAR bar
ENCODING 124
SWIDTH 540 0
DWIDTH 25 0
BBX 5 30 8 -2
BITMAP
F8
F8
F8
F8
F8
F8
F8
F8
F8
F8
F8
F8
F8
F8
F8
F8
F8
F8
F8
F8
F8
F8
F8
F8
F8
F8
F8
F8
F8
F8
ENDCHAR
STARTCHAR braceright
ENCODING 125
SWIDTH 540 0
DWIDTH 25 0
BBX 15 28 3 0
BITMAP
FE00
FE00
07C0
07C0
07C0
07C0
07C0
07C0
07C0
07C0
07C0
07C0
01FC
01FE
01FE
07C0
07C0
07C0
07C0
07C0
07C0
07C0
07C0
07C0
07C0
FE00
FE00
FE00
ENDCHAR
STARTCHAR asciitilde
ENCODING 126
SWIDTH 540 0
DWIDTH 25 0
BBX 20 8 0 18
BITMAP
1FC1F0
1FC1F0
3FC1F0
F8F9F0
F8F9F0
F83FC0
F83FC0
F83FC0
ENDCHAR
STARTCHAR space
ENCODING 160
SWIDTH 540 0
DWIDTH 25 0
BBX 1 1 22 -10
BITMAP
00
ENDCHAR
STARTCHAR exclamdown
ENCODING 161
SWIDTH 540 0
DWIDTH 25 0
BBX 5 26 10 0
BITMAP
F8
F8
F8
00
00
F8
F8
F8
F8
F8
F8
F8
F8
F8
F8
F8
F8
F8
F8
F8
F8
F8
F8
F8
F8
F8
ENDCHAR
STARTCHAR cent
ENCODING 162
SWIDTH 540 0
DWIDTH 25 0
BBX 17 21 3 0
BITMAP
000600
000E00
000E00
3FFE00
3FFE00
F87F80
F83F80
F83F80
F9C000
F9C000
F9C000
F9C000
F9C000
FE0F80
FE0F80
FE0F80
3FFE00
3FFE00
380000
380000
380000
ENDCHAR
STARTCHAR sterling
ENCODING 163
SWIDTH 540 0
DWIDTH 25 0
BBX 20 25 0 -2
BITMAP
00FFC0
00FFC0
07C1F0
07C1F0
07C1F0
07C000
07C000
07C000
07C000
07C000
1FFE00
1FFE00
1FFE00
07C000
07C000
07C000
07C000
07C000
FFF800
FFF800
E7FFF0
E7FFF0
E7FFF0
FF0000
FF0000
ENDCHAR
STARTCHAR currency
ENCODING 164
SWIDTH 540 0
DWIDTH 25 0
BBX 17 18 3 5
BITMAP
F80F80
F80F80
FFFF80
FFFF80
FFFF80
3E3E00
3E3E00
380E00
380E00
380E00
3E3E00
3E3E00
3F7E00
FFFF80
FFFF80
F80F80
F80F80
F00780
ENDCHAR
STARTCHAR yen
ENCODING 165
SWIDTH 540 0
DWIDTH 25 0
BBX 20 26 0 0
BITMAP
F801F0
F801F0
F801F0
F801F0
F801F0
3E07C0
1F07C0
1F07C0
07FE00
07FE00
1FFF80
1FFFC0
1FFFC0
00F800
00F800
01F800
1FFFC0
1FFFC0
00F800
00F800
00F800
00F800
00F800
00F800
00F800
00F800
ENDCHAR
STARTCHAR brokenbar
ENCODING 166
SWIDTH 540 0
DWIDTH 25 0
BBX 5 28 8 -2
BITMAP
F8
F8
F8
F8
F8
F8
F8
F8
F8
F8
F8
F8
F8
00
00
00
F8
F8
F8
F8
F8
F8
F8
F8
F8
F8
F8
F8
ENDCHAR
STARTCHAR section
ENCODING 167
SWIDTH 540 0
DWIDTH 25 0
BBX 15 28 3 -2
BITMAP
3FF0
3FF0
3FF0
F83E
F83E
F800
F800
F800
3FF0
3FF0
F87C
F83E
F83E
F83E
F83E
F83E
F83E
F83E
3FF0
3FF0
3FF8
003E
003E
F83E
F83E
F83E
3FF0
3FF0
ENDCHAR
STARTCHAR dieresis
ENCODING 168
SWIDTH 540 0
DWIDTH 25 0
BBX 13 5 5 28
BITMAP
F8F8
F8F8
F8F8
F8F8
F8F8
ENDCHAR
STARTCHAR copyright
ENCODING 169
SWIDTH 540 0
DWIDTH 25 0
BBX 20 28 0 0
BITMAP
07FE00
07FE00
1FFFC0
1FFFC0
3FFFC0
F801F0
F801F0
E7FE30
E7FE30
E7FE30
E70630
E70630
E70030
E70030
E70030
E70630
E70630
E70E30
E7FE30
E7FE30
F801F0
F801F0
F801F0
1FFFC0
1FFFC0
07FE00
07FE00
07FE00
ENDCHAR
STARTCHAR ordfeminine
ENCODING 170
SWIDTH 540 0
DWIDTH 25 0
BBX 12 18 3 8
BITMAP
3FC0
3FC0
3FC0
01F0
01F0
3FF0
3FF0
3FF0
F9F0
F9F0
3FF0
3FF0
3FF0
0000
0000
0000
FFF0
FFF0
ENDCHAR
STARTCHAR guillemotleft
ENCODING 171
SWIDTH 540 0
DWIDTH 25 0
BBX 20 20 0 3
BITMAP
00F9F0
00F9F0
07C7C0
07C7C0
07C7C0
1F3E00
1F3E00
FCF800
F8F800
F8F800
F8F800
F8F800
FCF800
1F3E00
1F3E00
07C7C0
07C7C0
07C7C0
00F9F0
00F9F0
ENDCHAR
STARTCHAR logicalnot
ENCODING 172
SWIDTH 540 0
DWIDTH 25 0
BBX 17 13 3 5
BITMAP
FFFF80
FFFF80
FFFF80
FFFF80
FFFF80
000F80
000F80
000F80
000F80
000F80
000F80
000F80
000780
ENDCHAR
STARTCHAR hyphen
ENCODING 173
SWIDTH 540 0
DWIDTH 25 0
BBX 15 3 3 10
BITMAP
FFFE
FFFE
FFFC
ENDCHAR
STARTCHAR registered
ENCODING 174
SWIDTH 540 0
DWIDTH 25 0
BBX 20 28 0 0
BITMAP
07FE00
07FE00
1FFFC0
1FFFC0
3FFFC0
F801F0
F801F0
E7FE30
E7FE30
E7FE30
E70630
E70630
E7FE30
E7FE30
E7FE30
E73830
E73830
E73830
E73E30
E73E30
F801F0
F801F0
F801F0
1FFFC0
1FFFC0
07FE00
07FE00
07FE00
ENDCHAR
STARTCHAR macron
ENCODING 175
SWIDTH 540 0
DWIDTH 25 0
BBX 15 5 3 23
BITMAP
FFFE
FFFE
FFFE
FFFE
FFFE
ENDCHAR
STARTCHAR degree
ENCODING 176
SWIDTH 540 0
DWIDTH 25 0
BBX 12 10 3 21
BITMAP
3FC0
3FC0
3FC0
F9F0
F9F0
F9F0
F9F0
F9F0
3FC0
3FC0
ENDCHAR
STARTCHAR plusminus
ENCODING 177
SWIDTH 540 0
DWIDTH 25 0
BBX 15 23 3 3
BITMAP
07C0
07C0
07C0
07C0
07C0
07C0
07C0
07C0
FFFE
FFFE
0FC0
07C0
07C0
07C0
07C0
07C0
07C0
07C0
0000
0000
0000
FFFE
FFFE
ENDCHAR
STARTCHAR twosuperior
ENCODING 178
SWIDTH 540 0
DWIDTH 25 0
BBX 12 16 3 10
BITMAP
3FC0
3FC0
3FC0
F9F0
F9F0
01F0
01F0
01F0
07C0
07C0
1F00
3E00
3E00
FFF0
FFF0
FFF0
ENDCHAR
STARTCHAR threesuperior
ENCODING 179
SWIDTH 540 0
DWIDTH 25 0
BBX 12 16 3 10
BITMAP
3FC0
3FC0
3FC0
F9F0
F9F0
07C0
07C0
07C0
01F0
01F0
F1F0
F9F0
F9F0
3FC0
3FC0
1F80
ENDCHAR
STARTCHAR acute
ENCODING 180
SWIDTH 540 0
DWIDTH 25 0
BBX 10 7 5 26
BITMAP
07C0
07C0
1F00
1F00
3F00
F800
F800
ENDCHAR
STARTCHAR mu
ENCODING 181
SWIDTH 540 0
DWIDTH 25 0
BBX 17 23 3 -5
BITMAP
F80F80
F80F80
F80F80
F80F80
F80F80
F80F80
F80F80
F80F80
F80F80
F80F80
F83F80
F83F80
F83F80
F9FF80
F9FF80
FFCF80
FFCF80
FFCF80
F80000
F80000
F80000
F80000
F80000
ENDCHAR
STARTCHAR paragraph
ENCODING 182
SWIDTH 540 0
DWIDTH 25 0
BBX 17 26 3 0
BITMAP
3FFF80
3FFF80
3FFF80
FFCF80
FFCF80
FFCF80
FFCF80
FFCF80
FFCF80
FFCF80
3FCF80
3FCF80
3FCF80
07CF80
07CF80
07CF80
07CF80
07CF80
07CF80
07CF80
07CF80
07CF80
07CF80
07CF80
07CF80
07CF80
ENDCHAR
STARTCHAR periodcentered
ENCODING 183
SWIDTH 540 0
DWIDTH 25 0
BBX 7 6 8 10
BITMAP
FE
FE
FE
FE
FE
FE
ENDCHAR
STARTCHAR cedilla
ENCODING 184
SWIDTH 540 0
DWIDTH 25 0
BBX 15 7 3 -7
BITMAP
01F0
01F0
F03E
F83E
F83E
3FF0
3FF0
ENDCHAR
STARTCHAR onesuperior
ENCODING 185
SWIDTH 540 0
DWIDTH 25 0
BBX 10 16 3 10
BITMAP
3E00
3E00
3E00
FE00
FE00
3E00
3E00
3E00
3E00
3E00
3E00
3E00
3E00
FFC0
FFC0
FF80
ENDCHAR
STARTCHAR ordmasculine
ENCODING 186
SWIDTH 540 0
DWIDTH 25 0
BBX 12 18 3 8
BITMAP
3FC0
3FC0
3FC0
F9F0
F9F0
F9F0
F9F0
F9F0
F9F0
F9F0
3FC0
3FC0
3FC0
0000
0000
0000
FFF0
FFF0
ENDCHAR
STARTCHAR guillemotright
ENCODING 187
SWIDTH 540 0
DWIDTH 25 0
BBX 20 20 0 3
BITMAP
F8F800
F8F800
3F3E00
1F3E00
1F3E00
07C7C0
07C7C0
01F9F0
00F9F0
00F9F0
00F9F0
00F9F0
01F9F0
07C7C0
07C7C0
1F3E00
1F3E00
3F3E00
F8F800
F8F800
ENDCHAR
STARTCHAR onequarter
ENCODING 188
SWIDTH 540 0
DWIDTH 25 0
BBX 20 28 0 0
BITMAP
1F0000
1F0000
FF0000
FF0000
FF0000
1F0000
1F0000
1F0000
1F0000
1F0000
1F0030
1F0030
1F00F0
1F01F0
1F01F0
FFC7F0
FFC7F0
FFCFF0
003FF0
003FF0
00F9F0
00F9F0
00F9F0
00FFF0
00FFF0
0001F0
0001F0
0001F0
ENDCHAR
STARTCHAR onehalf
ENCODING 189
SWIDTH 540 0
DWIDTH 25 0
BBX 20 28 0 0
BITMAP
1F0000
1F0000
FF0000
FF0000
FF0000
1F0000
1F0000
1F0000
1F0000
1F0000
1F3FC0
1F3FC0
1FC1F0
1FC1F0
1FC1F0
FFC1F0
FFC1F0
FFC1F0
0007C0
0007C0
003E00
003E00
003E00
00F800
00F800
00FFF0
00FFF0
00FFF0
ENDCHAR
STARTCHAR threequarters
ENCODING 190
SWIDTH 540 0
DWIDTH 25 0
BBX 20 28 0 0
BITMAP
1FC000
1FC000
E0F800
E0F800
C0F800
00F800
00F800
07C000
07C000
07C000
00F830
00F830
C0F8F0
E0F9F0
E0F9F0
1FC7F0
1FC7F0
1FCFF0
003FF0
003FF0
00F9F0
00F9F0
00F9F0
00FFF0
00FFF0
0001F0
0001F0
0001F0
ENDCHAR
STARTCHAR questiondown
ENCODING 191
SWIDTH 540 0
DWIDTH 25 0
BBX 17 26 3 0
BITMAP
01F000
01F000
01F000
01F000
01F000
000000
000000
000000
01F000
01F000
07C000
07C000
07C000
3E0000
3E0000
3E0000
F80000
F80000
F80F80
F80F80
F80F80
F80F80
F80F80
3FFE00
3FFE00
3FFE00
ENDCHAR
STARTCHAR Agrave
ENCODING 192
SWIDTH 540 0
DWIDTH 25 0
BBX 17 36 3 0
BITMAP
3E0000
3E0000
1F0000
07C000
07C000
01F000
01F000
01F000
000000
000000
01C000
01C000
01C000
07F000
07F000
07F000
07F000
07F000
07F000
07F000
1F7C00
3E3E00
3E3E00
3FFE00
3FFE00
3FFE00
3E3E00
3E3E00
F80F80
F80F80
F80F80
F80F80
F80F80
F80F80
F80F80
F80F80
ENDCHAR
STARTCHAR Aacute
ENCODING 193
SWIDTH 540 0
DWIDTH 25 0
BBX 17 36 3 0
BITMAP
003E00
003E00
007C00
01F000
01F000
07C000
07C000
07C000
000000
000000
01C000
01C000
01C000
07F000
07F000
07F000
07F000
07F000
07F000
07F000
1F7C00
3E3E00
3E3E00
3FFE00
3FFE00
3FFE00
3E3E00
3E3E00
F80F80
F80F80
F80F80
F80F80
F80F80
F80F80
F80F80
F80F80
ENDCHAR
STARTCHAR Acircumflex
ENCODING 194
SWIDTH 540 0
DWIDTH 25 0
BBX 17 36 3 0
BITMAP
01C000
01C000
01C000
07F000
07F000
3E3E00
3E3E00
3E3E00
000000
000000
01C000
01C000
01C000
07F000
07F000
07F000
07F000
07F000
07F000
07F000
1F7C00
3E3E00
3E3E00
3FFE00
3FFE00
3FFE00
3E3E00
3E3E00
F80F80
F80F80
F80F80
F80F80
F80F80
F80F80
F80F80
F80F80
ENDCHAR
STARTCHAR Atilde
ENCODING 195
SWIDTH 540 0
DWIDTH 25 0
BBX 17 33 3 0
BITMAP
3FCF80
3FCF80
F9FE00
F9FE00
F1FE00
000000
000000
01C000
01C000
01C000
07F000
07F000
07F000
07F000
07F000
07F000
07F000
1F7C00
3E3E00
3E3E00
3FFE00
3FFE00
3FFE00
3E3E00
3E3E00
F80F80
F80F80
F80F80
F80F80
F80F80
F80F80
F80F80
F80F80
ENDCHAR
STARTCHAR Adieresis
ENCODING 196
SWIDTH 540 0
DWIDTH 25 0
BBX 17 33 3 0
BITMAP
3E3E00
3E3E00
3E3E00
3E3E00
3E3E00
000000
000000
01C000
01C000
01C000
07F000
07F000
07F000
07F000
07F000
07F000
07F000
1F7C00
3E3E00
3E3E00
3FFE00
3FFE00
3FFE00
3E3E00
3E3E00
F80F80
F80F80
F80F80
F80F80
F80F80
F80F80
F80F80
F80F80
ENDCHAR
STARTCHAR Aring
ENCODING 197
SWIDTH 540 0
DWIDTH 25 0
BBX 17 36 3 0
BITMAP
07F000
07F000
0FF800
3E3E00
3E3E00
3E3E00
3E3E00
3E3E00
07F000
07F000
01C000
01C000
01C000
07F000
07F000
07F000
07F000
07F000
07F000
07F000
1F7C00
3E3E00
3E3E00
3FFE00
3FFE00
3FFE00
3E3E00
3E3E00
F80F80
F80F80
F80F80
F80F80
F80F80
F80F80
F80F80
F80F80
ENDCHAR
STARTCHAR AE
ENCODING 198
SWIDTH 540 0
DWIDTH 25 0
BBX 17 26 3 0
BITMAP
07FF80
07FF80
07FF80
07FE00
07FE00
3E3E00
3E3E00
3E3E00
3E3E00
3E3E00
3E3F80
3E3F80
3E3F80
FFFE00
FFFE00
FFFE00
F83E00
F83E00
F83E00
F83E00
F83E00
F83E00
F83E00
F83F80
F83F80
F83F80
ENDCHAR
STARTCHAR Ccedilla
ENCODING 199
SWIDTH 540 0
DWIDTH 25 0
BBX 17 36 3 -10
BITMAP
07FE00
07FE00
07FE00
3E0F80
3E0F80
F80000
F80000
F80000
F80000
F80000
F80000
F80000
F80000
F80000
F80000
F80000
F80000
F80000
F80000
F80000
F80000
3E0F80
3E0F80
07FE00
07FE00
07FE00
01F000
01F000
003E00
003E00
003E00
3E3E00
3E3E00
0FF800
07F000
07F000
ENDCHAR
STARTCHAR Egrave
ENCODING 200
SWIDTH 540 0
DWIDTH 25 0
BBX 17 36 3 0
BITMAP
3E0000
3E0000
1F0000
07C000
07C000
01F000
01F000
01F000
000000
000000
FFFF80
FFFF80
FFFF80
F80000
F80000
F80000
F80000
F80000
F80000
F80000
FFF000
FFF000
FFF000
F80000
F80000
F80000
F80000
F80000
F80000
F80000
F80000
F80000
F80000
FFFF80
FFFF80
FFFF80
ENDCHAR
STARTCHAR Eacute
ENCODING 201
SWIDTH 540 0
DWIDTH 25 0
BBX 17 36 3 0
BITMAP
003E00
003E00
007C00
01F000
01F000
07C000
07C000
07C000
000000
000000
FFFF80
FFFF80
FFFF80
F80000
F80000
F80000
F80000
F80000
F80000
F80000
FFF000
FFF000
FFF000
F80000
F80000
F80000
F80000
F80000
F80000
F80000
F80000
F80000
F80000
FFFF80
FFFF80
FFFF80
ENDCHAR
STARTCHAR Ecircumflex
ENCODING 202
SWIDTH 540 0
DWIDTH 25 0
BBX 17 36 3 0
BITMAP
01C000
01C000
01C000
07F000
07F000
3E3E00
3E3E00
3E3E00
000000
000000
FFFF80
FFFF80
FFFF80
F80000
F80000
F80000
F80000
F80000
F80000
F80000
FFF000
FFF000
FFF000
F80000
F80000
F80000
F80000
F80000
F80000
F80000
F80000
F80000
F80000
FFFF80
FFFF80
FFFF80
ENDCHAR
STARTCHAR Edieresis
ENCODING 203
SWIDTH 540 0
DWIDTH 25 0
BBX 17 33 3 0
BITMAP
3E3E00
3E3E00
3E3E00
3E3E00
3E3E00
000000
000000
FFFF80
FFFF80
FFFF80
F80000
F80000
F80000
F80000
F80000
F80000
F80000
FFF000
FFF000
FFF000
F80000
F80000
F80000
F80000
F80000
F80000
F80000
F80000
F80000
F80000
FFFF80
FFFF80
FFFF80
ENDCHAR
STARTCHAR Igrave
ENCODING 204
SWIDTH 540 0
DWIDTH 25 0
BBX 15 36 3 0
BITMAP
3E00
3E00
1F00
07C0
07C0
01F0
01F0
01F0
0000
0000
FFFE
FFFE
FFFE
07C0
07C0
07C0
07C0
07C0
07C0
07C0
07C0
07C0
07C0
07C0
07C0
07C0
07C0
07C0
07C0
07C0
07C0
07C0
07C0
FFFE
FFFE
FFFE
ENDCHAR
STARTCHAR Iacute
ENCODING 205
SWIDTH 540 0
DWIDTH 25 0
BBX 15 36 3 0
BITMAP
003E
003E
007C
01F0
01F0
07C0
07C0
07C0
0000
0000
FFFE
FFFE
FFFE
07C0
07C0
07C0
07C0
07C0
07C0
07C0
07C0
07C0
07C0
07C0
07C0
07C0
07C0
07C0
07C0
07C0
07C0
07C0
07C0
FFFE
FFFE
FFFE
ENDCHAR
STARTCHAR Icircumflex
ENCODING 206
SWIDTH 540 0
DWIDTH 25 0
BBX 15 36 3 0
BITMAP
01C0
01C0
01C0
07F0
07F0
3E3E
3E3E
3E3E
0000
0000
FFFE
FFFE
FFFE
07C0
07C0
07C0
07C0
07C0
07C0
07C0
07C0
07C0
07C0
07C0
07C0
07C0
07C0
07C0
07C0
07C0
07C0
07C0
07C0
FFFE
FFFE
FFFE
ENDCHAR
STARTCHAR Idieresis
ENCODING 207
SWIDTH 540 0
DWIDTH 25 0
BBX 15 33 3 0
BITMAP
3E3E
3E3E
3E3E
3E3E
3E3E
0000
0000
FFFE
FFFE
FFFE
07C0
07C0
07C0
07C0
07C0
07C0
07C0
07C0
07C0
07C0
07C0
07C0
07C0
07C0
07C0
07C0
07C0
07C0
07C0
07C0
FFFE
FFFE
FFFE
ENDCHAR
STARTCHAR Eth
ENCODING 208
SWIDTH 540 0
DWIDTH 25 0
BBX 20 26 0 0
BITMAP
1FFE00
1FFE00
1FFE00
1F07C0
1F07C0
1F01F0
1F01F0
1F01F0
1F01F0
1F01F0
FFC1F0
FFC1F0
FFC1F0
1F01F0
1F01F0
1F01F0
1F01F0
1F01F0
1F01F0
1F01F0
1F01F0
1F07C0
1F07C0
1FFE00
1FFE00
1FFE00
ENDCHAR
STARTCHAR Ntilde
ENCODING 209
SWIDTH 540 0
DWIDTH 25 0
BBX 17 33 3 0
BITMAP
3FCF80
3FCF80
F9FE00
F9FE00
F1FE00
000000
000000
F80F80
F80F80
F80F80
F80F80
F80F80
FE0F80
FE0F80
FE0F80
FFCF80
FFCF80
F9FF80
F9FF80
F9FF80
F83F80
F83F80
F83F80
F80F80
F80F80
F80F80
F80F80
F80F80
F80F80
F80F80
F80F80
F80F80
F80F80
ENDCHAR
STARTCHAR Ograve
ENCODING 210
SWIDTH 540 0
DWIDTH 25 0
BBX 17 36 3 0
BITMAP
3E0000
3E0000
1F0000
07C000
07C000
01F000
01F000
01F000
000000
000000
3FFE00
3FFE00
3FFE00
F80F80
F80F80
F80F80
F80F80
F80F80
F80F80
F80F80
F80F80
F80F80
F80F80
F80F80
F80F80
F80F80
F80F80
F80F80
F80F80
F80F80
F80F80
F80F80
F80F80
3FFE00
3FFE00
3FFE00
ENDCHAR
STARTCHAR Oacute
ENCODING 211
SWIDTH 540 0
DWIDTH 25 0
BBX 17 36 3 0
BITMAP
003E00
003E00
007C00
01F000
01F000
07C000
07C000
07C000
000000
000000
3FFE00
3FFE00
3FFE00
F80F80
F80F80
F80F80
F80F80
F80F80
F80F80
F80F80
F80F80
F80F80
F80F80
F80F80
F80F80
F80F80
F80F80
F80F80
F80F80
F80F80
F80F80
F80F80
F80F80
3FFE00
3FFE00
3FFE00
ENDCHAR
STARTCHAR Ocircumflex
ENCODING 212
SWIDTH 540 0
DWIDTH 25 0
BBX 17 36 3 0
BITMAP
01C000
01C000
01C000
07F000
07F000
3E3E00
3E3E00
3E3E00
000000
000000
3FFE00
3FFE00
3FFE00
F80F80
F80F80
F80F80
F80F80
F80F80
F80F80
F80F80
F80F80
F80F80
F80F80
F80F80
F80F80
F80F80
F80F80
F80F80
F80F80
F80F80
F80F80
F80F80
F80F80
3FFE00
3FFE00
3FFE00
ENDCHAR
STARTCHAR Otilde
ENCODING 213
SWIDTH 540 0
DWIDTH 25 0
BBX 17 33 3 0
BITMAP
3FCF80
3FCF80
F9FE00
F9FE00
F1FE00
000000
000000
3FFE00
3FFE00
3FFE00
F80F80
F80F80
F80F80
F80F80
F80F80
F80F80
F80F80
F80F80
F80F80
F80F80
F80F80
F80F80
F80F80
F80F80
F80F80
F80F80
F80F80
F80F80
F80F80
F80F80
3FFE00
3FFE00
3FFE00
ENDCHAR
STARTCHAR Odieresis
ENCODING 214
SWIDTH 540 0
DWIDTH 25 0
BBX 17 33 3 0
BITMAP
3E3E00
3E3E00
3E3E00
3E3E00
3E3E00
000000
000000
3FFE00
3FFE00
3FFE00
F80F80
F80F80
F80F80
F80F80
F80F80
F80F80
F80F80
F80F80
F80F80
F80F80
F80F80
F80F80
F80F80
F80F80
F80F80
F80F80
F80F80
F80F80
F80F80
F80F80
3FFE00
3FFE00
3FFE00
ENDCHAR
STARTCHAR multiply
ENCODING 215
SWIDTH 540 0
DWIDTH 25 0
BBX 20 18 0 3
BITMAP
F800F0
F801F0
F801F0
1F07C0
1F07C0
07FF00
07FE00
07FE00
00F800
00F800
01F800
07FE00
07FE00
1F07C0
1F07C0
3E07C0
F801F0
F801F0
ENDCHAR
STARTCHAR Oslash
ENCODING 216
SWIDTH 540 0
DWIDTH 25 0
BBX 17 30 3 -2
BITMAP
000F80
000F80
3FFF80
3FFF80
3FFF80
F83F80
F83F80
F83F80
F83F80
F83F80
F9FF80
F9FF80
F9FF80
F9FF80
F9FF80
FFCF80
FFCF80
FFCF80
FFCF80
FFCF80
FE0F80
FE0F80
FE0F80
FE0F80
FE0F80
FFFE00
FFFE00
FFFE00
F80000
F80000
ENDCHAR
STARTCHAR Ugrave
ENCODING 217
SWIDTH 540 0
DWIDTH 25 0
BBX 17 36 3 0
BITMAP
3E0000
3E0000
1F0000
07C000
07C000
01F000
01F000
01F000
000000
000000
F80F80
F80F80
F80F80
F80F80
F80F80
F80F80
F80F80
F80F80
F80F80
F80F80
F80F80
F80F80
F80F80
F80F80
F80F80
F80F80
F80F80
F80F80
F80F80
F80F80
F80F80
3E3E00
3E3E00
07F000
07F000
07F000
ENDCHAR
STARTCHAR Uacute
ENCODING 218
SWIDTH 540 0
DWIDTH 25 0
BBX 17 36 3 0
BITMAP
003E00
003E00
007C00
01F000
01F000
07C000
07C000
07C000
000000
000000
F80F80
F80F80
F80F80
F80F80
F80F80
F80F80
F80F80
F80F80
F80F80
F80F80
F80F80
F80F80
F80F80
F80F80
F80F80
F80F80
F80F80
F80F80
F80F80
F80F80
F80F80
3E3E00
3E3E00
07F000
07F000
07F000
ENDCHAR
STARTCHAR Ucircumflex
ENCODING 219
SWIDTH 540 0
DWIDTH 25 0
BBX 17 36 3 0
BITMAP
01C000
01C000
01C000
07F000
07F000
3E3E00
3E3E00
3E3E00
000000
000000
F80F80
F80F80
F80F80
F80F80
F80F80
F80F80
F80F80
F80F80
F80F80
F80F80
F80F80
F80F80
F80F80
F80F80
F80F80
F80F80
F80F80
F80F80
F80F80
F80F80
F80F80
3E3E00
3E3E00
07F000
07F000
07F000
ENDCHAR
STARTCHAR Udieresis
ENCODING 220
SWIDTH 540 0
DWIDTH 25 0
BBX 17 33 3 0
BITMAP
3E3E00
3E3E00
3E3E00
3E3E00
3E3E00
000000
000000
F80F80
F80F80
F80F80
F80F80
F80F80
F80F80
F80F80
F80F80
F80F80
F80F80
F80F80
F80F80
F80F80
F80F80
F80F80
F80F80
F80F80
F80F80
F80F80
F80F80
F80F80
3E3E00
3E3E00
07F000
07F000
07F000
ENDCHAR
STARTCHAR Yacute
ENCODING 221
SWIDTH 540 0
DWIDTH 25 0
BBX 20 36 0 0
BITMAP
003E00
003E00
003E00
00F800
00F800
07C000
07C000
07C000
000000
000000
F801F0
F801F0
F801F0
F801F0
F801F0
3E07C0
1F07C0
1F07C0
07FE00
07FE00
01F800
00F800
00F800
00F800
00F800
00F800
00F800
00F800
00F800
00F800
00F800
00F800
00F800
00F800
00F800
00F800
ENDCHAR
STARTCHAR Thorn
ENCODING 222
SWIDTH 540 0
DWIDTH 25 0
BBX 17 26 3 0
BITMAP
F80000
F80000
F80000
F80000
F80000
FFFE00
FFFE00
FFFE00
F80F80
F80F80
F80F80
F80F80
F80F80
F80F80
F80F80
F80F80
FFFE00
FFFE00
F80000
F80000
F80000
F80000
F80000
F80000
F80000
F80000
ENDCHAR
STARTCHAR germandbls
ENCODING 223
SWIDTH 540 0
DWIDTH 25 0
BBX 17 26 3 0
BITMAP
07FE00
07FE00
07FE00
3E0F80
3E0F80
3E0F80
3E0F80
3E0F80
3E0F80
3E0F80
FE3E00
FE3E00
FE3E00
3E0F80
3E0F80
3E0F80
3E0F80
3E0F80
3E0F80
3E0F80
3E0F80
3E0F80
3E0F80
3E3E00
3E3E00
3E3E00
ENDCHAR
STARTCHAR agrave
ENCODING 224
SWIDTH 540 0
DWIDTH 25 0
BBX 17 28 3 0
BITMAP
3E0000
3E0000
07C000
07C000
07C000
01F000
01F000
000000
000000
000000
3FFE00
3FFE00
000F80
000F80
000F80
000F80
000F80
000F80
3FFF80
3FFF80
F80F80
F80F80
F80F80
F80F80
F80F80
3FFF80
3FFF80
3FFF80
ENDCHAR
STARTCHAR aacute
ENCODING 225
SWIDTH 540 0
DWIDTH 25 0
BBX 17 28 3 0
BITMAP
003E00
003E00
01F000
01F000
01F000
07C000
07C000
000000
000000
000000
3FFE00
3FFE00
000F80
000F80
000F80
000F80
000F80
000F80
3FFF80
3FFF80
F80F80
F80F80
F80F80
F80F80
F80F80
3FFF80
3FFF80
3FFF80
ENDCHAR
STARTCHAR acircumflex
ENCODING 226
SWIDTH 540 0
DWIDTH 25 0
BBX 17 28 3 0
BITMAP
01C000
01C000
07F000
07F000
07F000
3E3E00
3E3E00
000000
000000
000000
3FFE00
3FFE00
000F80
000F80
000F80
000F80
000F80
000F80
3FFF80
3FFF80
F80F80
F80F80
F80F80
F80F80
F80F80
3FFF80
3FFF80
3FFF80
ENDCHAR
STARTCHAR atilde
ENCODING 227
SWIDTH 540 0
DWIDTH 25 0
BBX 17 26 3 0
BITMAP
3FCF80
3FCF80
3FCF80
F9FE00
F9FE00
000000
000000
000000
3FFE00
3FFE00
000F80
000F80
000F80
000F80
000F80
000F80
3FFF80
3FFF80
F80F80
F80F80
F80F80
F80F80
F80F80
3FFF80
3FFF80
3FFF80
ENDCHAR
STARTCHAR adieresis
ENCODING 228
SWIDTH 540 0
DWIDTH 25 0
BBX 17 26 3 0
BITMAP
3E3E00
3E3E00
3E3E00
3E3E00
3E3E00
000000
000000
000000
3FFE00
3FFE00
000F80
000F80
000F80
000F80
000F80
000F80
3FFF80
3FFF80
F80F80
F80F80
F80F80
F80F80
F80F80
3FFF80
3FFF80
3FFF80
ENDCHAR
STARTCHAR aring
ENCODING 229
SWIDTH 540 0
DWIDTH 25 0
BBX 17 28 3 0
BITMAP
07F000
07F000
3E3E00
3E3E00
3E3E00
07F000
07F000
000000
000000
000000
3FFE00
3FFE00
000F80
000F80
000F80
000F80
000F80
000F80
3FFF80
3FFF80
F80F80
F80F80
F80F80
F80F80
F80F80
3FFF80
3FFF80
3FFF80
ENDCHAR
STARTCHAR ae
ENCODING 230
SWIDTH 540 0
DWIDTH 25 0
BBX 20 18 0 0
BITMAP
1FC7C0
1FC7C0
01F9F0
00F9F0
00F9F0
00F9F0
00F9F0
01F9F0
1FFFF0
1FFFF0
F8F800
F8F800
F8F800
F8F9F0
F8F9F0
3FC7C0
1FC7C0
1FC7C0
ENDCHAR
STARTCHAR ccedilla
ENCODING 231
SWIDTH 540 0
DWIDTH 25 0
BBX 17 28 3 -10
BITMAP
3FFE00
3FFE00
F80F80
F80F80
F80F80
F80000
F80000
F80000
F80000
F80000
F80000
F80000
F80000
F80F80
F80F80
3FFE00
3FFE00
3FFE00
01F000
01F000
003E00
003E00
003E00
3E3E00
3E3E00
0FF800
07F000
07F000
ENDCHAR
STARTCHAR egrave
ENCODING 232
SWIDTH 540 0
DWIDTH 25 0
BBX 17 28 3 0
BITMAP
3E0000
3E0000
07C000
07C000
07C000
01F000
01F000
000000
000000
000000
3FFE00
3FFE00
F80F80
F80F80
F80F80
F80F80
F80F80
F80F80
FFFF80
FFFF80
F80000
F80000
F80000
F80F80
F80F80
3FFE00
3FFE00
3FFE00
ENDCHAR
STARTCHAR eacute
ENCODING 233
SWIDTH 540 0
DWIDTH 25 0
BBX 17 28 3 0
BITMAP
003E00
003E00
01F000
01F000
01F000
07C000
07C000
000000
000000
000000
3FFE00
3FFE00
F80F80
F80F80
F80F80
F80F80
F80F80
F80F80
FFFF80
FFFF80
F80000
F80000
F80000
F80F80
F80F80
3FFE00
3FFE00
3FFE00
ENDCHAR
STARTCHAR ecircumflex
ENCODING 234
SWIDTH 540 0
DWIDTH 25 0
BBX 17 28 3 0
BITMAP
01C000
01C000
07F000
07F000
07F000
3E3E00
3E3E00
000000
000000
000000
3FFE00
3FFE00
F80F80
F80F80
F80F80
F80F80
F80F80
F80F80
FFFF80
FFFF80
F80000
F80000
F80000
F80F80
F80F80
3FFE00
3FFE00
3FFE00
ENDCHAR
STARTCHAR edieresis
ENCODING 235
SWIDTH 540 0
DWIDTH 25 0
BBX 17 26 3 0
BITMAP
3E3E00
3E3E00
3E3E00
3E3E00
3E3E00
000000
000000
000000
3FFE00
3FFE00
F80F80
F80F80
F80F80
F80F80
F80F80
F80F80
FFFF80
FFFF80
F80000
F80000
F80000
F80F80
F80F80
3FFE00
3FFE00
3FFE00
ENDCHAR
STARTCHAR igrave
ENCODING 236
SWIDTH 540 0
DWIDTH 25 0
BBX 15 28 3 0
BITMAP
F800
F800
3E00
3E00
3E00
07C0
07C0
0000
0000
0000
FFC0
FFC0
0FC0
07C0
07C0
07C0
07C0
07C0
07C0
07C0
07C0
07C0
07C0
07C0
07C0
FFFE
FFFE
FFFE
ENDCHAR
STARTCHAR iacute
ENCODING 237
SWIDTH 540 0
DWIDTH 25 0
BBX 15 28 3 0
BITMAP
003E
003E
01F0
01F0
01F0
07C0
07C0
0000
0000
0000
FFC0
FFC0
0FC0
07C0
07C0
07C0
07C0
07C0
07C0
07C0
07C0
07C0
07C0
07C0
07C0
FFFE
FFFE
FFFE
ENDCHAR
STARTCHAR icircumflex
ENCODING 238
SWIDTH 540 0
DWIDTH 25 0
BBX 15 28 3 0
BITMAP
0600
0600
3FC0
3FC0
3FC0
F9F0
F9F0
0000
0000
0000
FFC0
FFC0
0FC0
07C0
07C0
07C0
07C0
07C0
07C0
07C0
07C0
07C0
07C0
07C0
07C0
FFFE
FFFE
FFFE
ENDCHAR
STARTCHAR idieresis
ENCODING 239
SWIDTH 540 0
DWIDTH 25 0
BBX 15 26 3 0
BITMAP
3E3E
3E3E
3E3E
3E3E
3E3E
0000
0000
0000
FFC0
FFC0
0FC0
07C0
07C0
07C0
07C0
07C0
07C0
07C0
07C0
07C0
07C0
07C0
07C0
FFFE
FFFE
FFFE
ENDCHAR
STARTCHAR eth
ENCODING 240
SWIDTH 540 0
DWIDTH 25 0
BBX 17 28 3 0
BITMAP
3E3E00
3E3E00
07F000
07F000
07F000
07F000
07F000
3E3E00
3E3E00
3E3E00
003E00
003E00
1FFF80
3FFF80
3FFF80
F80F80
F80F80
F80F80
F80F80
F80F80
F80F80
F80F80
F80F80
F80F80
F80F80
3FFE00
3FFE00
3FFE00
ENDCHAR
STARTCHAR ntilde
ENCODING 241
SWIDTH 540 0
DWIDTH 25 0
BBX 17 26 3 0
BITMAP
3FCF80
3FCF80
3FCF80
F9FE00
F9FE00
000000
000000
000000
F9FE00
F9FE00
FE0F80
FE0F80
FE0F80
F80F80
F80F80
F80F80
F80F80
F80F80
F80F80
F80F80
F80F80
F80F80
F80F80
F80F80
F80F80
F80F80
ENDCHAR
STARTCHAR ograve
ENCODING 242
SWIDTH 540 0
DWIDTH 25 0
BBX 17 28 3 0
BITMAP
3E0000
3E0000
07C000
07C000
07C000
01F000
01F000
000000
000000
000000
07F000
07F000
1F7C00
3E3E00
3E3E00
F80F80
F80F80
F80F80
F80F80
F80F80
F80F80
F80F80
F80F80
3E3E00
3E3E00
07F000
07F000
07F000
ENDCHAR
STARTCHAR oacute
ENCODING 243
SWIDTH 540 0
DWIDTH 25 0
BBX 17 28 3 0
BITMAP
003E00
003E00
01F000
01F000
01F000
07C000
07C000
000000
000000
000000
07F000
07F000
1F7C00
3E3E00
3E3E00
F80F80
F80F80
F80F80
F80F80
F80F80
F80F80
F80F80
F80F80
3E3E00
3E3E00
07F000
07F000
07F000
ENDCHAR
STARTCHAR ocircumflex
ENCODING 244
SWIDTH 540 0
DWIDTH 25 0
BBX 17 28 3 0
BITMAP
01C000
01C000
07F000
07F000
07F000
3E3E00
3E3E00
000000
000000
000000
07F000
07F000
1F7C00
3E3E00
3E3E00
F80F80
F80F80
F80F80
F80F80
F80F80
F80F80
F80F80
F80F80
3E3E00
3E3E00
07F000
07F000
07F000
ENDCHAR
STARTCHAR otilde
ENCODING 245
SWIDTH 540 0
DWIDTH 25 0
BBX 17 26 3 0
BITMAP
3FCF80
3FCF80
3FCF80
F9FE00
F9FE00
000000
000000
000000
07F000
07F000
1F7C00
3E3E00
3E3E00
F80F80
F80F80
F80F80
F80F80
F80F80
F80F80
F80F80
F80F80
3E3E00
3E3E00
07F000
07F000
07F000
ENDCHAR
STARTCHAR odieresis
ENCODING 246
SWIDTH 540 0
DWIDTH 25 0
BBX 17 26 3 0
BITMAP
3E3E00
3E3E00
3E3E00
3E3E00
3E3E00
000000
000000
000000
07F000
07F000
1F7C00
3E3E00
3E3E00
F80F80
F80F80
F80F80
F80F80
F80F80
F80F80
F80F80
F80F80
3E3E00
3E3E00
07F000
07F000
07F000
ENDCHAR
STARTCHAR divide
ENCODING 247
SWIDTH 540 0
DWIDTH 25 0
BBX 20 18 0 3
BITMAP
00F800
00F800
00F800
00F800
00F800
000000
000000
000000
FFFFF0
FFFFF0
FFFFF0
000000
000000
00F800
00F800
00F800
00F800
00F800
ENDCHAR
STARTCHAR oslash
ENCODING 248
SWIDTH 540 0
DWIDTH 25 0
BBX 20 23 0 -2
BITMAP
000030
000030
000030
07FFF0
07FFF0
1F0FC0
1F07C0
1F07C0
F83FF0
F83FF0
F83FF0
F8F9F0
F8F9F0
FFC1F0
FFC1F0
FFC1F0
1F07C0
1F07C0
FFFE00
FFFE00
FFFE00
E00000
E00000
ENDCHAR
STARTCHAR ugrave
ENCODING 249
SWIDTH 540 0
DWIDTH 25 0
BBX 17 28 3 0
BITMAP
3E0000
3E0000
07C000
07C000
07C000
01F000
01F000
000000
000000
000000
F80F80
F80F80
F80F80
F80F80
F80F80
F80F80
F80F80
F80F80
F80F80
F80F80
F80F80
F80F80
F80F80
F80F80
F80F80
3FFF80
3FFF80
3FFF80
ENDCHAR
STARTCHAR uacute
ENCODING 250
SWIDTH 540 0
DWIDTH 25 0
BBX 17 28 3 0
BITMAP
003E00
003E00
01F000
01F000
01F000
07C000
07C000
000000
000000
000000
F80F80
F80F80
F80F80
F80F80
F80F80
F80F80
F80F80
F80F80
F80F80
F80F80
F80F80
F80F80
F80F80
F80F80
F80F80
3FFF80
3FFF80
3FFF80
ENDCHAR
STARTCHAR ucircumflex
ENCODING 251
SWIDTH 540 0
DWIDTH 25 0
BBX 17 28 3 0
BITMAP
01C000
01C000
07F000
07F000
07F000
3E3E00
3E3E00
000000
000000
000000
F80F80
F80F80
F80F80
F80F80
F80F80
F80F80
F80F80
F80F80
F80F80
F80F80
F80F80
F80F80
F80F80
F80F80
F80F80
3FFF80
3FFF80
3FFF80
ENDCHAR
STARTCHAR udieresis
ENCODING 252
SWIDTH 540 0
DWIDTH 25 0
BBX 17 26 3 0
BITMAP
3E3E00
3E3E00
3E3E00
3E3E00
3E3E00
000000
000000
000000
F80F80
F80F80
F80F80
F80F80
F80F80
F80F80
F80F80
F80F80
F80F80
F80F80
F80F80
F80F80
F80F80
F80F80
F80F80
3FFF80
3FFF80
3FFF80
ENDCHAR
STARTCHAR yacute
ENCODING 253
SWIDTH 540 0
DWIDTH 25 0
BBX 17 35 3 -7
BITMAP
003E00
003E00
01F000
01F000
01F000
07C000
07C000
000000
000000
000000
F80F80
F80F80
F80F80
F80F80
F80F80
3E3E00
3E3E00
3E3E00
3E3E00
3E3E00
3E3E00
3E3E00
3E3E00
07F000
07F000
07F000
07F000
07F000
07C000
07C000
C7C000
C7C000
C7C000
3E0000
3E0000
ENDCHAR
STARTCHAR thorn
ENCODING 254
SWIDTH 540 0
DWIDTH 25 0
BBX 17 28 3 -5
BITMAP
F80000
F80000
F80000
F80000
F80000
FFF000
FFF000
F87C00
F83E00
F83E00
F80F80
F80F80
F80F80
F80F80
F80F80
F80F80
F80F80
F80F80
F83E00
F83E00
FFF000
FFF000
FFF000
F80000
F80000
F80000
F80000
F80000
ENDCHAR
STARTCHAR ydieresis
ENCODING 255
SWIDTH 540 0
DWIDTH 25 0
BBX 17 33 3 -7
BITMAP
3E3E00
3E3E00
3E3E00
3E3E00
3E3E00
000000
000000
000000
F80F80
F80F80
F80F80
F80F80
F80F80
3E3E00
3E3E00
3E3E00
3E3E00
3E3E00
3E3E00
3E3E00
3E3E00
07F000
07F000
07F000
07F000
07F000
07C000
07C000
C7C000
C7C000
C7C000
3E0000
3E0000
ENDCHAR
STARTCHAR Amacron
ENCODING 256
SWIDTH 540 0
DWIDTH 25 0
BBX 17 31 3 0
BITMAP
3FFE00
3FFE00
3FFE00
000000
000000
01C000
01C000
01C000
07F000
07F000
07F000
07F000
07F000
07F000
07F000
1F7C00
3E3E00
3E3E00
3FFE00
3FFE00
3FFE00
3E3E00
3E3E00
F80F80
F80F80
F80F80
F80F80
F80F80
F80F80
F80F80
F80F80
ENDCHAR
STARTCHAR amacron
ENCODING 257
SWIDTH 540 0
DWIDTH 25 0
BBX 17 23 3 0
BITMAP
3FFE00
3FFE00
000000
000000
000000
3FFE00
3FFE00
000F80
000F80
000F80
000F80
000F80
000F80
3FFF80
3FFF80
F80F80
F80F80
F80F80
F80F80
F80F80
3FFF80
3FFF80
3FFF80
ENDCHAR
STARTCHAR Abreve
ENCODING 258
SWIDTH 540 0
DWIDTH 25 0
BBX 17 33 3 0
BITMAP
F80F80
F80F80
3FFE00
3FFE00
3FFE00
000000
000000
01C000
01C000
01C000
07F000
07F000
07F000
07F000
07F000
07F000
07F000
1F7C00
3E3E00
3E3E00
3FFE00
3FFE00
3FFE00
3E3E00
3E3E00
F80F80
F80F80
F80F80
F80F80
F80F80
F80F80
F80F80
F80F80
ENDCHAR
STARTCHAR abreve
ENCODING 259
SWIDTH 540 0
DWIDTH 25 0
BBX 17 26 3 0
BITMAP
F80F80
F80F80
F80F80
3FFE00
3FFE00
000000
000000
000000
3FFE00
3FFE00
000F80
000F80
000F80
000F80
000F80
000F80
3FFF80
3FFF80
F80F80
F80F80
F80F80
F80F80
F80F80
3FFF80
3FFF80
3FFF80
ENDCHAR
STARTCHAR Aogonek
ENCODING 260
SWIDTH 540 0
DWIDTH 25 0
BBX 17 33 3 -7
BITMAP
01C000
01C000
01C000
07F000
07F000
07F000
07F000
07F000
07F000
07F000
1F7C00
3E3E00
3E3E00
3FFE00
3FFE00
3FFE00
3E3E00
3E3E00
F80F80
F80F80
F80F80
F80F80
F80F80
F80F80
F80F80
F80F80
07C000
07C000
07C000
07C000
07C000
07FF80
07FF80
ENDCHAR
STARTCHAR aogonek
ENCODING 261
SWIDTH 540 0
DWIDTH 25 0
BBX 17 25 3 -7
BITMAP
3FFE00
3FFE00
000F80
000F80
000F80
000F80
000F80
000F80
3FFF80
3FFF80
F80F80
F80F80
F80F80
F80F80
F80F80
3FFF80
3FFF80
3FFF80
07C000
07C000
07C000
07C000
07C000
07FF80
07FF80
ENDCHAR
STARTCHAR Cacute
ENCODING 262
SWIDTH 540 0
DWIDTH 25 0
BBX 17 36 3 0
BITMAP
003E00
003E00
007C00
01F000
01F000
07C000
07C000
07C000
000000
000000
07FE00
07FE00
07FE00
3E0F80
3E0F80
F80000
F80000
F80000
F80000
F80000
F80000
F80000
F80000
F80000
F80000
F80000
F80000
F80000
F80000
F80000
F80000
3E0F80
3E0F80
07FE00
07FE00
07FE00
ENDCHAR
STARTCHAR cacute
ENCODING 263
SWIDTH 540 0
DWIDTH 25 0
BBX 17 28 3 0
BITMAP
003E00
003E00
01F000
01F000
01F000
07C000
07C000
000000
000000
000000
3FFE00
3FFE00
F80F80
F80F80
F80F80
F80000
F80000
F80000
F80000
F80000
F80000
F80000
F80000
F80F80
F80F80
3FFE00
3FFE00
3FFE00
ENDCHAR
STARTCHAR Ccircumflex
ENCODING 264
SWIDTH 540 0
DWIDTH 25 0
BBX 17 36 3 0
BITMAP
01C000
01C000
01C000
07F000
07F000
3E3E00
3E3E00
3E3E00
000000
000000
07FE00
07FE00
07FE00
3E0F80
3E0F80
F80000
F80000
F80000
F80000
F80000
F80000
F80000
F80000
F80000
F80000
F80000
F80000
F80000
F80000
F80000
F80000
3E0F80
3E0F80
07FE00
07FE00
07FE00
ENDCHAR
STARTCHAR ccircumflex
ENCODING 265
SWIDTH 540 0
DWIDTH 25 0
BBX 17 28 3 0
BITMAP
01C000
01C000
07F000
07F000
07F000
3E3E00
3E3E00
000000
000000
000000
3FFE00
3FFE00
F80F80
F80F80
F80F80
F80000
F80000
F80000
F80000
F80000
F80000
F80000
F80000
F80F80
F80F80
3FFE00
3FFE00
3FFE00
ENDCHAR
STARTCHAR Cdotaccent
ENCODING 266
SWIDTH 540 0
DWIDTH 25 0
BBX 17 33 3 0
BITMAP
01F000
01F000
01F000
01F000
01F000
000000
000000
07FE00
07FE00
07FE00
3E0F80
3E0F80
F80000
F80000
F80000
F80000
F80000
F80000
F80000
F80000
F80000
F80000
F80000
F80000
F80000
F80000
F80000
F80000
3E0F80
3E0F80
07FE00
07FE00
07FE00
ENDCHAR
STARTCHAR cdotaccent
ENCODING 267
SWIDTH 540 0
DWIDTH 25 0
BBX 17 26 3 0
BITMAP
07C000
07C000
07C000
07C000
07C000
000000
000000
000000
3FFE00
3FFE00
F80F80
F80F80
F80F80
F80000
F80000
F80000
F80000
F80000
F80000
F80000
F80000
F80F80
F80F80
3FFE00
3FFE00
3FFE00
ENDCHAR
STARTCHAR Ccaron
ENCODING 268
SWIDTH 540 0
DWIDTH 25 0
BBX 17 36 3 0
BITMAP
3E3E00
3E3E00
1F7C00
07F000
07F000
01C000
01C000
01C000
000000
000000
07FE00
07FE00
07FE00
3E0F80
3E0F80
F80000
F80000
F80000
F80000
F80000
F80000
F80000
F80000
F80000
F80000
F80000
F80000
F80000
F80000
F80000
F80000
3E0F80
3E0F80
07FE00
07FE00
07FE00
ENDCHAR
STARTCHAR ccaron
ENCODING 269
SWIDTH 540 0
DWIDTH 25 0
BBX 17 28 3 0
BITMAP
3E3E00
3E3E00
07F000
07F000
07F000
01C000
01C000
000000
000000
000000
3FFE00
3FFE00
F80F80
F80F80
F80F80
F80000
F80000
F80000
F80000
F80000
F80000
F80000
F80000
F80F80
F80F80
3FFE00
3FFE00
3FFE00
ENDCHAR
STARTCHAR Dcaron
ENCODING 270
SWIDTH 540 0
DWIDTH 25 0
BBX 17 36 3 0
BITMAP
3E3E00
3E3E00
1F7C00
07F000
07F000
01C000
01C000
01C000
000000
000000
FFF000
FFF000
FFF000
F83E00
F83E00
F80F80
F80F80
F80F80
F80F80
F80F80
F80F80
F80F80
F80F80
F80F80
F80F80
F80F80
F80F80
F80F80
F80F80
F80F80
F80F80
F83E00
F83E00
FFF000
FFF000
FFF000
ENDCHAR
STARTCHAR dcaron
ENCODING 271
SWIDTH 540 0
DWIDTH 25 0
BBX 17 33 3 0
BITMAP
3E3E00
3E3E00
07F000
07F000
07F000
01C000
01C000
000F80
000F80
000F80
000F80
000F80
000F80
000F80
000F80
3FFF80
3FFF80
F80F80
F80F80
F80F80
F80F80
F80F80
F80F80
F80F80
F80F80
F80F80
F80F80
F80F80
F80F80
F80F80
3FFF80
3FFF80
3FFF80
ENDCHAR
STARTCHAR Dcroat
ENCODING 272
SWIDTH 540 0
DWIDTH 25 0
BBX 20 26 0 0
BITMAP
1FFE00
1FFE00
1FFE00
1F07C0
1F07C0
1F01F0
1F01F0
1F01F0
1F01F0
1F01F0
FFC1F0
FFC1F0
FFC1F0
1F01F0
1F01F0
1F01F0
1F01F0
1F01F0
1F01F0
1F01F0
1F01F0
1F07C0
1F07C0
1FFE00
1FFE00
1FFE00
ENDCHAR
STARTCHAR dcroat
ENCODING 273
SWIDTH 540 0
DWIDTH 25 0
BBX 20 26 0 0
BITMAP
0007C0
0007C0
0007C0
00FFF0
00FFF0
0007C0
0007C0
0007C0
1FFFC0
1FFFC0
FC0FC0
F807C0
F807C0
F807C0
F807C0
F807C0
F807C0
F807C0
F807C0
F807C0
F807C0
F807C0
F807C0
3FFFC0
1FFFC0
1FFFC0
ENDCHAR
STARTCHAR Emacron
ENCODING 274
SWIDTH 540 0
DWIDTH 25 0
BBX 17 31 3 0
BITMAP
3FFE00
3FFE00
3FFE00
000000
000000
FFFF80
FFFF80
FFFF80
F80000
F80000
F80000
F80000
F80000
F80000
F80000
FFF000
FFF000
FFF000
F80000
F80000
F80000
F80000
F80000
F80000
F80000
F80000
F80000
F80000
FFFF80
FFFF80
FFFF80
ENDCHAR
STARTCHAR emacron
ENCODING 275
SWIDTH 540 0
DWIDTH 25 0
BBX 17 23 3 0
BITMAP
3FFE00
3FFE00
000000
000000
000000
3FFE00
3FFE00
F80F80
F80F80
F80F80
F80F80
F80F80
F80F80
FFFF80
FFFF80
F80000
F80000
F80000
F80F80
F80F80
3FFE00
3FFE00
3FFE00
ENDCHAR
STARTCHAR Ebreve
ENCODING 276
SWIDTH 540 0
DWIDTH 25 0
BBX 17 33 3 0
BITMAP
F80F80
F80F80
3FFE00
3FFE00
3FFE00
000000
000000
FFFF80
FFFF80
FFFF80
F80000
F80000
F80000
F80000
F80000
F80000
F80000
FFF000
FFF000
FFF000
F80000
F80000
F80000
F80000
F80000
F80000
F80000
F80000
F80000
F80000
FFFF80
FFFF80
FFFF80
ENDCHAR
STARTCHAR ebreve
ENCODING 277
SWIDTH 540 0
DWIDTH 25 0
BBX 17 26 3 0
BITMAP
F80F80
F80F80
F80F80
3FFE00
3FFE00
000000
000000
000000
3FFE00
3FFE00
F80F80
F80F80
F80F80
F80F80
F80F80
F80F80
FFFF80
FFFF80
F80000
F80000
F80000
F80F80
F80F80
3FFE00
3FFE00
3FFE00
ENDCHAR
STARTCHAR Edotaccent
ENCODING 278
SWIDTH 540 0
DWIDTH 25 0
BBX 17 33 3 0
BITMAP
01F000
01F000
01F000
01F000
01F000
000000
000000
FFFF80
FFFF80
FFFF80
F80000
F80000
F80000
F80000
F80000
F80000
F80000
FFF000
FFF000
FFF000
F80000
F80000
F80000
F80000
F80000
F80000
F80000
F80000
F80000
F80000
FFFF80
FFFF80
FFFF80
ENDCHAR
STARTCHAR edotaccent
ENCODING 279
SWIDTH 540 0
DWIDTH 25 0
BBX 17 26 3 0
BITMAP
01F000
01F000
01F000
01F000
01F000
000000
000000
000000
3FFE00
3FFE00
F80F80
F80F80
F80F80
F80F80
F80F80
F80F80
FFFF80
FFFF80
F80000
F80000
F80000
F80F80
F80F80
3FFE00
3FFE00
3FFE00
ENDCHAR
STARTCHAR Eogonek
ENCODING 280
SWIDTH 540 0
DWIDTH 25 0
BBX 17 33 3 -7
BITMAP
FFFF80
FFFF80
FFFF80
F80000
F80000
F80000
F80000
F80000
F80000
F80000
FFF000
FFF000
FFF000
F80000
F80000
F80000
F80000
F80000
F80000
F80000
F80000
F80000
F80000
FFFF80
FFFF80
FFFF80
07C000
07C000
07C000
07C000
07C000
07FF80
07FF80
ENDCHAR
STARTCHAR eogonek
ENCODING 281
SWIDTH 540 0
DWIDTH 25 0
BBX 17 25 3 -7
BITMAP
3FFE00
3FFE00
F80F80
F80F80
F80F80
F80F80
F80F80
F80F80
FFFF80
FFFF80
F80000
F80000
F80000
F80F80
F80F80
3FFE00
3FFE00
3FFE00
07C000
07C000
07C000
07C000
07C000
07FF80
07FF80
ENDCHAR
STARTCHAR Ecaron
ENCODING 282
SWIDTH 540 0
DWIDTH 25 0
BBX 17 36 3 0
BITMAP
3E3E00
3E3E00
1F7C00
07F000
07F000
01C000
01C000
01C000
000000
000000
FFFF80
FFFF80
FFFF80
F80000
F80000
F80000
F80000
F80000
F80000
F80000
FFF000
FFF000
FFF000
F80000
F80000
F80000
F80000
F80000
F80000
F80000
F80000
F80000
F80000
FFFF80
FFFF80
FFFF80
ENDCHAR
STARTCHAR ecaron
ENCODING 283
SWIDTH 540 0
DWIDTH 25 0
BBX 17 28 3 0
BITMAP
3E3E00
3E3E00
07F000
07F000
07F000
01C000
01C000
000000
000000
000000
3FFE00
3FFE00
F80F80
F80F80
F80F80
F80F80
F80F80
F80F80
FFFF80
FFFF80
F80000
F80000
F80000
F80F80
F80F80
3FFE00
3FFE00
3FFE00
ENDCHAR
STARTCHAR Gcircumflex
ENCODING 284
SWIDTH 540 0
DWIDTH 25 0
BBX 17 36 3 0
BITMAP
01C000
01C000
01C000
07F000
07F000
3E3E00
3E3E00
3E3E00
000000
000000
07F000
07F000
07F000
3E3E00
3E3E00
F80F80
F80F80
F80F80
F80000
F80000
F80000
F80000
F80000
F83F80
F83F80
F83F80
F80F80
F80F80
F80F80
F80F80
F80F80
3E3E00
3E3E00
07F000
07F000
07F000
ENDCHAR
STARTCHAR gcircumflex
ENCODING 285
SWIDTH 540 0
DWIDTH 25 0
BBX 17 35 3 -7
BITMAP
01C000
01C000
07F000
07F000
07F000
3E3E00
3E3E00
000000
000000
000000
3FFF80
3FFF80
F87E00
F83E00
F83E00
F83E00
F83E00
F83E00
F83E00
F83E00
3FF000
3FF000
3FF000
F80000
F80000
3FFE00
3FFE00
3FFE00
F80F80
F80F80
F80F80
F80F80
F80F80
3FFE00
3FFE00
ENDCHAR
STARTCHAR Gbreve
ENCODING 286
SWIDTH 540 0
DWIDTH 25 0
BBX 17 33 3 0
BITMAP
F80F80
F80F80
3FFE00
3FFE00
3FFE00
000000
000000
07F000
07F000
07F000
3E3E00
3E3E00
F80F80
F80F80
F80F80
F80000
F80000
F80000
F80000
F80000
F83F80
F83F80
F83F80
F80F80
F80F80
F80F80
F80F80
F80F80
3E3E00
3E3E00
07F000
07F000
07F000
ENDCHAR
STARTCHAR gbreve
ENCODING 287
SWIDTH 540 0
DWIDTH 25 0
BBX 17 33 3 -7
BITMAP
F80F80
F80F80
F80F80
3FFE00
3FFE00
000000
000000
000000
3FFF80
3FFF80
F87E00
F83E00
F83E00
F83E00
F83E00
F83E00
F83E00
F83E00
3FF000
3FF000
3FF000
F80000
F80000
3FFE00
3FFE00
3FFE00
F80F80
F80F80
F80F80
F80F80
F80F80
3FFE00
3FFE00
ENDCHAR
STARTCHAR Gdotaccent
ENCODING 288
SWIDTH 540 0
DWIDTH 25 0
BBX 17 33 3 0
BITMAP
07C000
07C000
07C000
07C000
07C000
000000
000000
07F000
07F000
07F000
3E3E00
3E3E00
F80F80
F80F80
F80F80
F80000
F80000
F80000
F80000
F80000
F83F80
F83F80
F83F80
F80F80
F80F80
F80F80
F80F80
F80F80
3E3E00
3E3E00
07F000
07F000
07F000
ENDCHAR
STARTCHAR gdotaccent
ENCODING 289
SWIDTH 540 0
DWIDTH 25 0
BBX 17 33 3 -7
BITMAP
07C000
07C000
07C000
07C000
07C000
000000
000000
000000
3FFF80
3FFF80
F87E00
F83E00
F83E00
F83E00
F83E00
F83E00
F83E00
F83E00
3FF000
3FF000
3FF000
F80000
F80000
3FFE00
3FFE00
3FFE00
F80F80
F80F80
F80F80
F80F80
F80F80
3FFE00
3FFE00
ENDCHAR
STARTCHAR Gcommaaccent
ENCODING 290
SWIDTH 540 0
DWIDTH 25 0
BBX 17 36 3 -10
BITMAP
07F000
07F000
07F000
3E3E00
3E3E00
F80F80
F80F80
F80F80
F80000
F80000
F80000
F80000
F80000
F83F80
F83F80
F83F80
F80F80
F80F80
F80F80
F80F80
F80F80
3E3E00
3E3E00
07F000
07F000
07F000
01F000
01F000
003E00
003E00
003E00
3E3E00
3E3E00
0FF800
07F000
07F000
ENDCHAR
STARTCHAR gcommaaccent
ENCODING 291
SWIDTH 540 0
DWIDTH 25 0
BBX 17 38 3 -7
BITMAP
01F000
01F000
01F000
07C000
07C000
07F000
07F000
07F000
07F000
07F000
000000
000000
000000
3FFF80
3FFF80
F87E00
F83E00
F83E00
F83E00
F83E00
F83E00
F83E00
F83E00
3FF000
3FF000
3FF000
F80000
F80000
3FFE00
3FFE00
3FFE00
F80F80
F80F80
F80F80
F80F80
F80F80
3FFE00
3FFE00
ENDCHAR
STARTCHAR Hcircumflex
ENCODING 292
SWIDTH 540 0
DWIDTH 25 0
BBX 17 36 3 0
BITMAP
01C000
01C000
01C000
07F000
07F000
3E3E00
3E3E00
3E3E00
000000
000000
F80F80
F80F80
F80F80
F80F80
F80F80
F80F80
F80F80
F80F80
F80F80
F80F80
FFFF80
FFFF80
FFFF80
F80F80
F80F80
F80F80
F80F80
F80F80
F80F80
F80F80
F80F80
F80F80
F80F80
F80F80
F80F80
F80F80
ENDCHAR
STARTCHAR hcircumflex
ENCODING 293
SWIDTH 540 0
DWIDTH 25 0
BBX 17 36 3 0
BITMAP
01C000
01C000
01C000
07F000
07F000
3E3E00
3E3E00
3E3E00
000000
000000
F80000
F80000
F80000
F80000
F80000
F80000
F80000
F80000
FFFE00
FFFE00
F80F80
F80F80
F80F80
F80F80
F80F80
F80F80
F80F80
F80F80
F80F80
F80F80
F80F80
F80F80
F80F80
F80F80
F80F80
F80F80
ENDCHAR
STARTCHAR Hbar
ENCODING 294
SWIDTH 540 0
DWIDTH 25 0
BBX 23 26 0 0
BITMAP
1F01F0
1F01F0
1F01F0
1F01F0
1F01F0
FFFFFE
FFFFFE
FFFFFE
1F01F0
1F01F0
1FFFF0
1FFFF0
1FFFF0
1F01F0
1F01F0
1F01F0
1F01F0
1F01F0
1F01F0
1F01F0
1F01F0
1F01F0
1F01F0
1F01F0
1F01F0
1F01F0
ENDCHAR
STARTCHAR hbar
ENCODING 295
SWIDTH 540 0
DWIDTH 25 0
BBX 20 26 0 0
BITMAP
1F0000
1F0000
3F0000
FFF800
FFF800
3F0000
1F0000
1F0000
1FFFC0
1FFFC0
1F01F0
1F01F0
1F01F0
1F01F0
1F01F0
1F01F0
1F01F0
1F01F0
1F01F0
1F01F0
1F01F0
1F01F0
1F01F0
1F01F0
1F01F0
1F01F0
ENDCHAR
STARTCHAR Itilde
ENCODING 296
SWIDTH 540 0
DWIDTH 25 0
BBX 17 33 3 0
BITMAP
3FCF80
3FCF80
F9FE00
F9FE00
F1FE00
000000
000000
FFFE00
FFFE00
FFFE00
07C000
07C000
07C000
07C000
07C000
07C000
07C000
07C000
07C000
07C000
07C000
07C000
07C000
07C000
07C000
07C000
07C000
07C000
07C000
07C000
FFFE00
FFFE00
FFFE00
ENDCHAR
STARTCHAR itilde
ENCODING 297
SWIDTH 540 0
DWIDTH 25 0
BBX 17 26 3 0
BITMAP
3FCF80
3FCF80
3FCF80
F9FE00
F9FE00
000000
000000
000000
FFC000
FFC000
0FC000
07C000
07C000
07C000
07C000
07C000
07C000
07C000
07C000
07C000
07C000
07C000
07C000
FFFE00
FFFE00
FFFE00
ENDCHAR
STARTCHAR Imacron
ENCODING 298
SWIDTH 540 0
DWIDTH 25 0
BBX 15 31 3 0
BITMAP
FFFE
FFFE
FFFE
0000
0000
FFFE
FFFE
FFFE
07C0
07C0
07C0
07C0
07C0
07C0
07C0
07C0
07C0
07C0
07C0
07C0
07C0
07C0
07C0
07C0
07C0
07C0
07C0
07C0
FFFE
FFFE
FFFE
ENDCHAR
STARTCHAR imacron
ENCODING 299
SWIDTH 540 0
DWIDTH 25 0
BBX 15 23 3 0
BITMAP
FFFE
FFFE
0000
0000
0000
FFC0
FFC0
0FC0
07C0
07C0
07C0
07C0
07C0
07C0
07C0
07C0
07C0
07C0
07C0
07C0
FFFE
FFFE
FFFE
ENDCHAR
STARTCHAR Ibreve
ENCODING 300
SWIDTH 540 0
DWIDTH 25 0
BBX 17 33 3 0
BITMAP
F80F80
F80F80
3FFE00
3FFE00
3FFE00
000000
000000
FFFE00
FFFE00
FFFE00
07C000
07C000
07C000
07C000
07C000
07C000
07C000
07C000
07C000
07C000
07C000
07C000
07C000
07C000
07C000
07C000
07C000
07C000
07C000
07C000
FFFE00
FFFE00
FFFE00
ENDCHAR
STARTCHAR ibreve
ENCODING 301
SWIDTH 540 0
DWIDTH 25 0
BBX 15 26 3 0
BITMAP
F83E
F83E
F83E
3FF0
3FF0
0000
0000
0000
FFC0
FFC0
0FC0
07C0
07C0
07C0
07C0
07C0
07C0
07C0
07C0
07C0
07C0
07C0
07C0
FFFE
FFFE
FFFE
ENDCHAR
STARTCHAR Iogonek
ENCODING 302
SWIDTH 540 0
DWIDTH 25 0
BBX 17 33 3 -7
BITMAP
FFFE00
FFFE00
FFFE00
07C000
07C000
07C000
07C000
07C000
07C000
07C000
07C000
07C000
07C000
07C000
07C000
07C000
07C000
07C000
07C000
07C000
07C000
07C000
07C000
FFFE00
FFFE00
FFFE00
07C000
07C000
07C000
07C000
07C000
07FF80
07FF80
ENDCHAR
STARTCHAR iogonek
ENCODING 303
SWIDTH 540 0
DWIDTH 25 0
BBX 17 33 3 -7
BITMAP
07C000
07C000
07C000
07C000
07C000
000000
000000
000000
FFC000
FFC000
0FC000
07C000
07C000
07C000
07C000
07C000
07C000
07C000
07C000
07C000
07C000
07C000
07C000
FFFE00
FFFE00
FFFE00
07C000
07C000
07C000
07C000
07C000
07FF80
07FF80
ENDCHAR
STARTCHAR Idotaccent
ENCODING 304
SWIDTH 540 0
DWIDTH 25 0
BBX 15 33 3 0
BITMAP
07C0
07C0
07C0
07C0
07C0
0000
0000
FFFE
FFFE
FFFE
07C0
07C0
07C0
07C0
07C0
07C0
07C0
07C0
07C0
07C0
07C0
07C0
07C0
07C0
07C0
07C0
07C0
07C0
07C0
07C0
FFFE
FFFE
FFFE
ENDCHAR
STARTCHAR dotlessi
ENCODING 305
SWIDTH 540 0
DWIDTH 25 0
BBX 15 18 3 0
BITMAP
FFC0
FFC0
0FC0
07C0
07C0
07C0
07C0
07C0
07C0
07C0
07C0
07C0
07C0
07C0
07C0
FFFE
FFFE
FFFE
ENDCHAR
STARTCHAR IJ
ENCODING 306
SWIDTH 540 0
DWIDTH 25 0
BBX 20 26 0 0
BITMAP
FFC7F0
FFC7F0
FFC7F0
1F01F0
1F01F0
1F01F0
1F01F0
1F01F0
1F01F0
1F01F0
1F01F0
1F01F0
1F01F0
1F01F0
1F01F0
1F01F0
1F01F0
1F01F0
1F01F0
1F01F0
1F01F0
1F39F0
1F39F0
FFC7C0
FFC7C0
FFC7C0
ENDCHAR
STARTCHAR ij
ENCODING 307
SWIDTH 540 0
DWIDTH 25 0
BBX 17 33 3 -7
BITMAP
3E0F80
3E0F80
3E0F80
3E0F80
3E0F80
000000
000000
000000
FE3F80
FE3F80
3E0F80
3E0F80
3E0F80
3E0F80
3E0F80
3E0F80
3E0F80
3E0F80
3E0F80
3E0F80
3E0F80
3E0F80
3E0F80
FFCF80
FFCF80
FFCF80
000F80
000F80
07CF80
07CF80
07CF80
01FE00
01FE00
ENDCHAR
STARTCHAR Jcircumflex
ENCODING 308
SWIDTH 540 0
DWIDTH 25 0
BBX 20 36 0 0
BITMAP
003E00
003E00
003F00
00FFC0
00FFC0
07C1F0
07C1F0
07C0F0
000000
000000
00FFC0
00FFC0
00FFC0
003E00
003E00
003E00
003E00
003E00
003E00
003E00
003E00
003E00
003E00
003E00
003E00
003E00
003E00
003E00
F83E00
F83E00
F83E00
F83E00
F83E00
3FF800
1FF800
1FF800
ENDCHAR
STARTCHAR jcircumflex
ENCODING 309
SWIDTH 540 0
DWIDTH 25 0
BBX 17 35 3 -7
BITMAP
01F000
01F000
07FE00
07FE00
07FE00
3E0F80
3E0F80
000000
000000
000000
07F000
07F000
01F000
01F000
01F000
01F000
01F000
01F000
01F000
01F000
01F000
01F000
01F000
01F000
01F000
01F000
01F000
01F000
F9F000
F9F000
F9F000
F9F000
F9F000
3FC000
3FC000
ENDCHAR
STARTCHAR Kcommaaccent
ENCODING 310
SWIDTH 540 0
DWIDTH 25 0
BBX 17 36 3 -10
BITMAP
F80F80
F80F80
F80F80
F83E00
F83E00
F9F800
F9F000
F9F000
FFC000
FFC000
FF0000
FE0000
FE0000
FFC000
FFC000
FFC000
F9F000
F9F000
F83E00
F83E00
F83E00
F80F80
F80F80
F80F80
F80F80
F80F80
01F000
01F000
003E00
003E00
003E00
3E3E00
3E3E00
0FF800
07F000
07F000
ENDCHAR
STARTCHAR kcommaaccent
ENCODING 311
SWIDTH 540 0
DWIDTH 25 0
BBX 17 36 3 -10
BITMAP
F80000
F80000
F80000
F80000
F80000
F80000
F80000
F80000
F83E00
F83E00
F8F800
F9F000
F9F000
FFC000
FFC000
FFC000
FFC000
FFC000
F9F000
F9F000
F9F800
F83E00
F83E00
F80F80
F80F80
F80F80
01F000
01F000
003E00
003E00
003E00
3E3E00
3E3E00
0FF800
07F000
07F000
ENDCHAR
STARTCHAR kgreenlandic
ENCODING 312
SWIDTH 540 0
DWIDTH 25 0
BBX 15 18 3 0
BITMAP
F83E
F83E
F8F8
F9F0
F9F0
FFC0
FFC0
FF80
FE00
FE00
FFC0
FFC0
FFC0
F9F0
F9F0
F83E
F83E
F83E
ENDCHAR
STARTCHAR Lacute
ENCODING 313
SWIDTH 540 0
DWIDTH 25 0
BBX 17 36 3 0
BITMAP
003E00
003E00
007C00
01F000
01F000
07C000
07C000
07C000
000000
000000
F80000
F80000
F80000
F80000
F80000
F80000
F80000
F80000
F80000
F80000
F80000
F80000
F80000
F80000
F80000
F80000
F80000
F80000
F80000
F80000
F80000
F80000
F80000
FFFF80
FFFF80
FFFF80
ENDCHAR
STARTCHAR lacute
ENCODING 314
SWIDTH 540 0
DWIDTH 25 0
BBX 15 36 3 0
BITMAP
003E
003E
007C
01F0
01F0
07C0
07C0
07C0
0000
0000
FFC0
FFC0
FFC0
07C0
07C0
07C0
07C0
07C0
07C0
07C0
07C0
07C0
07C0
07C0
07C0
07C0
07C0
07C0
07C0
07C0
07C0
07C0
07C0
FFFE
FFFE
FFFE
ENDCHAR
STARTCHAR Lcommaaccent
ENCODING 315
SWIDTH 540 0
DWIDTH 25 0
BBX 17 36 3 -10
BITMAP
F80000
F80000
F80000
F80000
F80000
F80000
F80000
F80000
F80000
F80000
F80000
F80000
F80000
F80000
F80000
F80000
F80000
F80000
F80000
F80000
F80000
F80000
F80000
FFFF80
FFFF80
FFFF80
01F000
01F000
003E00
003E00
003E00
3E3E00
3E3E00
0FF800
07F000
07F000
ENDCHAR
STARTCHAR lcommaaccent
ENCODING 316
SWIDTH 540 0
DWIDTH 25 0
BBX 15 36 3 -10
BITMAP
FFC0
FFC0
FFC0
07C0
07C0
07C0
07C0
07C0
07C0
07C0
07C0
07C0
07C0
07C0
07C0
07C0
07C0
07C0
07C0
07C0
07C0
07C0
07C0
FFFE
FFFE
FFFE
01F0
01F0
003E
003E
003E
3E3E
3E3E
0FF8
07F0
07F0
ENDCHAR
STARTCHAR Lcaron
ENCODING 317
SWIDTH 540 0
DWIDTH 25 0
BBX 17 36 3 0
BITMAP
3E3E00
3E3E00
1F7C00
07F000
07F000
01C000
01C000
01C000
000000
000000
F80000
F80000
F80000
F80000
F80000
F80000
F80000
F80000
F80000
F80000
F80000
F80000
F80000
F80000
F80000
F80000
F80000
F80000
F80000
F80000
F80000
F80000
F80000
FFFF80
FFFF80
FFFF80
ENDCHAR
STARTCHAR lcaron
ENCODING 318
SWIDTH 540 0
DWIDTH 25 0
BBX 15 36 3 0
BITMAP
3E3E
3E3E
1F7C
07F0
07F0
01C0
01C0
01C0
0000
0000
FFC0
FFC0
FFC0
07C0
07C0
07C0
07C0
07C0
07C0
07C0
07C0
07C0
07C0
07C0
07C0
07C0
07C0
07C0
07C0
07C0
07C0
07C0
07C0
FFFE
FFFE
FFFE
ENDCHAR
STARTCHAR Ldot
ENCODING 319
SWIDTH 540 0
DWIDTH 25 0
BBX 17 26 3 0
BITMAP
F80000
F80000
F80000
F80000
F80000
F80000
F80000
F80000
F9F000
F9F000
F9F000
F9F000
F9F000
F80000
F80000
F80000
F80000
F80000
F80000
F80000
F80000
F80000
F80000
FFFF80
FFFF80
FFFF80
ENDCHAR
STARTCHAR ldot
ENCODING 320
SWIDTH 540 0
DWIDTH 25 0
BBX 17 26 3 0
BITMAP
FFC000
FFC000
FFC000
07C000
07C000
07C000
07C000
07C000
07CF80
07CF80
07CF80
07CF80
07CF80
07C000
07C000
07C000
07C000
07C000
07C000
07C000
07C000
07C000
07C000
FFFE00
FFFE00
FFFE00
ENDCHAR
STARTCHAR Lslash
ENCODING 321
SWIDTH 540 0
DWIDTH 25 0
BBX 20 26 0 0
BITMAP
07C000
07C000
07C000
07C000
07C000
07FE00
07FE00
07FE00
07F800
07F800
07E000
07C000
07C000
1FC000
1FC000
3FC000
FFC000
FFC000
07C000
07C000
07C000
07C000
07C000
07FFF0
07FFF0
07FFF0
ENDCHAR
STARTCHAR lslash
ENCODING 322
SWIDTH 540 0
DWIDTH 25 0
BBX 15 26 3 0
BITMAP
FFC0
FFC0
FFC0
07C0
07C0
07FE
07FE
07FE
07F0
07F0
07C0
07C0
07C0
3FC0
3FC0
3FC0
FFC0
FFC0
07C0
07C0
07C0
07C0
07C0
FFFE
FFFE
FFFE
ENDCHAR
STARTCHAR Nacute
ENCODING 323
SWIDTH 540 0
DWIDTH 25 0
BBX 17 36 3 0
BITMAP
003E00
003E00
007C00
01F000
01F000
07C000
07C000
07C000
000000
000000
F80F80
F80F80
F80F80
F80F80
F80F80
FE0F80
FE0F80
FE0F80
FFCF80
FFCF80
F9FF80
F9FF80
F9FF80
F83F80
F83F80
F83F80
F80F80
F80F80
F80F80
F80F80
F80F80
F80F80
F80F80
F80F80
F80F80
F80F80
ENDCHAR
STARTCHAR nacute
ENCODING 324
SWIDTH 540 0
DWIDTH 25 0
BBX 17 28 3 0
BITMAP
003E00
003E00
01F000
01F000
01F000
07C000
07C000
000000
000000
000000
F9FE00
F9FE00
FE0F80
FE0F80
FE0F80
F80F80
F80F80
F80F80
F80F80
F80F80
F80F80
F80F80
F80F80
F80F80
F80F80
F80F80
F80F80
F80F80
ENDCHAR
STARTCHAR Ncommaaccent
ENCODING 325
SWIDTH 540 0
DWIDTH 25 0
BBX 17 36 3 -10
BITMAP
F80F80
F80F80
F80F80
F80F80
F80F80
FE0F80
FE0F80
FE0F80
FFCF80
FFCF80
F9FF80
F9FF80
F9FF80
F83F80
F83F80
F83F80
F80F80
F80F80
F80F80
F80F80
F80F80
F80F80
F80F80
F80F80
F80F80
F80F80
01F000
01F000
003E00
003E00
003E00
3E3E00
3E3E00
0FF800
07F000
07F000
ENDCHAR
STARTCHAR ncommaaccent
ENCODING 326
SWIDTH 540 0
DWIDTH 25 0
BBX 17 28 3 -10
BITMAP
F9FE00
F9FE00
FE0F80
FE0F80
FE0F80
F80F80
F80F80
F80F80
F80F80
F80F80
F80F80
F80F80
F80F80
F80F80
F80F80
F80F80
F80F80
F80F80
01F000
01F000
003E00
003E00
003E00
3E3E00
3E3E00
0FF800
07F000
07F000
ENDCHAR
STARTCHAR Ncaron
ENCODING 327
SWIDTH 540 0
DWIDTH 25 0
BBX 17 36 3 0
BITMAP
3E3E00
3E3E00
1F7C00
07F000
07F000
01C000
01C000
01C000
000000
000000
F80F80
F80F80
F80F80
F80F80
F80F80
FE0F80
FE0F80
FE0F80
FFCF80
FFCF80
F9FF80
F9FF80
F9FF80
F83F80
F83F80
F83F80
F80F80
F80F80
F80F80
F80F80
F80F80
F80F80
F80F80
F80F80
F80F80
F80F80
ENDCHAR
STARTCHAR ncaron
ENCODING 328
SWIDTH 540 0
DWIDTH 25 0
BBX 17 28 3 0
BITMAP
3E3E00
3E3E00
07F000
07F000
07F000
01C000
01C000
000000
000000
000000
F9FE00
F9FE00
FE0F80
FE0F80
FE0F80
F80F80
F80F80
F80F80
F80F80
F80F80
F80F80
F80F80
F80F80
F80F80
F80F80
F80F80
F80F80
F80F80
ENDCHAR
STARTCHAR napostrophe
ENCODING 329
SWIDTH 540 0
DWIDTH 25 0
BBX 17 31 3 0
BITMAP
F80000
F80000
F80000
F80000
F80000
380000
380000
380000
C00000
C00000
000000
000000
000000
3E3E00
3E3E00
3FCF80
3FCF80
3FCF80
3E0F80
3E0F80
3E0F80
3E0F80
3E0F80
3E0F80
3E0F80
3E0F80
3E0F80
3E0F80
3E0F80
3E0F80
3E0F80
ENDCHAR
STARTCHAR Eng
ENCODING 330
SWIDTH 540 0
DWIDTH 25 0
BBX 17 33 3 -7
BITMAP
F80F80
F80F80
F80F80
F80F80
F80F80
FE0F80
FE0F80
FE0F80
FFCF80
FFCF80
F9FF80
F9FF80
F9FF80
F83F80
F83F80
F83F80
F80F80
F80F80
F80F80
F80F80
F80F80
F80F80
F80F80
F80F80
F80F80
F80F80
000F80
000F80
07CF80
07CF80
07CF80
01FE00
01FE00
ENDCHAR
STARTCHAR eng
ENCODING 331
SWIDTH 540 0
DWIDTH 25 0
BBX 17 25 3 -7
BITMAP
F9FE00
F9FE00
FFCF80
FFCF80
FFCF80
FE0F80
FE0F80
FE0F80
F80F80
F80F80
F80F80
F80F80
F80F80
F80F80
F80F80
F80F80
F80F80
F80F80
000F80
000F80
07CF80
07CF80
07CF80
01FE00
01FE00
ENDCHAR
STARTCHAR Omacron
ENCODING 332
SWIDTH 540 0
DWIDTH 25 0
BBX 17 31 3 0
BITMAP
3FFE00
3FFE00
3FFE00
000000
000000
3FFE00
3FFE00
3FFE00
F80F80
F80F80
F80F80
F80F80
F80F80
F80F80
F80F80
F80F80
F80F80
F80F80
F80F80
F80F80
F80F80
F80F80
F80F80
F80F80
F80F80
F80F80
F80F80
F80F80
3FFE00
3FFE00
3FFE00
ENDCHAR
STARTCHAR omacron
ENCODING 333
SWIDTH 540 0
DWIDTH 25 0
BBX 17 23 3 0
BITMAP
3FFE00
3FFE00
000000
000000
000000
07F000
07F000
1F7C00
3E3E00
3E3E00
F80F80
F80F80
F80F80
F80F80
F80F80
F80F80
F80F80
F80F80
3E3E00
3E3E00
07F000
07F000
07F000
ENDCHAR
STARTCHAR Obreve
ENCODING 334
SWIDTH 540 0
DWIDTH 25 0
BBX 17 33 3 0
BITMAP
F80F80
F80F80
3FFE00
3FFE00
3FFE00
000000
000000
3FFE00
3FFE00
3FFE00
F80F80
F80F80
F80F80
F80F80
F80F80
F80F80
F80F80
F80F80
F80F80
F80F80
F80F80
F80F80
F80F80
F80F80
F80F80
F80F80
F80F80
F80F80
F80F80
F80F80
3FFE00
3FFE00
3FFE00
ENDCHAR
STARTCHAR obreve
ENCODING 335
SWIDTH 540 0
DWIDTH 25 0
BBX 17 26 3 0
BITMAP
F80F80
F80F80
F80F80
3FFE00
3FFE00
000000
000000
000000
07F000
07F000
1F7C00
3E3E00
3E3E00
F80F80
F80F80
F80F80
F80F80
F80F80
F80F80
F80F80
F80F80
3E3E00
3E3E00
07F000
07F000
07F000
ENDCHAR
STARTCHAR Ohungarumlaut
ENCODING 336
SWIDTH 540 0
DWIDTH 25 0
BBX 17 36 3 0
BITMAP
07CF80
07CF80
0FCF80
3E3E00
3E3E00
F9F000
F9F000
F1F000
000000
000000
3FFE00
3FFE00
3FFE00
F80F80
F80F80
F80F80
F80F80
F80F80
F80F80
F80F80
F80F80
F80F80
F80F80
F80F80
F80F80
F80F80
F80F80
F80F80
F80F80
F80F80
F80F80
F80F80
F80F80
3FFE00
3FFE00
3FFE00
ENDCHAR
STARTCHAR ohungarumlaut
ENCODING 337
SWIDTH 540 0
DWIDTH 25 0
BBX 17 28 3 0
BITMAP
07CF80
07CF80
3E3E00
3E3E00
3E3E00
F9F000
F9F000
000000
000000
000000
07F000
07F000
1F7C00
3E3E00
3E3E00
F80F80
F80F80
F80F80
F80F80
F80F80
F80F80
F80F80
F80F80
3E3E00
3E3E00
07F000
07F000
07F000
ENDCHAR
STARTCHAR OE
ENCODING 338
SWIDTH 540 0
DWIDTH 25 0
BBX 17 26 3 0
BITMAP
3FFF80
3FFF80
3FFF80
F9F000
F9F000
F9F000
F9F000
F9F000
F9F000
F9F000
F9FC00
F9FE00
F9FE00
F9F000
F9F000
F9F000
F9F000
F9F000
F9F000
F9F000
F9F000
F9F000
F9F000
3FFF80
3FFF80
3FFF80
ENDCHAR
STARTCHAR oe
ENCODING 339
SWIDTH 540 0
DWIDTH 25 0
BBX 20 18 0 0
BITMAP
1F3FC0
1F3FC0
FCF9F0
F8F9F0
F8F9F0
F8F9F0
F8F9F0
F8F9F0
F8FFF0
F8FFF0
F8F800
F8F800
F8F800
F8F9F0
F8F9F0
3F3FC0
1F3FC0
1F3FC0
ENDCHAR
STARTCHAR Racute
ENCODING 340
SWIDTH 540 0
DWIDTH 25 0
BBX 17 36 3 0
BITMAP
003E00
003E00
007C00
01F000
01F000
07C000
07C000
07C000
000000
000000
FFFE00
FFFE00
FFFE00
F80F80
F80F80
F80F80
F80F80
F80F80
F80F80
F80F80
F80F80
F80F80
F80F80
FFFE00
FFFE00
FFFC00
F9F000
F9F000
F83E00
F83E00
F83E00
F80F80
F80F80
F80F80
F80F80
F80F80
ENDCHAR
STARTCHAR racute
ENCODING 341
SWIDTH 540 0
DWIDTH 25 0
BBX 17 28 3 0
BITMAP
003E00
003E00
01F000
01F000
01F000
07C000
07C000
000000
000000
000000
F9FE00
F9FE00
3FCF80
3FCF80
3FCF80
3E0000
3E0000
3E0000
3E0000
3E0000
3E0000
3E0000
3E0000
3E0000
3E0000
3E0000
3E0000
3E0000
ENDCHAR
STARTCHAR Rcommaaccent
ENCODING 342
SWIDTH 540 0
DWIDTH 25 0
BBX 17 36 3 -10
BITMAP
FFFE00
FFFE00
FFFE00
F80F80
F80F80
F80F80
F80F80
F80F80
F80F80
F80F80
F80F80
F80F80
F80F80
FFFE00
FFFE00
FFFC00
F9F000
F9F000
F83E00
F83E00
F83E00
F80F80
F80F80
F80F80
F80F80
F80F80
01F000
01F000
003E00
003E00
003E00
3E3E00
3E3E00
0FF800
07F000
07F000
ENDCHAR
STARTCHAR rcommaaccent
ENCODING 343
SWIDTH 540 0
DWIDTH 25 0
BBX 17 28 3 -10
BITMAP
F9FE00
F9FE00
3FCF80
3FCF80
3FCF80
3E0000
3E0000
3E0000
3E0000
3E0000
3E0000
3E0000
3E0000
3E0000
3E0000
3E0000
3E0000
3E0000
01F000
01F000
003E00
003E00
003E00
3E3E00
3E3E00
0FF800
07F000
07F000
ENDCHAR
STARTCHAR Rcaron
ENCODING 344
SWIDTH 540 0
DWIDTH 25 0
BBX 17 36 3 0
BITMAP
3E3E00
3E3E00
1F7C00
07F000
07F000
01C000
01C000
01C000
000000
000000
FFFE00
FFFE00
FFFE00
F80F80
F80F80
F80F80
F80F80
F80F80
F80F80
F80F80
F80F80
F80F80
F80F80
FFFE00
FFFE00
FFFC00
F9F000
F9F000
F83E00
F83E00
F83E00
F80F80
F80F80
F80F80
F80F80
F80F80
ENDCHAR
STARTCHAR rcaron
ENCODING 345
SWIDTH 540 0
DWIDTH 25 0
BBX 17 28 3 0
BITMAP
3E3E00
3E3E00
07F000
07F000
07F000
01C000
01C000
000000
000000
000000
F9FE00
F9FE00
3FCF80
3FCF80
3FCF80
3E0000
3E0000
3E0000
3E0000
3E0000
3E0000
3E0000
3E0000
3E0000
3E0000
3E0000
3E0000
3E0000
ENDCHAR
STARTCHAR Sacute
ENCODING 346
SWIDTH 540 0
DWIDTH 25 0
BBX 17 36 3 0
BITMAP
003E00
003E00
007C00
01F000
01F000
07C000
07C000
07C000
000000
000000
3FFE00
3FFE00
3FFE00
F80F80
F80F80
F80000
F80000
F80000
F80000
F80000
3FFC00
3FFE00
3FFE00
000F80
000F80
000F80
000F80
000F80
000F80
000F80
000F80
F80F80
F80F80
3FFE00
3FFE00
3FFE00
ENDCHAR
STARTCHAR sacute
ENCODING 347
SWIDTH 540 0
DWIDTH 25 0
BBX 17 28 3 0
BITMAP
003E00
003E00
01F000
01F000
01F000
07C000
07C000
000000
000000
000000
3FFE00
3FFE00
F80F80
F80F80
F80F80
F80000
F80000
F80000
3FFE00
3FFE00
000F80
000F80
000F80
F80F80
F80F80
3FFE00
3FFE00
3FFE00
ENDCHAR
STARTCHAR Scircumflex
ENCODING 348
SWIDTH 540 0
DWIDTH 25 0
BBX 17 36 3 0
BITMAP
01C000
01C000
01C000
07F000
07F000
3E3E00
3E3E00
3E3E00
000000
000000
3FFE00
3FFE00
3FFE00
F80F80
F80F80
F80000
F80000
F80000
F80000
F80000
3FFC00
3FFE00
3FFE00
000F80
000F80
000F80
000F80
000F80
000F80
000F80
000F80
F80F80
F80F80
3FFE00
3FFE00
3FFE00
ENDCHAR
STARTCHAR scircumflex
ENCODING 349
SWIDTH 540 0
DWIDTH 25 0
BBX 17 28 3 0
BITMAP
01C000
01C000
07F000
07F000
07F000
3E3E00
3E3E00
000000
000000
000000
3FFE00
3FFE00
F80F80
F80F80
F80F80
F80000
F80000
F80000
3FFE00
3FFE00
000F80
000F80
000F80
F80F80
F80F80
3FFE00
3FFE00
3FFE00
ENDCHAR
STARTCHAR Scedilla
ENCODING 350
SWIDTH 540 0
DWIDTH 25 0
BBX 17 36 3 -10
BITMAP
3FFE00
3FFE00
3FFE00
F80F80
F80F80
F80000
F80000
F80000
F80000
F80000
3FFC00
3FFE00
3FFE00
000F80
000F80
000F80
000F80
000F80
000F80
000F80
000F80
F80F80
F80F80
3FFE00
3FFE00
3FFE00
01F000
01F000
003E00
003E00
003E00
3E3E00
3E3E00
0FF800
07F000
07F000
ENDCHAR
STARTCHAR scedilla
ENCODING 351
SWIDTH 540 0
DWIDTH 25 0
BBX 17 28 3 -10
BITMAP
3FFE00
3FFE00
F80F80
F80F80
F80F80
F80000
F80000
F80000
3FFE00
3FFE00
000F80
000F80
000F80
F80F80
F80F80
3FFE00
3FFE00
3FFE00
01F000
01F000
003E00
003E00
003E00
3E3E00
3E3E00
0FF800
07F000
07F000
ENDCHAR
STARTCHAR Scaron
ENCODING 352
SWIDTH 540 0
DWIDTH 25 0
BBX 17 36 3 0
BITMAP
3E3E00
3E3E00
1F7C00
07F000
07F000
01C000
01C000
01C000
000000
000000
3FFE00
3FFE00
3FFE00
F80F80
F80F80
F80000
F80000
F80000
F80000
F80000
3FFC00
3FFE00
3FFE00
000F80
000F80
000F80
000F80
000F80
000F80
000F80
000F80
F80F80
F80F80
3FFE00
3FFE00
3FFE00
ENDCHAR
STARTCHAR scaron
ENCODING 353
SWIDTH 540 0
DWIDTH 25 0
BBX 17 28 3 0
BITMAP
3E3E00
3E3E00
07F000
07F000
07F000
01C000
01C000
000000
000000
000000
3FFE00
3FFE00
F80F80
F80F80
F80F80
F80000
F80000
F80000
3FFE00
3FFE00
000F80
000F80
000F80
F80F80
F80F80
3FFE00
3FFE00
3FFE00
ENDCHAR
STARTCHAR Tcommaaccent
ENCODING 354
SWIDTH 540 0
DWIDTH 25 0
BBX 15 36 3 -10
BITMAP
FFFE
FFFE
FFFE
07C0
07C0
07C0
07C0
07C0
07C0
07C0
07C0
07C0
07C0
07C0
07C0
07C0
07C0
07C0
07C0
07C0
07C0
07C0
07C0
07C0
07C0
07C0
01F0
01F0
003E
003E
003E
3E3E
3E3E
0FF8
07F0
07F0
ENDCHAR
STARTCHAR tcommaaccent
ENCODING 355
SWIDTH 540 0
DWIDTH 25 0
BBX 17 33 3 -10
BITMAP
07C000
07C000
07C000
07C000
07C000
FFFE00
FFFE00
0FC000
07C000
07C000
07C000
07C000
07C000
07C000
07C000
07C000
07C000
07C000
07CF80
07CF80
01FE00
01FE00
01FE00
01F000
01F000
003E00
003E00
003E00
3E3E00
3E3E00
0FF800
07F000
07F000
ENDCHAR
STARTCHAR Tcaron
ENCODING 356
SWIDTH 540 0
DWIDTH 25 0
BBX 15 36 3 0
BITMAP
F83E
F83E
F87C
3FF0
3FF0
07C0
07C0
07C0
0000
0000
FFFE
FFFE
FFFE
07C0
07C0
07C0
07C0
07C0
07C0
07C0
07C0
07C0
07C0
07C0
07C0
07C0
07C0
07C0
07C0
07C0
07C0
07C0
07C0
07C0
07C0
07C0
ENDCHAR
STARTCHAR tcaron
ENCODING 357
SWIDTH 540 0
DWIDTH 25 0
BBX 17 33 3 0
BITMAP
F83E00
F83E00
3FF000
3FF000
3FF000
07C000
07C000
000000
000000
000000
07C000
07C000
07C000
07C000
07C000
FFFE00
FFFE00
0FC000
07C000
07C000
07C000
07C000
07C000
07C000
07C000
07C000
07C000
07C000
07CF80
07CF80
01FE00
01FE00
01FE00
ENDCHAR
STARTCHAR Tbar
ENCODING 358
SWIDTH 540 0
DWIDTH 25 0
BBX 20 26 0 0
BITMAP
FFFFF0
FFFFF0
FFFFF0
00F800
00F800
00F800
00F800
00F800
1FFFC0
1FFFC0
01F800
00F800
00F800
00F800
00F800
00F800
00F800
00F800
00F800
00F800
00F800
00F800
00F800
00F800
00F800
00F800
ENDCHAR
STARTCHAR tbar
ENCODING 359
SWIDTH 540 0
DWIDTH 25 0
BBX 20 23 0 0
BITMAP
07C000
07C000
07C000
07C000
07C000
FFFE00
FFFE00
07E000
07C000
07C000
FFFE00
FFFE00
FFFE00
07C000
07C000
07C000
07C000
07C000
07C1F0
07C1F0
00FFC0
00FFC0
00FFC0
ENDCHAR
STARTCHAR Utilde
ENCODING 360
SWIDTH 540 0
DWIDTH 25 0
BBX 17 33 3 0
BITMAP
3FCF80
3FCF80
F9FE00
F9FE00
F1FE00
000000
000000
F80F80
F80F80
F80F80
F80F80
F80F80
F80F80
F80F80
F80F80
F80F80
F80F80
F80F80
F80F80
F80F80
F80F80
F80F80
F80F80
F80F80
F80F80
F80F80
F80F80
F80F80
3E3E00
3E3E00
07F000
07F000
07F000
ENDCHAR
STARTCHAR utilde
ENCODING 361
SWIDTH 540 0
DWIDTH 25 0
BBX 17 26 3 0
BITMAP
3FCF80
3FCF80
3FCF80
F9FE00
F9FE00
000000
000000
000000
F80F80
F80F80
F80F80
F80F80
F80F80
F80F80
F80F80
F80F80
F80F80
F80F80
F80F80
F80F80
F80F80
F80F80
F80F80
3FFF80
3FFF80
3FFF80
ENDCHAR
STARTCHAR Umacron
ENCODING 362
SWIDTH 540 0
DWIDTH 25 0
BBX 17 31 3 0
BITMAP
3FFE00
3FFE00
3FFE00
000000
000000
F80F80
F80F80
F80F80
F80F80
F80F80
F80F80
F80F80
F80F80
F80F80
F80F80
F80F80
F80F80
F80F80
F80F80
F80F80
F80F80
F80F80
F80F80
F80F80
F80F80
F80F80
3E3E00
3E3E00
07F000
07F000
07F000
ENDCHAR
STARTCHAR umacron
ENCODING 363
SWIDTH 540 0
DWIDTH 25 0
BBX 17 23 3 0
BITMAP
3FFE00
3FFE00
000000
000000
000000
F80F80
F80F80
F80F80
F80F80
F80F80
F80F80
F80F80
F80F80
F80F80
F80F80
F80F80
F80F80
F80F80
F80F80
F80F80
3FFF80
3FFF80
3FFF80
ENDCHAR
STARTCHAR Ubreve
ENCODING 364
SWIDTH 540 0
DWIDTH 25 0
BBX 17 33 3 0
BITMAP
F80F80
F80F80
3FFE00
3FFE00
3FFE00
000000
000000
F80F80
F80F80
F80F80
F80F80
F80F80
F80F80
F80F80
F80F80
F80F80
F80F80
F80F80
F80F80
F80F80
F80F80
F80F80
F80F80
F80F80
F80F80
F80F80
F80F80
F80F80
3E3E00
3E3E00
07F000
07F000
07F000
ENDCHAR
STARTCHAR ubreve
ENCODING 365
SWIDTH 540 0
DWIDTH 25 0
BBX 17 26 3 0
BITMAP
F80F80
F80F80
F80F80
3FFE00
3FFE00
000000
000000
000000
F80F80
F80F80
F80F80
F80F80
F80F80
F80F80
F80F80
F80F80
F80F80
F80F80
F80F80
F80F80
F80F80
F80F80
F80F80
3FFF80
3FFF80
3FFF80
ENDCHAR
STARTCHAR Uring
ENCODING 366
SWIDTH 540 0
DWIDTH 25 0
BBX 17 36 3 0
BITMAP
07F000
07F000
0FF800
3E3E00
3E3E00
07F000
07F000
07F000
000000
000000
F80F80
F80F80
F80F80
F80F80
F80F80
F80F80
F80F80
F80F80
F80F80
F80F80
F80F80
F80F80
F80F80
F80F80
F80F80
F80F80
F80F80
F80F80
F80F80
F80F80
F80F80
3E3E00
3E3E00
07F000
07F000
07F000
ENDCHAR
STARTCHAR uring
ENCODING 367
SWIDTH 540 0
DWIDTH 25 0
BBX 17 28 3 0
BITMAP
07F000
07F000
3E3E00
3E3E00
3E3E00
07F000
07F000
000000
000000
000000
F80F80
F80F80
F80F80
F80F80
F80F80
F80F80
F80F80
F80F80
F80F80
F80F80
F80F80
F80F80
F80F80
F80F80
F80F80
3FFF80
3FFF80
3FFF80
ENDCHAR
STARTCHAR Uhungarumlaut
ENCODING 368
SWIDTH 540 0
DWIDTH 25 0
BBX 17 36 3 0
BITMAP
07CF80
07CF80
0FCF80
3E3E00
3E3E00
F9F000
F9F000
F1F000
000000
000000
F80F80
F80F80
F80F80
F80F80
F80F80
F80F80
F80F80
F80F80
F80F80
F80F80
F80F80
F80F80
F80F80
F80F80
F80F80
F80F80
F80F80
F80F80
F80F80
F80F80
F80F80
3E3E00
3E3E00
07F000
07F000
07F000
ENDCHAR
STARTCHAR uhungarumlaut
ENCODING 369
SWIDTH 540 0
DWIDTH 25 0
BBX 17 28 3 0
BITMAP
07CF80
07CF80
3E3E00
3E3E00
3E3E00
F9F000
F9F000
000000
000000
000000
F80F80
F80F80
F80F80
F80F80
F80F80
F80F80
F80F80
F80F80
F80F80
F80F80
F80F80
F80F80
F80F80
F80F80
F80F80
3FFF80
3FFF80
3FFF80
ENDCHAR
STARTCHAR Uogonek
ENCODING 370
SWIDTH 540 0
DWIDTH 25 0
BBX 17 33 3 -7
BITMAP
F80F80
F80F80
F80F80
F80F80
F80F80
F80F80
F80F80
F80F80
F80F80
F80F80
F80F80
F80F80
F80F80
F80F80
F80F80
F80F80
F80F80
F80F80
F80F80
F80F80
F80F80
3E3E00
3E3E00
07F000
07F000
07F000
07C000
07C000
07C000
07C000
07C000
07FF80
07FF80
ENDCHAR
STARTCHAR uogonek
ENCODING 371
SWIDTH 540 0
DWIDTH 25 0
BBX 17 25 3 -7
BITMAP
F80F80
F80F80
F80F80
F80F80
F80F80
F80F80
F80F80
F80F80
F80F80
F80F80
F80F80
F80F80
F80F80
F80F80
F80F80
3FFF80
3FFF80
3FFF80
07C000
07C000
07C000
07C000
07C000
07FF80
07FF80
ENDCHAR
STARTCHAR Wcircumflex
ENCODING 372
SWIDTH 540 0
DWIDTH 25 0
BBX 17 36 3 0
BITMAP
01C000
01C000
01C000
07F000
07F000
3E3E00
3E3E00
3E3E00
000000
000000
F80F80
F80F80
F80F80
F80F80
F80F80
F80F80
F80F80
F80F80
F80F80
F80F80
F88F80
F9CF80
F9CF80
F9CF80
F9CF80
F9CF80
F9CF80
F9CF80
FFFF80
FFFF80
FFFF80
FE3F80
FE3F80
380E00
380E00
380E00
ENDCHAR
STARTCHAR wcircumflex
ENCODING 373
SWIDTH 540 0
DWIDTH 25 0
BBX 20 28 0 0
BITMAP
00F800
00F800
07FE00
07FE00
07FE00
1F07C0
1F07C0
000000
000000
000000
F801F0
F801F0
F801F0
F801F0
F801F0
F8F9F0
F8F9F0
F8F9F0
F8F9F0
F8F9F0
F8F9F0
F8F9F0
F9F9F0
FFFFF0
FFFFF0
3F07C0
1F07C0
1F07C0
ENDCHAR
STARTCHAR Ycircumflex
ENCODING 374
SWIDTH 540 0
DWIDTH 25 0
BBX 20 36 0 0
BITMAP
00F800
00F800
01F800
07FE00
07FE00
1F07C0
1F07C0
1E07C0
000000
000000
F801F0
F801F0
F801F0
F801F0
F801F0
3E07C0
1F07C0
1F07C0
07FE00
07FE00
01F800
00F800
00F800
00F800
00F800
00F800
00F800
00F800
00F800
00F800
00F800
00F800
00F800
00F800
00F800
00F800
ENDCHAR
STARTCHAR ycircumflex
ENCODING 375
SWIDTH 540 0
DWIDTH 25 0
BBX 17 35 3 -7
BITMAP
01C000
01C000
07F000
07F000
07F000
3E3E00
3E3E00
000000
000000
000000
F80F80
F80F80
F80F80
F80F80
F80F80
3E3E00
3E3E00
3E3E00
3E3E00
3E3E00
3E3E00
3E3E00
3E3E00
07F000
07F000
07F000
07F000
07F000
07C000
07C000
C7C000
C7C000
C7C000
3E0000
3E0000
ENDCHAR
STARTCHAR Ydieresis
ENCODING 376
SWIDTH 540 0
DWIDTH 25 0
BBX 20 33 0 0
BITMAP
1F07C0
1F07C0
1F07C0
1F07C0
1E07C0
000000
000000
F801F0
F801F0
F801F0
F801F0
F801F0
3E07C0
1F07C0
1F07C0
07FE00
07FE00
01F800
00F800
00F800
00F800
00F800
00F800
00F800
00F800
00F800
00F800
00F800
00F800
00F800
00F800
00F800
00F800
ENDCHAR
STARTCHAR Zacute
ENCODING 377
SWIDTH 540 0
DWIDTH 25 0
BBX 17 36 3 0
BITMAP
003E00
003E00
007C00
01F000
01F000
07C000
07C000
07C000
000000
000000
FFFF80
FFFF80
FFFF80
000F80
000F80
000F80
000F80
000F80
003E00
003E00
00F800
01F000
01F000
07C000
07C000
0F8000
3E0000
3E0000
F80000
F80000
F80000
F80000
F80000
FFFF80
FFFF80
FFFF80
ENDCHAR
STARTCHAR zacute
ENCODING 378
SWIDTH 540 0
DWIDTH 25 0
BBX 15 28 3 0
BITMAP
003E
003E
01F0
01F0
01F0
07C0
07C0
0000
0000
0000
FFFE
FFFE
007E
003E
003E
01F0
01F0
01F0
07C0
07C0
3E00
3E00
3E00
F800
F800
FFFE
FFFE
FFFE
ENDCHAR
STARTCHAR Zdotaccent
ENCODING 379
SWIDTH 540 0
DWIDTH 25 0
BBX 17 33 3 0
BITMAP
07C000
07C000
07C000
07C000
07C000
000000
000000
FFFF80
FFFF80
FFFF80
000F80
000F80
000F80
000F80
000F80
003E00
003E00
00F800
01F000
01F000
07C000
07C000
0F8000
3E0000
3E0000
F80000
F80000
F80000
F80000
F80000
FFFF80
FFFF80
FFFF80
ENDCHAR
STARTCHAR zdotaccent
ENCODING 380
SWIDTH 540 0
DWIDTH 25 0
BBX 15 26 3 0
BITMAP
07C0
07C0
07C0
07C0
07C0
0000
0000
0000
FFFE
FFFE
007E
003E
003E
01F0
01F0
01F0
07C0
07C0
3E00
3E00
3E00
F800
F800
FFFE
FFFE
FFFE
ENDCHAR
STARTCHAR Zcaron
ENCODING 381
SWIDTH 540 0
DWIDTH 25 0
BBX 17 36 3 0
BITMAP
3E3E00
3E3E00
1F7C00
07F000
07F000
01C000
01C000
01C000
000000
000000
FFFF80
FFFF80
FFFF80
000F80
000F80
000F80
000F80
000F80
003E00
003E00
00F800
01F000
01F000
07C000
07C000
0F8000
3E0000
3E0000
F80000
F80000
F80000
F80000
F80000
FFFF80
FFFF80
FFFF80
ENDCHAR
STARTCHAR zcaron
ENCODING 382
SWIDTH 540 0
DWIDTH 25 0
BBX 15 28 3 0
BITMAP
3E3E
3E3E
07F0
07F0
07F0
01C0
01C0
0000
0000
0000
FFFE
FFFE
007E
003E
003E
01F0
01F0
01F0
07C0
07C0
3E00
3E00
3E00
F800
F800
FFFE
FFFE
FFFE
ENDCHAR
STARTCHAR longs
ENCODING 383
SWIDTH 540 0
DWIDTH 25 0
BBX 15 26 3 0
BITMAP
07F0
07F0
07F0
3E3E
3E3E
3E00
3E00
3E00
3E00
3E00
3E00
3E00
3E00
FE00
FE00
FE00
3E00
3E00
3E00
3E00
3E00
3E00
3E00
3E00
3E00
3E00
ENDCHAR
STARTCHAR uni018F
ENCODING 399
SWIDTH 540 0
DWIDTH 25 0
BBX 17 26 3 0
BITMAP
3FFE00
3FFE00
3FFE00
F80F80
F80F80
000F80
000F80
000F80
000F80
000F80
FFFF80
FFFF80
FFFF80
F80F80
F80F80
F80F80
F80F80
F80F80
F80F80
F80F80
F80F80
F80F80
F80F80
3FFE00
3FFE00
3FFE00
ENDCHAR
STARTCHAR florin
ENCODING 402
SWIDTH 540 0
DWIDTH 25 0
BBX 20 28 0 -2
BITMAP
003FC0
003FC0
003FC0
00F9F0
00F9F0
00F9F0
00F9F0
00F9F0
00F800
00F800
00F800
00F800
00F800
07FE00
07FE00
03FE00
00F800
00F800
00F800
00F800
00F800
F8F800
F8F800
F8F800
F8F800
F8F800
1FC000
1FC000
ENDCHAR
STARTCHAR Ohorn
ENCODING 416
SWIDTH 540 0
DWIDTH 25 0
BBX 20 26 3 0
BITMAP
3FF030
3FF070
3FF070
F83E70
F83E70
F83F80
F83F80
F83F80
F83E00
F83E00
F83E00
F83E00
F83E00
F83E00
F83E00
F83E00
F83E00
F83E00
F83E00
F83E00
F83E00
F83E00
F83E00
3FF000
3FF000
3FF000
ENDCHAR
STARTCHAR ohorn
ENCODING 417
SWIDTH 540 0
DWIDTH 25 0
BBX 20 18 3 0
BITMAP
07F070
07F070
1F7C70
3E3E70
3E3E70
F80F80
F80F80
F80F80
F80F80
F80F80
F80F80
F80F80
F80F80
3E3E00
3E3E00
07F000
07F000
07F000
ENDCHAR
STARTCHAR Uhorn
ENCODING 431
SWIDTH 540 0
DWIDTH 25 0
BBX 20 26 3 0
BITMAP
F83E30
F83E70
F83E70
F83E70
F83E70
F83F80
F83F80
F83F80
F83E00
F83E00
F83E00
F83E00
F83E00
F83E00
F83E00
F83E00
F83E00
F83E00
F83E00
F83E00
F83E00
3FF000
3FF000
07C000
07C000
07C000
ENDCHAR
STARTCHAR uhorn
ENCODING 432
SWIDTH 540 0
DWIDTH 25 0
BBX 20 18 3 0
BITMAP
F83E70
F83E70
F83E70
F83E70
F83E70
F83F80
F83F80
F83F80
F83E00
F83E00
F83E00
F83E00
F83E00
F83E00
F83E00
3FFE00
3FFE00
3FFE00
ENDCHAR
STARTCHAR Scommaaccent
ENCODING 536
SWIDTH 540 0
DWIDTH 25 0
BBX 20 36 0 -10
BITMAP
1FFFC0
1FFFC0
3FFFC0
F801F0
F801F0
F80000
F80000
F80000
F80000
F80000
3FFF80
1FFFC0
1FFFC0
0001F0
0001F0
0001F0
0001F0
0001F0
0001F0
0001F0
0001F0
F801F0
F801F0
3FFFC0
1FFFC0
1FFFC0
000000
000000
00FE00
00FE00
00FE00
003E00
003E00
00F800
00F800
00F800
ENDCHAR
STARTCHAR scommaaccent
ENCODING 537
SWIDTH 540 0
DWIDTH 25 0
BBX 20 28 0 -10
BITMAP
1FFFC0
1FFFC0
FC01F0
F801F0
F801F0
F80000
F80000
FC0000
1FFFC0
1FFFC0
0001F0
0001F0
0001F0
F801F0
F801F0
3FFFC0
1FFFC0
1FFFC0
000000
000000
00FE00
00FE00
00FE00
003E00
003E00
00F800
00F800
00F800
ENDCHAR
STARTCHAR Tcommaaccent
ENCODING 538
SWIDTH 540 0
DWIDTH 25 0
BBX 20 36 0 -10
BITMAP
FFFFF0
FFFFF0
FFFFF0
00F800
00F800
00F800
00F800
00F800
00F800
00F800
00F800
00F800
00F800
00F800
00F800
00F800
00F800
00F800
00F800
00F800
00F800
00F800
00F800
00F800
00F800
00F800
000000
000000
00FE00
00FE00
00FE00
003E00
003E00
00F800
00F800
00F800
ENDCHAR
STARTCHAR tcommaaccent
ENCODING 539
SWIDTH 540 0
DWIDTH 25 0
BBX 20 33 0 -10
BITMAP
07C000
07C000
07C000
07C000
07C000
FFFE00
FFFE00
07E000
07C000
07C000
07C000
07C000
07C000
07C000
07C000
07C000
07C000
07C000
07C1F0
07C1F0
00FFC0
00FFC0
00FFC0
000000
000000
00FE00
00FE00
00FE00
003E00
003E00
00F800
00F800
00F800
ENDCHAR
STARTCHAR uni0259
ENCODING 601
SWIDTH 540 0
DWIDTH 25 0
BBX 17 18 3 0
BITMAP
3FFE00
3FFE00
F80F80
F80F80
F80F80
000F80
000F80
000F80
FFFF80
FFFF80
F80F80
F80F80
F80F80
F80F80
F80F80
3FFE00
3FFE00
3FFE00
ENDCHAR
STARTCHAR afii57929
ENCODING 700
SWIDTH 540 0
DWIDTH 25 0
BBX 7 10 8 16
BITMAP
FE
FE
FE
FE
FE
3E
3E
3E
F8
F8
ENDCHAR
STARTCHAR afii64937
ENCODING 701
SWIDTH 540 0
DWIDTH 25 0
BBX 7 10 8 16
BITMAP
FE
FE
FE
FE
FE
F8
F8
F8
3E
3E
ENDCHAR
STARTCHAR circumflex
ENCODING 710
SWIDTH 540 0
DWIDTH 25 0
BBX 13 8 5 18
BITMAP
0700
0700
0700
1FC0
1FC0
F8F8
F8F8
F8F8
ENDCHAR
STARTCHAR caron
ENCODING 711
SWIDTH 540 0
DWIDTH 25 0
BBX 13 8 5 18
BITMAP
F8F8
F8F8
F8F8
1FC0
1FC0
0700
0700
0700
ENDCHAR
STARTCHAR breve
ENCODING 728
SWIDTH 540 0
DWIDTH 25 0
BBX 17 5 3 23
BITMAP
F80F80
F80F80
3FFE00
3FFE00
3FFE00
ENDCHAR
STARTCHAR dotaccent
ENCODING 729
SWIDTH 540 0
DWIDTH 25 0
BBX 5 5 8 23
BITMAP
F8
F8
F8
F8
F8
ENDCHAR
STARTCHAR ring
ENCODING 730
SWIDTH 540 0
DWIDTH 25 0
BBX 13 7 5 21
BITMAP
1FC0
1FC0
F8F8
F8F8
F8F8
1FC0
1FC0
ENDCHAR
STARTCHAR ogonek
ENCODING 731
SWIDTH 540 0
DWIDTH 25 0
BBX 13 7 5 -7
BITMAP
1F00
1F00
F800
F800
F800
1FF8
1FF8
ENDCHAR
STARTCHAR tilde
ENCODING 732
SWIDTH 540 0
DWIDTH 25 0
BBX 17 5 3 23
BITMAP
3FCF80
3FCF80
F9FE00
F9FE00
F9FE00
ENDCHAR
STARTCHAR hungarumlaut
ENCODING 733
SWIDTH 540 0
DWIDTH 25 0
BBX 17 7 3 21
BITMAP
07CF80
07CF80
3E3E00
3E3E00
3E3E00
F9F000
F9F000
ENDCHAR
STARTCHAR gravecomb
ENCODING 768
SWIDTH 540 0
DWIDTH 25 0
BBX 10 8 5 28
BITMAP
F800
F800
7C00
1F00
1F00
07C0
07C0
07C0
ENDCHAR
STARTCHAR acutecomb
ENCODING 769
SWIDTH 540 0
DWIDTH 25 0
BBX 10 8 5 28
BITMAP
07C0
07C0
07C0
1F00
1F00
F800
F800
F800
ENDCHAR
STARTCHAR uni0302
ENCODING 770
SWIDTH 540 0
DWIDTH 25 0
BBX 13 8 5 28
BITMAP
0700
0700
0700
1FC0
1FC0
F8F8
F8F8
F8F8
ENDCHAR
STARTCHAR tildecomb
ENCODING 771
SWIDTH 540 0
DWIDTH 25 0
BBX 17 5 3 28
BITMAP
3FCF80
3FCF80
F9FE00
F9FE00
F1FE00
ENDCHAR
STARTCHAR uni0304
ENCODING 772
SWIDTH 540 0
DWIDTH 25 0
BBX 13 3 5 28
BITMAP
FFF8
FFF8
FFF8
ENDCHAR
STARTCHAR uni0305
ENCODING 773
SWIDTH 540 0
DWIDTH 25 0
BBX 23 3 0 28
BITMAP
FFFFFE
FFFFFE
FFFFFE
ENDCHAR
STARTCHAR uni0306
ENCODING 774
SWIDTH 540 0
DWIDTH 25 0
BBX 17 5 3 28
BITMAP
F80F80
F80F80
3FFE00
3FFE00
3FFE00
ENDCHAR
STARTCHAR uni0307
ENCODING 775
SWIDTH 540 0
DWIDTH 25 0
BBX 5 5 8 28
BITMAP
F8
F8
F8
F8
F8
ENDCHAR
STARTCHAR uni0308
ENCODING 776
SWIDTH 540 0
DWIDTH 25 0
BBX 13 5 5 28
BITMAP
F8F8
F8F8
F8F8
F8F8
F8F8
ENDCHAR
STARTCHAR hookabovecomb
ENCODING 777
SWIDTH 540 0
DWIDTH 25 0
BBX 12 10 3 26
BITMAP
3FC0
3FC0
3FC0
F9F0
F9F0
01F0
01F0
01F0
07C0
07C0
ENDCHAR
STARTCHAR uni030A
ENCODING 778
SWIDTH 540 0
DWIDTH 25 0
BBX 13 8 5 28
BITMAP
1FC0
1FC0
3FE0
F8F8
F8F8
1FC0
1FC0
1FC0
ENDCHAR
STARTCHAR uni030B
ENCODING 779
SWIDTH 540 0
DWIDTH 25 0
BBX 17 8 3 28
BITMAP
07CF80
07CF80
0FCF80
3E3E00
3E3E00
F9F000
F9F000
F1F000
ENDCHAR
STARTCHAR uni030C
ENCODING 780
SWIDTH 540 0
DWIDTH 25 0
BBX 13 8 5 28
BITMAP
F8F8
F8F8
7DF0
1FC0
1FC0
0700
0700
0700
ENDCHAR
STARTCHAR uni030D
ENCODING 781
SWIDTH 540 0
DWIDTH 25 0
BBX 5 10 8 26
BITMAP
F8
F8
F8
F8
F8
F8
F8
F8
F8
F8
ENDCHAR
STARTCHAR uni030E
ENCODING 782
SWIDTH 540 0
DWIDTH 25 0
BBX 13 10 5 26
BITMAP
F8F8
F8F8
F8F8
F8F8
F8F8
F8F8
F8F8
F8F8
F8F8
F8F8
ENDCHAR
STARTCHAR uni030F
ENCODING 783
SWIDTH 540 0
DWIDTH 25 0
BBX 17 8 3 28
BITMAP
F9F000
F9F000
F9F800
3E3E00
3E3E00
07CF80
07CF80
07C780
ENDCHAR
STARTCHAR uni0310
ENCODING 784
SWIDTH 540 0
DWIDTH 25 0
BBX 20 8 0 28
BITMAP
00F800
00F800
00F000
F801F0
F801F0
3FFFC0
1FFFC0
1FFFC0
ENDCHAR
STARTCHAR uni0311
ENCODING 785
SWIDTH 540 0
DWIDTH 25 0
BBX 15 5 3 28
BITMAP
3FF0
3FF0
F83E
F83E
F03E
ENDCHAR
STARTCHAR dotbelowcomb
ENCODING 803
SWIDTH 540 0
DWIDTH 25 0
BBX 5 5 8 -7
BITMAP
F8
F8
F8
F8
F8
ENDCHAR
STARTCHAR uni0324
ENCODING 804
SWIDTH 540 0
DWIDTH 25 0
BBX 13 5 5 -7
BITMAP
F8F8
F8F8
F8F8
F8F8
F8F8
ENDCHAR
STARTCHAR uni0325
ENCODING 805
SWIDTH 540 0
DWIDTH 25 0
BBX 13 8 5 -10
BITMAP
1FC0
1FC0
1FC0
F8F8
F8F8
3FE0
1FC0
1FC0
ENDCHAR
STARTCHAR uni0327
ENCODING 807
SWIDTH 540 0
DWIDTH 25 0
BBX 13 10 5 -10
BITMAP
07C0
07C0
00F8
00F8
00F8
F8F8
F8F8
3FE0
1FC0
1FC0
ENDCHAR
STARTCHAR uni0328
ENCODING 808
SWIDTH 540 0
DWIDTH 25 0
BBX 12 7 8 -7
BITMAP
F800
F800
F800
F800
F800
FFF0
FFF0
ENDCHAR
STARTCHAR uni0340
ENCODING 832
SWIDTH 540 0
DWIDTH 25 0
BBX 10 8 5 28
BITMAP
F800
F800
7C00
1F00
1F00
07C0
07C0
07C0
ENDCHAR
STARTCHAR uni0341
ENCODING 833
SWIDTH 540 0
DWIDTH 25 0
BBX 10 8 5 28
BITMAP
07C0
07C0
07C0
1F00
1F00
F800
F800
F800
ENDCHAR
STARTCHAR uni0374
ENCODING 884
SWIDTH 540 0
DWIDTH 25 0
BBX 10 7 5 21
BITMAP
07C0
07C0
1F00
1F00
1F00
F800
F800
ENDCHAR
STARTCHAR uni0375
ENCODING 885
SWIDTH 540 0
DWIDTH 25 0
BBX 10 7 5 -7
BITMAP
07C0
07C0
1F00
1F00
1F00
F800
F800
ENDCHAR
STARTCHAR uni037A
ENCODING 890
SWIDTH 540 0
DWIDTH 25 0
BBX 10 5 5 -7
BITMAP
F800
F800
F800
FFC0
FFC0
ENDCHAR
STARTCHAR uni037E
ENCODING 894
SWIDTH 540 0
DWIDTH 25 0
BBX 7 25 8 -7
BITMAP
FE
FE
FE
FE
FE
00
00
00
00
00
00
00
00
FE
FE
FE
FE
FE
3E
3E
3E
3E
3E
F8
F8
ENDCHAR
STARTCHAR tonos
ENCODING 900
SWIDTH 540 0
DWIDTH 25 0
BBX 10 7 5 21
BITMAP
07C0
07C0
1F00
1F00
1F00
F800
F800
ENDCHAR
STARTCHAR dieresistonos
ENCODING 901
SWIDTH 540 0
DWIDTH 25 0
BBX 13 15 5 18
BITMAP
00F8
00F8
07C0
07C0
07C0
1F00
1F00
0000
0000
0000
F8F8
F8F8
F8F8
F8F8
F8F8
ENDCHAR
STARTCHAR Alphatonos
ENCODING 902
SWIDTH 540 0
DWIDTH 25 0
BBX 17 36 3 0
BITMAP
003E00
003E00
007C00
01F000
01F000
07C000
07C000
07C000
000000
000000
01C000
01C000
01C000
07F000
07F000
07F000
07F000
07F000
07F000
07F000
1F7C00
3E3E00
3E3E00
3FFE00
3FFE00
3FFE00
3E3E00
3E3E00
F80F80
F80F80
F80F80
F80F80
F80F80
F80F80
F80F80
F80F80
ENDCHAR
STARTCHAR anoteleia
ENCODING 903
SWIDTH 540 0
DWIDTH 25 0
BBX 5 5 8 13
BITMAP
F8
F8
F8
F8
F8
ENDCHAR
STARTCHAR Epsilontonos
ENCODING 904
SWIDTH 540 0
DWIDTH 25 0
BBX 17 36 3 0
BITMAP
003E00
003E00
007C00
01F000
01F000
07C000
07C000
07C000
000000
000000
FFFF80
FFFF80
FFFF80
F80000
F80000
F80000
F80000
F80000
F80000
F80000
FFF000
FFF000
FFF000
F80000
F80000
F80000
F80000
F80000
F80000
F80000
F80000
F80000
F80000
FFFF80
FFFF80
FFFF80
ENDCHAR
STARTCHAR Etatonos
ENCODING 905
SWIDTH 540 0
DWIDTH 25 0
BBX 17 36 3 0
BITMAP
003E00
003E00
007C00
01F000
01F000
07C000
07C000
07C000
000000
000000
F80F80
F80F80
F80F80
F80F80
F80F80
F80F80
F80F80
F80F80
F80F80
F80F80
FFFF80
FFFF80
FFFF80
F80F80
F80F80
F80F80
F80F80
F80F80
F80F80
F80F80
F80F80
F80F80
F80F80
F80F80
F80F80
F80F80
ENDCHAR
STARTCHAR Iotatonos
ENCODING 906
SWIDTH 540 0
DWIDTH 25 0
BBX 15 36 3 0
BITMAP
003E
003E
007C
01F0
01F0
07C0
07C0
07C0
0000
0000
FFFE
FFFE
FFFE
07C0
07C0
07C0
07C0
07C0
07C0
07C0
07C0
07C0
07C0
07C0
07C0
07C0
07C0
07C0
07C0
07C0
07C0
07C0
07C0
FFFE
FFFE
FFFE
ENDCHAR
STARTCHAR Omicrontonos
ENCODING 908
SWIDTH 540 0
DWIDTH 25 0
BBX 17 36 3 0
BITMAP
003E00
003E00
007C00
01F000
01F000
07C000
07C000
07C000
000000
000000
3FFE00
3FFE00
3FFE00
F80F80
F80F80
F80F80
F80F80
F80F80
F80F80
F80F80
F80F80
F80F80
F80F80
F80F80
F80F80
F80F80
F80F80
F80F80
F80F80
F80F80
F80F80
F80F80
F80F80
3FFE00
3FFE00
3FFE00
ENDCHAR
STARTCHAR Upsilontonos
ENCODING 910
SWIDTH 540 0
DWIDTH 25 0
BBX 20 36 0 0
BITMAP
0007C0
0007C0
000F80
003E00
003E00
00F800
00F800
00F800
000000
000000
F801F0
F801F0
F801F0
F801F0
F801F0
3E07C0
1F07C0
1F07C0
07FE00
07FE00
01F800
00F800
00F800
00F800
00F800
00F800
00F800
00F800
00F800
00F800
00F800
00F800
00F800
00F800
00F800
00F800
ENDCHAR
STARTCHAR Omegatonos
ENCODING 911
SWIDTH 540 0
DWIDTH 25 0
BBX 20 36 0 0
BITMAP
0007C0
0007C0
000F80
003E00
003E00
00F800
00F800
00F800
000000
000000
07FE00
07FE00
07FE00
1F07C0
1F07C0
F801F0
F801F0
F801F0
F801F0
F801F0
F801F0
F801F0
F801F0
F801F0
F801F0
F801F0
F801F0
F801F0
3F07C0
1F07C0
1F07C0
1F07C0
1F07C0
FF07F0
FF07F0
FF07F0
ENDCHAR
STARTCHAR iotadieresistonos
ENCODING 912
SWIDTH 540 0
DWIDTH 25 0
BBX 17 36 3 0
BITMAP
003E00
003E00
007C00
01F000
01F000
07C000
07C000
07C000
000000
000000
F83E00
F83E00
F83E00
F83E00
F83E00
000000
000000
000000
07C000
07C000
07C000
07C000
07C000
07C000
07C000
07C000
07C000
07C000
07C000
07C000
07C000
07CF80
07CF80
01FE00
01FE00
01FE00
ENDCHAR
STARTCHAR Alpha
ENCODING 913
SWIDTH 540 0
DWIDTH 25 0
BBX 17 26 3 0
BITMAP
01C000
01C000
01C000
07F000
07F000
07F000
07F000
07F000
07F000
07F000
1F7C00
3E3E00
3E3E00
3FFE00
3FFE00
3FFE00
3E3E00
3E3E00
F80F80
F80F80
F80F80
F80F80
F80F80
F80F80
F80F80
F80F80
ENDCHAR
STARTCHAR Beta
ENCODING 914
SWIDTH 540 0
DWIDTH 25 0
BBX 17 26 3 0
BITMAP
FFFE00
FFFE00
FFFE00
F80F80
F80F80
F80F80
F80F80
F80F80
F80F80
F80F80
FFFE00
FFFE00
FFFE00
F80F80
F80F80
F80F80
F80F80
F80F80
F80F80
F80F80
F80F80
F80F80
F80F80
FFFE00
FFFE00
FFFE00
ENDCHAR
STARTCHAR Gamma
ENCODING 915
SWIDTH 540 0
DWIDTH 25 0
BBX 17 26 3 0
BITMAP
FFFF80
FFFF80
FFFF80
F80000
F80000
F80000
F80000
F80000
F80000
F80000
F80000
F80000
F80000
F80000
F80000
F80000
F80000
F80000
F80000
F80000
F80000
F80000
F80000
F80000
F80000
F80000
ENDCHAR
STARTCHAR Delta
ENCODING 916
SWIDTH 540 0
DWIDTH 25 0
BBX 20 26 0 0
BITMAP
00F800
00F800
00F800
00F800
00F800
07FE00
07FE00
07FE00
07FE00
07FE00
1F0F80
1F07C0
1F07C0
1F07C0
1F07C0
1F07C0
1F07C0
1F07C0
F801F0
F801F0
F801F0
F801F0
F801F0
FFFFF0
FFFFF0
FFFFF0
ENDCHAR
STARTCHAR Epsilon
ENCODING 917
SWIDTH 540 0
DWIDTH 25 0
BBX 17 26 3 0
BITMAP
FFFF80
FFFF80
FFFF80
F80000
F80000
F80000
F80000
F80000
F80000
F80000
FFF000
FFF000
FFF000
F80000
F80000
F80000
F80000
F80000
F80000
F80000
F80000
F80000
F80000
FFFF80
FFFF80
FFFF80
ENDCHAR
STARTCHAR Zeta
ENCODING 918
SWIDTH 540 0
DWIDTH 25 0
BBX 17 26 3 0
BITMAP
FFFF80
FFFF80
FFFF80
000F80
000F80
000F80
000F80
000F80
003E00
003E00
00F800
01F000
01F000
07C000
07C000
0F8000
3E0000
3E0000
F80000
F80000
F80000
F80000
F80000
FFFF80
FFFF80
FFFF80
ENDCHAR
STARTCHAR Eta
ENCODING 919
SWIDTH 540 0
DWIDTH 25 0
BBX 17 26 3 0
BITMAP
F80F80
F80F80
F80F80
F80F80
F80F80
F80F80
F80F80
F80F80
F80F80
F80F80
FFFF80
FFFF80
FFFF80
F80F80
F80F80
F80F80
F80F80
F80F80
F80F80
F80F80
F80F80
F80F80
F80F80
F80F80
F80F80
F80F80
ENDCHAR
STARTCHAR Theta
ENCODING 920
SWIDTH 540 0
DWIDTH 25 0
BBX 17 26 3 0
BITMAP
3FFE00
3FFE00
3FFE00
F80F80
F80F80
F80F80
F80F80
F80F80
F80F80
F80F80
FFFF80
FFFF80
FFFF80
F80F80
F80F80
F80F80
F80F80
F80F80
F80F80
F80F80
F80F80
F80F80
F80F80
3FFE00
3FFE00
3FFE00
ENDCHAR
STARTCHAR Iota
ENCODING 921
SWIDTH 540 0
DWIDTH 25 0
BBX 15 26 3 0
BITMAP
FFFE
FFFE
FFFE
07C0
07C0
07C0
07C0
07C0
07C0
07C0
07C0
07C0
07C0
07C0
07C0
07C0
07C0
07C0
07C0
07C0
07C0
07C0
07C0
FFFE
FFFE
FFFE
ENDCHAR
STARTCHAR Kappa
ENCODING 922
SWIDTH 540 0
DWIDTH 25 0
BBX 17 26 3 0
BITMAP
F80F80
F80F80
F80F80
F83E00
F83E00
F9F800
F9F000
F9F000
FFC000
FFC000
FF0000
FE0000
FE0000
FFC000
FFC000
FFC000
F9F000
F9F000
F83E00
F83E00
F83E00
F80F80
F80F80
F80F80
F80F80
F80F80
ENDCHAR
STARTCHAR Lambda
ENCODING 923
SWIDTH 540 0
DWIDTH 25 0
BBX 20 26 0 0
BITMAP
00F800
00F800
00F800
00F800
00F800
07FE00
07FE00
07FE00
07FE00
07FE00
1F0F80
1F07C0
1F07C0
1F07C0
1F07C0
1F07C0
1F07C0
1F07C0
F801F0
F801F0
F801F0
F801F0
F801F0
F801F0
F801F0
F801F0
ENDCHAR
STARTCHAR Mu
ENCODING 924
SWIDTH 540 0
DWIDTH 25 0
BBX 17 26 3 0
BITMAP
F80F80
F80F80
F80F80
FE3F80
FE3F80
FFFF80
FFFF80
FFFF80
F9CF80
F9CF80
F80F80
F80F80
F80F80
F80F80
F80F80
F80F80
F80F80
F80F80
F80F80
F80F80
F80F80
F80F80
F80F80
F80F80
F80F80
F80F80
ENDCHAR
STARTCHAR Nu
ENCODING 925
SWIDTH 540 0
DWIDTH 25 0
BBX 17 26 3 0
BITMAP
F80F80
F80F80
F80F80
F80F80
F80F80
FE0F80
FE0F80
FE0F80
FFCF80
FFCF80
F9FF80
F9FF80
F9FF80
F83F80
F83F80
F83F80
F80F80
F80F80
F80F80
F80F80
F80F80
F80F80
F80F80
F80F80
F80F80
F80F80
ENDCHAR
STARTCHAR Xi
ENCODING 926
SWIDTH 540 0
DWIDTH 25 0
BBX 17 26 3 0
BITMAP
FFFF80
FFFF80
FFFF80
FFFF80
FFFF80
000000
000000
000000
000000
000000
1FFC00
3FFE00
3FFE00
3FFE00
3FFE00
1FFC00
000000
000000
000000
000000
000000
FFFF80
FFFF80
FFFF80
FFFF80
FFFF80
ENDCHAR
STARTCHAR Omicron
ENCODING 927
SWIDTH 540 0
DWIDTH 25 0
BBX 17 26 3 0
BITMAP
3FFE00
3FFE00
3FFE00
F80F80
F80F80
F80F80
F80F80
F80F80
F80F80
F80F80
F80F80
F80F80
F80F80
F80F80
F80F80
F80F80
F80F80
F80F80
F80F80
F80F80
F80F80
F80F80
F80F80
3FFE00
3FFE00
3FFE00
ENDCHAR
STARTCHAR Pi
ENCODING 928
SWIDTH 540 0
DWIDTH 25 0
BBX 17 26 3 0
BITMAP
FFFF80
FFFF80
FFFF80
F80F80
F80F80
F80F80
F80F80
F80F80
F80F80
F80F80
F80F80
F80F80
F80F80
F80F80
F80F80
F80F80
F80F80
F80F80
F80F80
F80F80
F80F80
F80F80
F80F80
F80F80
F80F80
F80F80
ENDCHAR
STARTCHAR Rho
ENCODING 929
SWIDTH 540 0
DWIDTH 25 0
BBX 17 26 3 0
BITMAP
FFF000
FFF000
FFF000
F83E00
F83E00
F80F80
F80F80
F80F80
F80F80
F80F80
F83E00
F83E00
F83E00
FFF000
FFF000
FFF000
F80000
F80000
F80000
F80000
F80000
F80000
F80000
F80000
F80000
F80000
ENDCHAR
STARTCHAR Sigma
ENCODING 931
SWIDTH 540 0
DWIDTH 25 0
BBX 17 26 3 0
BITMAP
FFFF80
FFFF80
FFFF80
3E0000
3E0000
0FC000
07C000
07C000
01F000
01F000
007C00
003E00
003E00
003E00
003E00
007C00
01F000
01F000
07C000
07C000
0FC000
3E0000
3E0000
FFFF80
FFFF80
FFFF80
ENDCHAR
STARTCHAR Tau
ENCODING 932
SWIDTH 540 0
DWIDTH 25 0
BBX 15 26 3 0
BITMAP
FFFE
FFFE
FFFE
07C0
07C0
07C0
07C0
07C0
07C0
07C0
07C0
07C0
07C0
07C0
07C0
07C0
07C0
07C0
07C0
07C0
07C0
07C0
07C0
07C0
07C0
07C0
ENDCHAR
STARTCHAR Upsilon
ENCODING 933
SWIDTH 540 0
DWIDTH 25 0
BBX 20 26 0 0
BITMAP
F801F0
F801F0
F801F0
F801F0
F801F0
3E07C0
1F07C0
1F07C0
07FE00
07FE00
01F800
00F800
00F800
00F800
00F800
00F800
00F800
00F800
00F800
00F800
00F800
00F800
00F800
00F800
00F800
00F800
ENDCHAR
STARTCHAR Phi
ENCODING 934
SWIDTH 540 0
DWIDTH 25 0
BBX 20 26 0 0
BITMAP
00F800
00F800
00F800
1FFFC0
1FFFC0
F9F9F0
F8F9F0
F8F9F0
F8F9F0
F8F9F0
F8F9F0
F8F9F0
F8F9F0
F8F9F0
F8F9F0
F8F9F0
F8F9F0
F8F9F0
F8F9F0
F8F9F0
F9F9F0
1FFFC0
1FFFC0
00F800
00F800
00F800
ENDCHAR
STARTCHAR Chi
ENCODING 935
SWIDTH 540 0
DWIDTH 25 0
BBX 20 26 0 0
BITMAP
F801F0
F801F0
F801F0
F801F0
F801F0
3E07C0
1F07C0
1F07C0
07FE00
07FE00
01F800
00F800
00F800
00F800
00F800
01F800
07FE00
07FE00
1F07C0
1F07C0
3E07C0
F801F0
F801F0
F801F0
F801F0
F801F0
ENDCHAR
STARTCHAR Psi
ENCODING 936
SWIDTH 540 0
DWIDTH 25 0
BBX 20 26 0 0
BITMAP
F8F9F0
F8F9F0
F8F9F0
F8F9F0
F8F9F0
F8F9F0
F8F9F0
F8F9F0
F8F9F0
F8F9F0
F8F9F0
F8F9F0
F8F9F0
F8F9F0
F8F9F0
FDF9F0
1FFFC0
1FFFC0
00F800
00F800
00F800
00F800
00F800
00F800
00F800
00F800
ENDCHAR
STARTCHAR Omega
ENCODING 937
SWIDTH 540 0
DWIDTH 25 0
BBX 20 26 0 0
BITMAP
07FE00
07FE00
07FE00
1F07C0
1F07C0
F801F0
F801F0
F801F0
F801F0
F801F0
F801F0
F801F0
F801F0
F801F0
F801F0
F801F0
F801F0
F801F0
3F07C0
1F07C0
1F07C0
1F07C0
1F07C0
FF07F0
FF07F0
FF07F0
ENDCHAR
STARTCHAR Iotadieresis
ENCODING 938
SWIDTH 540 0
DWIDTH 25 0
BBX 15 33 3 0
BITMAP
F83E
F83E
F83E
F83E
F03E
0000
0000
FFFE
FFFE
FFFE
07C0
07C0
07C0
07C0
07C0
07C0
07C0
07C0
07C0
07C0
07C0
07C0
07C0
07C0
07C0
07C0
07C0
07C0
07C0
07C0
FFFE
FFFE
FFFE
ENDCHAR
STARTCHAR Upsilondieresis
ENCODING 939
SWIDTH 540 0
DWIDTH 25 0
BBX 20 33 0 0
BITMAP
1F07C0
1F07C0
1F07C0
1F07C0
1E07C0
000000
000000
F801F0
F801F0
F801F0
F801F0
F801F0
3E07C0
1F07C0
1F07C0
07FE00
07FE00
01F800
00F800
00F800
00F800
00F800
00F800
00F800
00F800
00F800
00F800
00F800
00F800
00F800
00F800
00F800
00F800
ENDCHAR
STARTCHAR alphatonos
ENCODING 940
SWIDTH 540 0
DWIDTH 25 0
BBX 17 28 3 0
BITMAP
003E00
003E00
01F000
01F000
01F000
07C000
07C000
000000
000000
000000
3FFF80
3FFF80
F87F80
F83F80
F83F80
F80F80
F80F80
F80F80
F80F80
F80F80
F83F80
F83F80
F83F80
F9FF80
F9FF80
3FCF80
3FCF80
3FCF80
ENDCHAR
STARTCHAR epsilontonos
ENCODING 941
SWIDTH 540 0
DWIDTH 25 0
BBX 17 28 3 0
BITMAP
003E00
003E00
01F000
01F000
01F000
07C000
07C000
000000
000000
000000
3FFE00
3FFE00
F80F80
F80F80
F80F80
F80000
F80000
F80000
3FF000
3FF000
F80000
F80000
F80000
F80F80
F80F80
3FFE00
3FFE00
3FFE00
ENDCHAR
STARTCHAR etatonos
ENCODING 942
SWIDTH 540 0
DWIDTH 25 0
BBX 17 35 3 -7
BITMAP
003E00
003E00
01F000
01F000
01F000
07C000
07C000
000000
000000
000000
F9FE00
F9FE00
FFCF80
FFCF80
FFCF80
FE0F80
FE0F80
FE0F80
F80F80
F80F80
F80F80
F80F80
F80F80
F80F80
F80F80
F80F80
F80F80
F80F80
000F80
000F80
000F80
000F80
000F80
000F80
000F80
ENDCHAR
STARTCHAR iotatonos
ENCODING 943
SWIDTH 540 0
DWIDTH 25 0
BBX 13 28 5 0
BITMAP
07C0
07C0
1F00
1F00
1F00
F800
F800
0000
0000
0000
F800
F800
F800
F800
F800
F800
F800
F800
F800
F800
F800
F800
F800
F8F8
F8F8
1FC0
1FC0
1FC0
ENDCHAR
STARTCHAR upsilondieresistonos
ENCODING 944
SWIDTH 540 0
DWIDTH 25 0
BBX 17 36 3 0
BITMAP
003E00
003E00
007C00
01F000
01F000
07C000
07C000
07C000
000000
000000
3E3E00
3E3E00
3E3E00
3E3E00
3E3E00
000000
000000
000000
F80F80
F80F80
F80F80
F80F80
F80F80
F80F80
F80F80
F80F80
F80F80
F80F80
F80F80
F80F80
F80F80
F80F80
F80F80
3FFE00
3FFE00
3FFE00
ENDCHAR
STARTCHAR alpha
ENCODING 945
SWIDTH 540 0
DWIDTH 25 0
BBX 17 18 3 0
BITMAP
3FFF80
3FFF80
F87F80
F83F80
F83F80
F80F80
F80F80
F80F80
F80F80
F80F80
F83F80
F83F80
F83F80
F9FF80
F9FF80
3FCF80
3FCF80
3FCF80
ENDCHAR
STARTCHAR beta
ENCODING 946
SWIDTH 540 0
DWIDTH 25 0
BBX 17 33 3 -7
BITMAP
3FC000
3FC000
3FC000
F9F000
F9F000
F9F000
F9F000
F9F000
F9F000
F9F000
FFFC00
FFFE00
FFFE00
F80F80
F80F80
F80F80
F80F80
F80F80
F80F80
F80F80
F80F80
F80F80
F80F80
FFFE00
FFFE00
FFFE00
F80000
F80000
F80000
F80000
F80000
F80000
F80000
ENDCHAR
STARTCHAR gamma
ENCODING 947
SWIDTH 540 0
DWIDTH 25 0
BBX 20 25 0 -7
BITMAP
F801F0
F801F0
F801F0
F801F0
F801F0
1F07C0
1F07C0
1F07C0
1F07C0
1F07C0
07FE00
07FE00
07FE00
07FE00
07FE00
00F800
00F800
00F800
00F800
00F800
00F800
00F800
00F800
00F800
00F800
ENDCHAR
STARTCHAR delta
ENCODING 948
SWIDTH 540 0
DWIDTH 25 0
BBX 17 26 3 0
BITMAP
3FFE00
3FFE00
3FFE00
F80F80
F80F80
3E0000
3E0000
3E0000
3FFE00
3FFE00
F80F80
F80F80
F80F80
F80F80
F80F80
F80F80
F80F80
F80F80
F80F80
F80F80
F80F80
F80F80
F80F80
3FFE00
3FFE00
3FFE00
ENDCHAR
STARTCHAR epsilon
ENCODING 949
SWIDTH 540 0
DWIDTH 25 0
BBX 17 18 3 0
BITMAP
3FFE00
3FFE00
F80F80
F80F80
F80F80
F80000
F80000
F80000
3FF000
3FF000
F80000
F80000
F80000
F80F80
F80F80
3FFE00
3FFE00
3FFE00
ENDCHAR
STARTCHAR zeta
ENCODING 950
SWIDTH 540 0
DWIDTH 25 0
BBX 17 33 3 -7
BITMAP
FFFF80
FFFF80
FFFF80
01F000
01F000
07C000
07C000
07C000
3E0000
3E0000
F80000
F80000
F80000
F80000
F80000
F80000
F80000
F80000
F80000
F80000
F80000
F80000
F80000
3FFE00
3FFE00
3FFE00
000F80
000F80
000F80
000F80
000F80
003E00
003E00
ENDCHAR
STARTCHAR eta
ENCODING 951
SWIDTH 540 0
DWIDTH 25 0
BBX 17 25 3 -7
BITMAP
F9FE00
F9FE00
FFCF80
FFCF80
FFCF80
FE0F80
FE0F80
FE0F80
F80F80
F80F80
F80F80
F80F80
F80F80
F80F80
F80F80
F80F80
F80F80
F80F80
000F80
000F80
000F80
000F80
000F80
000F80
000F80
ENDCHAR
STARTCHAR theta
ENCODING 952
SWIDTH 540 0
DWIDTH 25 0
BBX 15 26 3 0
BITMAP
3FF0
3FF0
3FF0
F83E
F83E
F83E
F83E
F83E
F83E
F83E
FFFE
FFFE
FFFE
F83E
F83E
F83E
F83E
F83E
F83E
F83E
F83E
F83E
F83E
3FF0
3FF0
3FF0
ENDCHAR
STARTCHAR iota
ENCODING 953
SWIDTH 540 0
DWIDTH 25 0
BBX 13 18 5 0
BITMAP
F800
F800
F800
F800
F800
F800
F800
F800
F800
F800
F800
F800
F800
F8F8
F8F8
1FC0
1FC0
1FC0
ENDCHAR
STARTCHAR kappa
ENCODING 954
SWIDTH 540 0
DWIDTH 25 0
BBX 15 18 3 0
BITMAP
F83E
F83E
F8F8
F9F0
F9F0
FFC0
FFC0
FF80
FE00
FE00
FFC0
FFC0
FFC0
F9F0
F9F0
F83E
F83E
F83E
ENDCHAR
STARTCHAR lambda
ENCODING 955
SWIDTH 540 0
DWIDTH 25 0
BBX 15 26 3 0
BITMAP
3FF0
3FF0
3FF0
F83E
F83E
003E
003E
003E
3FFE
3FFE
F87E
F83E
F83E
F83E
F83E
F83E
F83E
F83E
F83E
F83E
F83E
F83E
F83E
F83E
F83E
F83E
ENDCHAR
STARTCHAR mu
ENCODING 956
SWIDTH 540 0
DWIDTH 25 0
BBX 17 25 3 -7
BITMAP
F80F80
F80F80
F80F80
F80F80
F80F80
F80F80
F80F80
F80F80
F80F80
F80F80
F80F80
F80F80
F80F80
FE3F80
FE3F80
FFCF80
FFCF80
FFCF80
F80000
F80000
F80000
F80000
F80000
F80000
F80000
ENDCHAR
STARTCHAR nu
ENCODING 957
SWIDTH 540 0
DWIDTH 25 0
BBX 20 18 0 0
BITMAP
F801F0
F801F0
F801F0
F801F0
F801F0
1F07C0
1F07C0
1F07C0
1F07C0
1F07C0
07FE00
07FE00
07FE00
07FE00
07FE00
00F800
00F800
00F800
ENDCHAR
STARTCHAR xi
ENCODING 958
SWIDTH 540 0
DWIDTH 25 0
BBX 17 33 3 -7
BITMAP
FFFF80
FFFF80
FFFF80
07C000
07C000
3E0000
3E0000
3E0000
3E0000
3E0000
0FF000
07F000
07F000
3E0000
3E0000
3E0000
F80000
F80000
F80000
F80000
F80000
F80000
F80000
3FFE00
3FFE00
3FFE00
000F80
000F80
000F80
000F80
000F80
003E00
003E00
ENDCHAR
STARTCHAR omicron
ENCODING 959
SWIDTH 540 0
DWIDTH 25 0
BBX 17 18 3 0
BITMAP
07F000
07F000
1F7C00
3E3E00
3E3E00
F80F80
F80F80
F80F80
F80F80
F80F80
F80F80
F80F80
F80F80
3E3E00
3E3E00
07F000
07F000
07F000
ENDCHAR
STARTCHAR pi
ENCODING 960
SWIDTH 540 0
DWIDTH 25 0
BBX 17 18 3 0
BITMAP
FFFF80
FFFF80
3F7E00
3E3E00
3E3E00
3E3E00
3E3E00
3E3E00
3E3E00
3E3E00
3E3E00
3E3E00
3E3E00
3E3E00
3E3E00
3E3E00
3E3E00
3E3E00
ENDCHAR
STARTCHAR rho
ENCODING 961
SWIDTH 540 0
DWIDTH 25 0
BBX 17 25 3 -7
BITMAP
3FFE00
3FFE00
F80F80
F80F80
F80F80
F80F80
F80F80
F80F80
F80F80
F80F80
F80F80
F80F80
F80F80
F80F80
F80F80
FFFE00
FFFE00
FFFE00
F80000
F80000
F80000
F80000
F80000
F80000
F80000
ENDCHAR
STARTCHAR sigma1
ENCODING 962
SWIDTH 540 0
DWIDTH 25 0
BBX 17 25 3 -7
BITMAP
3FFE00
3FFE00
F80F80
F80F80
F80F80
F80000
F80000
F80000
F80000
F80000
F80000
F80000
F80000
F80000
F80000
3FFE00
3FFE00
3FFE00
000F80
000F80
000F80
000F80
000F80
01FE00
01FE00
ENDCHAR
STARTCHAR sigma
ENCODING 963
SWIDTH 540 0
DWIDTH 25 0
BBX 17 18 3 0
BITMAP
3FFF80
3FFF80
F9F800
F9F000
F9F000
F83E00
F83E00
F83E00
F80F80
F80F80
F80F80
F80F80
F80F80
F80F80
F80F80
3FFE00
3FFE00
3FFE00
ENDCHAR
STARTCHAR tau
ENCODING 964
SWIDTH 540 0
DWIDTH 25 0
BBX 17 18 3 0
BITMAP
FFFE00
FFFE00
0FC000
07C000
07C000
07C000
07C000
07C000
07C000
07C000
07C000
07C000
07C000
07CF80
07CF80
01FE00
01FE00
01FE00
ENDCHAR
STARTCHAR upsilon
ENCODING 965
SWIDTH 540 0
DWIDTH 25 0
BBX 17 18 3 0
BITMAP
F80F80
F80F80
F80F80
F80F80
F80F80
F80F80
F80F80
F80F80
F80F80
F80F80
F80F80
F80F80
F80F80
F80F80
F80F80
3FFE00
3FFE00
3FFE00
ENDCHAR
STARTCHAR phi
ENCODING 966
SWIDTH 540 0
DWIDTH 25 0
BBX 20 25 0 -7
BITMAP
1F3FC0
1F3FC0
FCF9F0
F8F9F0
F8F9F0
F8F9F0
F8F9F0
F8F9F0
F8F9F0
F8F9F0
F8F9F0
F8F9F0
F8F9F0
F8F9F0
F8F9F0
3FFFC0
1FFFC0
1FFFC0
00F800
00F800
00F800
00F800
00F800
00F800
00F800
ENDCHAR
STARTCHAR chi
ENCODING 967
SWIDTH 540 0
DWIDTH 25 0
BBX 20 25 0 -7
BITMAP
F801F0
F801F0
F801F0
F801F0
F801F0
1F07C0
1F07C0
1F0F80
07FE00
07FE00
00F800
00F800
00F800
00F800
00F800
07FE00
07FE00
07FE00
1F07C0
1F07C0
F801F0
F801F0
F801F0
F801F0
F801F0
ENDCHAR
STARTCHAR psi
ENCODING 968
SWIDTH 540 0
DWIDTH 25 0
BBX 20 25 0 -7
BITMAP
F8F9F0
F8F9F0
F8F9F0
F8F9F0
F8F9F0
F8F9F0
F8F9F0
F8F9F0
F8F9F0
F8F9F0
F8F9F0
F8F9F0
F8F9F0
F8F9F0
F8F9F0
3FFFC0
1FFFC0
1FFFC0
00F800
00F800
00F800
00F800
00F800
00F800
00F800
ENDCHAR
STARTCHAR omega
ENCODING 969
SWIDTH 540 0
DWIDTH 25 0
BBX 20 18 0 0
BITMAP
F801F0
F801F0
F8F1F0
F8F9F0
F8F9F0
F8F9F0
F8F9F0
F8F9F0
F8F9F0
F8F9F0
F8F9F0
F8F9F0
F8F9F0
F8F9F0
F8F9F0
3FFFC0
1FFFC0
1FFFC0
ENDCHAR
STARTCHAR iotadieresis
ENCODING 970
SWIDTH 540 0
DWIDTH 25 0
BBX 17 26 3 0
BITMAP
F83E00
F83E00
F83E00
F83E00
F83E00
000000
000000
000000
07C000
07C000
07C000
07C000
07C000
07C000
07C000
07C000
07C000
07C000
07C000
07C000
07C000
07CF80
07CF80
01FE00
01FE00
01FE00
ENDCHAR
STARTCHAR upsilondieresis
ENCODING 971
SWIDTH 540 0
DWIDTH 25 0
BBX 17 26 3 0
BITMAP
3E3E00
3E3E00
3E3E00
3E3E00
3E3E00
000000
000000
000000
F80F80
F80F80
F80F80
F80F80
F80F80
F80F80
F80F80
F80F80
F80F80
F80F80
F80F80
F80F80
F80F80
F80F80
F80F80
3FFE00
3FFE00
3FFE00
ENDCHAR
STARTCHAR omicrontonos
ENCODING 972
SWIDTH 540 0
DWIDTH 25 0
BBX 17 28 3 0
BITMAP
003E00
003E00
01F000
01F000
01F000
07C000
07C000
000000
000000
000000
07F000
07F000
1F7C00
3E3E00
3E3E00
F80F80
F80F80
F80F80
F80F80
F80F80
F80F80
F80F80
F80F80
3E3E00
3E3E00
07F000
07F000
07F000
ENDCHAR
STARTCHAR upsilontonos
ENCODING 973
SWIDTH 540 0
DWIDTH 25 0
BBX 17 28 3 0
BITMAP
003E00
003E00
01F000
01F000
01F000
07C000
07C000
000000
000000
000000
F80F80
F80F80
F80F80
F80F80
F80F80
F80F80
F80F80
F80F80
F80F80
F80F80
F80F80
F80F80
F80F80
F80F80
F80F80
3FFE00
3FFE00
3FFE00
ENDCHAR
STARTCHAR omegatonos
ENCODING 974
SWIDTH 540 0
DWIDTH 25 0
BBX 20 28 0 0
BITMAP
0007C0
0007C0
003E00
003E00
003E00
00F800
00F800
000000
000000
000000
F801F0
F801F0
F8F1F0
F8F9F0
F8F9F0
F8F9F0
F8F9F0
F8F9F0
F8F9F0
F8F9F0
F8F9F0
F8F9F0
F8F9F0
F8F9F0
F8F9F0
3FFFC0
1FFFC0
1FFFC0
ENDCHAR
STARTCHAR uni0400
ENCODING 1024
SWIDTH 540 0
DWIDTH 25 0
BBX 17 36 3 0
BITMAP
3E0000
3E0000
1F0000
07C000
07C000
01F000
01F000
01F000
000000
000000
FFFF80
FFFF80
FFFF80
F80000
F80000
F80000
F80000
F80000
F80000
F80000
FFF000
FFF000
FFF000
F80000
F80000
F80000
F80000
F80000
F80000
F80000
F80000
F80000
F80000
FFFF80
FFFF80
FFFF80
ENDCHAR
STARTCHAR afii10023
ENCODING 1025
SWIDTH 540 0
DWIDTH 25 0
BBX 17 33 3 0
BITMAP
3E3E00
3E3E00
3E3E00
3E3E00
3E3E00
000000
000000
FFFF80
FFFF80
FFFF80
F80000
F80000
F80000
F80000
F80000
F80000
F80000
FFF000
FFF000
FFF000
F80000
F80000
F80000
F80000
F80000
F80000
F80000
F80000
F80000
F80000
FFFF80
FFFF80
FFFF80
ENDCHAR
STARTCHAR afii10051
ENCODING 1026
SWIDTH 540 0
DWIDTH 25 0
BBX 20 31 0 -5
BITMAP
FFFFC0
FFFFC0
FFFFC0
07C000
07C000
07C000
07C000
07C000
07C000
07C000
07FF80
07FFC0
07FFC0
07C1F0
07C1F0
07C1F0
07C1F0
07C1F0
07C1F0
07C1F0
07C1F0
07C1F0
07C1F0
07C1F0
07C1F0
07C1F0
0001F0
0001F0
0007C0
0007C0
0007C0
ENDCHAR
STARTCHAR afii10052
ENCODING 1027
SWIDTH 540 0
DWIDTH 25 0
BBX 17 36 3 0
BITMAP
003E00
003E00
007C00
01F000
01F000
07C000
07C000
07C000
000000
000000
FFFF80
FFFF80
FFFF80
F80000
F80000
F80000
F80000
F80000
F80000
F80000
F80000
F80000
F80000
F80000
F80000
F80000
F80000
F80000
F80000
F80000
F80000
F80000
F80000
F80000
F80000
F80000
ENDCHAR
STARTCHAR afii10053
ENCODING 1028
SWIDTH 540 0
DWIDTH 25 0
BBX 17 26 3 0
BITMAP
07FE00
07FE00
07FE00
3E0F80
3E0F80
F80000
F80000
F80000
F80000
F80000
FF8000
FFC000
FFC000
F80000
F80000
F80000
F80000
F80000
F80000
F80000
F80000
3E0F80
3E0F80
07FE00
07FE00
07FE00
ENDCHAR
STARTCHAR afii10054
ENCODING 1029
SWIDTH 540 0
DWIDTH 25 0
BBX 17 26 3 0
BITMAP
3FFE00
3FFE00
3FFE00
F80F80
F80F80
F80000
F80000
F80000
F80000
F80000
3FFC00
3FFE00
3FFE00
000F80
000F80
000F80
000F80
000F80
000F80
000F80
000F80
F80F80
F80F80
3FFE00
3FFE00
3FFE00
ENDCHAR
STARTCHAR afii10055
ENCODING 1030
SWIDTH 540 0
DWIDTH 25 0
BBX 15 26 3 0
BITMAP
FFFE
FFFE
FFFE
07C0
07C0
07C0
07C0
07C0
07C0
07C0
07C0
07C0
07C0
07C0
07C0
07C0
07C0
07C0
07C0
07C0
07C0
07C0
07C0
FFFE
FFFE
FFFE
ENDCHAR
STARTCHAR afii10056
ENCODING 1031
SWIDTH 540 0
DWIDTH 25 0
BBX 15 33 3 0
BITMAP
3E3E
3E3E
3E3E
3E3E
3E3E
0000
0000
FFFE
FFFE
FFFE
07C0
07C0
07C0
07C0
07C0
07C0
07C0
07C0
07C0
07C0
07C0
07C0
07C0
07C0
07C0
07C0
07C0
07C0
07C0
07C0
FFFE
FFFE
FFFE
ENDCHAR
STARTCHAR afii10057
ENCODING 1032
SWIDTH 540 0
DWIDTH 25 0
BBX 17 26 3 0
BITMAP
01FF80
01FF80
01FF80
003E00
003E00
003E00
003E00
003E00
003E00
003E00
003E00
003E00
003E00
003E00
003E00
003E00
003E00
003E00
F83E00
F83E00
F83E00
F83E00
F83E00
3FF000
3FF000
3FF000
ENDCHAR
STARTCHAR afii10058
ENCODING 1033
SWIDTH 540 0
DWIDTH 25 0
BBX 23 26 0 0
BITMAP
1FFE00
1FFE00
1FFE00
1F3E00
1F3E00
1F3E00
1F3E00
1F3E00
1F3E00
1F3E00
1F3FF0
1F3FF0
1F3FF0
1F3E3E
1F3E3E
1F3E3E
1F3E3E
1F3E3E
1F3E3E
1F3E3E
1F3E3E
1F3E3E
1F3E3E
FF3FF8
FF3FF0
FF3FF0
ENDCHAR
STARTCHAR afii10059
ENCODING 1034
SWIDTH 540 0
DWIDTH 25 0
BBX 20 26 0 0
BITMAP
F8F800
F8F800
F8F800
F8F800
F8F800
F8F800
F8F800
F8F800
F8F800
F8F800
FFFF80
FFFFC0
FFFFC0
F8F9F0
F8F9F0
F8F9F0
F8F9F0
F8F9F0
F8F9F0
F8F9F0
F8F9F0
F8F9F0
F8F9F0
F8FFC0
F8FFC0
F8FFC0
ENDCHAR
STARTCHAR afii10060
ENCODING 1035
SWIDTH 540 0
DWIDTH 25 0
BBX 20 26 0 0
BITMAP
FFFFC0
FFFFC0
FFFFC0
07C000
07C000
07C000
07C000
07C000
07C000
07C000
07FF80
07FFC0
07FFC0
07C1F0
07C1F0
07C1F0
07C1F0
07C1F0
07C1F0
07C1F0
07C1F0
07C1F0
07C1F0
07C1F0
07C1F0
07C1F0
ENDCHAR
STARTCHAR afii10061
ENCODING 1036
SWIDTH 540 0
DWIDTH 25 0
BBX 17 36 3 0
BITMAP
003E00
003E00
007C00
01F000
01F000
07C000
07C000
07C000
000000
000000
F80F80
F80F80
F80F80
F83E00
F83E00
F9F800
F9F000
F9F000
FFC000
FFC000
FF0000
FE0000
FE0000
FFC000
FFC000
FFC000
F9F000
F9F000
F83E00
F83E00
F83E00
F80F80
F80F80
F80F80
F80F80
F80F80
ENDCHAR
STARTCHAR uni040D
ENCODING 1037
SWIDTH 540 0
DWIDTH 25 0
BBX 17 36 3 0
BITMAP
3E0000
3E0000
1F0000
07C000
07C000
01F000
01F000
01F000
000000
000000
F80F80
F80F80
F80F80
F80F80
F80F80
F80F80
F80F80
F80F80
F83F80
F83F80
F8FF80
F9FF80
F9FF80
FFCF80
FFCF80
FF8F80
FE0F80
FE0F80
F80F80
F80F80
F80F80
F80F80
F80F80
F80F80
F80F80
F80F80
ENDCHAR
STARTCHAR afii10062
ENCODING 1038
SWIDTH 540 0
DWIDTH 25 0
BBX 20 33 0 0
BITMAP
07C7C0
07C7C0
00FE00
00FE00
00FE00
000000
000000
1F01F0
1F01F0
1F01F0
1F01F0
1F01F0
07C7C0
07C7C0
07C7C0
07C7C0
07C7C0
07C7C0
07C7C0
07C7C0
00FE00
00FE00
00FE00
00FE00
00FE00
00F800
00F800
00F800
F8F800
F8F800
3FC000
1FC000
1FC000
ENDCHAR
STARTCHAR afii10145
ENCODING 1039
SWIDTH 540 0
DWIDTH 25 0
BBX 20 31 0 -5
BITMAP
F801F0
F801F0
F801F0
F801F0
F801F0
F801F0
F801F0
F801F0
F801F0
F801F0
F801F0
F801F0
F801F0
F801F0
F801F0
F801F0
F801F0
F801F0
F801F0
F801F0
F801F0
F801F0
F801F0
FFFFF0
FFFFF0
FFFFF0
00F800
00F800
00F800
00F800
00F800
ENDCHAR
STARTCHAR afii10017
ENCODING 1040
SWIDTH 540 0
DWIDTH 25 0
BBX 17 26 3 0
BITMAP
01C000
01C000
01C000
07F000
07F000
07F000
07F000
07F000
07F000
07F000
1F7C00
3E3E00
3E3E00
3FFE00
3FFE00
3FFE00
3E3E00
3E3E00
F80F80
F80F80
F80F80
F80F80
F80F80
F80F80
F80F80
F80F80
ENDCHAR
STARTCHAR afii10018
ENCODING 1041
SWIDTH 540 0
DWIDTH 25 0
BBX 17 26 3 0
BITMAP
FFFE00
FFFE00
FFFE00
F80000
F80000
F80000
F80000
F80000
F80000
F80000
FFFC00
FFFE00
FFFE00
F80F80
F80F80
F80F80
F80F80
F80F80
F80F80
F80F80
F80F80
F80F80
F80F80
FFFE00
FFFE00
FFFE00
ENDCHAR
STARTCHAR afii10019
ENCODING 1042
SWIDTH 540 0
DWIDTH 25 0
BBX 17 26 3 0
BITMAP
FFFE00
FFFE00
FFFE00
F80F80
F80F80
F80F80
F80F80
F80F80
F80F80
F80F80
FFFE00
FFFE00
FFFE00
F80F80
F80F80
F80F80
F80F80
F80F80
F80F80
F80F80
F80F80
F80F80
F80F80
FFFE00
FFFE00
FFFE00
ENDCHAR
STARTCHAR afii10020
ENCODING 1043
SWIDTH 540 0
DWIDTH 25 0
BBX 17 26 3 0
BITMAP
FFFF80
FFFF80
FFFF80
F80000
F80000
F80000
F80000
F80000
F80000
F80000
F80000
F80000
F80000
F80000
F80000
F80000
F80000
F80000
F80000
F80000
F80000
F80000
F80000
F80000
F80000
F80000
ENDCHAR
STARTCHAR afii10021
ENCODING 1044
SWIDTH 540 0
DWIDTH 25 0
BBX 20 31 0 -5
BITMAP
07FFC0
07FFC0
07FFC0
07C7C0
07C7C0
07C7C0
07C7C0
07C7C0
07C7C0
07C7C0
07C7C0
07C7C0
07C7C0
1F07C0
1F07C0
1F07C0
1F07C0
1F07C0
1F07C0
1F07C0
1F07C0
1F07C0
1F07C0
FFFFF0
FFFFF0
FFFFF0
F801F0
F801F0
F801F0
F801F0
F801F0
ENDCHAR
STARTCHAR afii10022
ENCODING 1045
SWIDTH 540 0
DWIDTH 25 0
BBX 17 26 3 0
BITMAP
FFFF80
FFFF80
FFFF80
F80000
F80000
F80000
F80000
F80000
F80000
F80000
FFF000
FFF000
FFF000
F80000
F80000
F80000
F80000
F80000
F80000
F80000
F80000
F80000
F80000
FFFF80
FFFF80
FFFF80
ENDCHAR
STARTCHAR afii10024
ENCODING 1046
SWIDTH 540 0
DWIDTH 25 0
BBX 20 26 0 0
BITMAP
F8F9F0
F8F9F0
F8F9F0
F8F9F0
F8F9F0
3FFFC0
1FFFC0
1FFFC0
1FFFC0
1FFFC0
07FF00
07FE00
07FE00
1FFFC0
1FFFC0
1FFFC0
1FFFC0
1FFFC0
F8F9F0
F8F9F0
F8F9F0
F8F9F0
F8F9F0
F8F9F0
F8F9F0
F8F9F0
ENDCHAR
STARTCHAR afii10025
ENCODING 1047
SWIDTH 540 0
DWIDTH 25 0
BBX 17 26 3 0
BITMAP
3FFE00
3FFE00
3FFE00
F80F80
F80F80
000F80
000F80
000F80
003E00
003E00
00F800
01F000
01F000
003E00
003E00
003E00
000F80
000F80
000F80
000F80
000F80
F80F80
F80F80
3FFE00
3FFE00
3FFE00
ENDCHAR
STARTCHAR afii10026
ENCODING 1048
SWIDTH 540 0
DWIDTH 25 0
BBX 17 26 3 0
BITMAP
F80F80
F80F80
F80F80
F80F80
F80F80
F80F80
F80F80
F80F80
F83F80
F83F80
F8FF80
F9FF80
F9FF80
FFCF80
FFCF80
FF8F80
FE0F80
FE0F80
F80F80
F80F80
F80F80
F80F80
F80F80
F80F80
F80F80
F80F80
ENDCHAR
STARTCHAR afii10027
ENCODING 1049
SWIDTH 540 0
DWIDTH 25 0
BBX 17 33 3 0
BITMAP
3E3E00
3E3E00
07F000
07F000
07F000
000000
000000
F80F80
F80F80
F80F80
F80F80
F80F80
F80F80
F80F80
F80F80
F83F80
F83F80
F8FF80
F9FF80
F9FF80
FFCF80
FFCF80
FF8F80
FE0F80
FE0F80
F80F80
F80F80
F80F80
F80F80
F80F80
F80F80
F80F80
F80F80
ENDCHAR
STARTCHAR afii10028
ENCODING 1050
SWIDTH 540 0
DWIDTH 25 0
BBX 17 26 3 0
BITMAP
F80F80
F80F80
F80F80
F83E00
F83E00
F9F800
F9F000
F9F000
FFC000
FFC000
FF0000
FE0000
FE0000
FFC000
FFC000
FFC000
F9F000
F9F000
F83E00
F83E00
F83E00
F80F80
F80F80
F80F80
F80F80
F80F80
ENDCHAR
STARTCHAR afii10029
ENCODING 1051
SWIDTH 540 0
DWIDTH 25 0
BBX 17 26 3 0
BITMAP
01FF80
01FF80
01FF80
07CF80
07CF80
07CF80
07CF80
07CF80
07CF80
07CF80
07CF80
07CF80
07CF80
3E0F80
3E0F80
3E0F80
3E0F80
3E0F80
3E0F80
3E0F80
3E0F80
3E0F80
3E0F80
F80F80
F80F80
F80F80
ENDCHAR
STARTCHAR afii10030
ENCODING 1052
SWIDTH 540 0
DWIDTH 25 0
BBX 17 26 3 0
BITMAP
F80F80
F80F80
F80F80
FE3F80
FE3F80
FFFF80
FFFF80
FFFF80
F9CF80
F9CF80
F80F80
F80F80
F80F80
F80F80
F80F80
F80F80
F80F80
F80F80
F80F80
F80F80
F80F80
F80F80
F80F80
F80F80
F80F80
F80F80
ENDCHAR
STARTCHAR afii10031
ENCODING 1053
SWIDTH 540 0
DWIDTH 25 0
BBX 17 26 3 0
BITMAP
F80F80
F80F80
F80F80
F80F80
F80F80
F80F80
F80F80
F80F80
F80F80
F80F80
FFFF80
FFFF80
FFFF80
F80F80
F80F80
F80F80
F80F80
F80F80
F80F80
F80F80
F80F80
F80F80
F80F80
F80F80
F80F80
F80F80
ENDCHAR
STARTCHAR afii10032
ENCODING 1054
SWIDTH 540 0
DWIDTH 25 0
BBX 17 26 3 0
BITMAP
3FFE00
3FFE00
3FFE00
F80F80
F80F80
F80F80
F80F80
F80F80
F80F80
F80F80
F80F80
F80F80
F80F80
F80F80
F80F80
F80F80
F80F80
F80F80
F80F80
F80F80
F80F80
F80F80
F80F80
3FFE00
3FFE00
3FFE00
ENDCHAR
STARTCHAR afii10033
ENCODING 1055
SWIDTH 540 0
DWIDTH 25 0
BBX 17 26 3 0
BITMAP
FFFF80
FFFF80
FFFF80
F80F80
F80F80
F80F80
F80F80
F80F80
F80F80
F80F80
F80F80
F80F80
F80F80
F80F80
F80F80
F80F80
F80F80
F80F80
F80F80
F80F80
F80F80
F80F80
F80F80
F80F80
F80F80
F80F80
ENDCHAR
STARTCHAR afii10034
ENCODING 1056
SWIDTH 540 0
DWIDTH 25 0
BBX 17 26 3 0
BITMAP
FFF000
FFF000
FFF000
F83E00
F83E00
F80F80
F80F80
F80F80
F80F80
F80F80
F83E00
F83E00
F83E00
FFF000
FFF000
FFF000
F80000
F80000
F80000
F80000
F80000
F80000
F80000
F80000
F80000
F80000
ENDCHAR
STARTCHAR afii10035
ENCODING 1057
SWIDTH 540 0
DWIDTH 25 0
BBX 17 26 3 0
BITMAP
07FE00
07FE00
07FE00
3E0F80
3E0F80
F80000
F80000
F80000
F80000
F80000
F80000
F80000
F80000
F80000
F80000
F80000
F80000
F80000
F80000
F80000
F80000
3E0F80
3E0F80
07FE00
07FE00
07FE00
ENDCHAR
STARTCHAR afii10036
ENCODING 1058
SWIDTH 540 0
DWIDTH 25 0
BBX 15 26 3 0
BITMAP
FFFE
FFFE
FFFE
07C0
07C0
07C0
07C0
07C0
07C0
07C0
07C0
07C0
07C0
07C0
07C0
07C0
07C0
07C0
07C0
07C0
07C0
07C0
07C0
07C0
07C0
07C0
ENDCHAR
STARTCHAR afii10037
ENCODING 1059
SWIDTH 540 0
DWIDTH 25 0
BBX 20 26 0 0
BITMAP
1F01F0
1F01F0
1F01F0
1F01F0
1F01F0
07C7C0
07C7C0
07C7C0
07C7C0
07C7C0
07C7C0
07C7C0
07C7C0
00FE00
00FE00
00FE00
00FE00
00FE00
00F800
00F800
00F800
F8F800
F8F800
3FC000
1FC000
1FC000
ENDCHAR
STARTCHAR afii10038
ENCODING 1060
SWIDTH 540 0
DWIDTH 25 0
BBX 20 26 0 0
BITMAP
00F800
00F800
00F800
1FFFC0
1FFFC0
F9F9F0
F8F9F0
F8F9F0
F8F9F0
F8F9F0
F8F9F0
F8F9F0
F8F9F0
F8F9F0
F8F9F0
F8F9F0
F8F9F0
F8F9F0
F8F9F0
F8F9F0
F9F9F0
1FFFC0
1FFFC0
00F800
00F800
00F800
ENDCHAR
STARTCHAR afii10039
ENCODING 1061
SWIDTH 540 0
DWIDTH 25 0
BBX 20 26 0 0
BITMAP
F801F0
F801F0
F801F0
F801F0
F801F0
3E07C0
1F07C0
1F07C0
07FE00
07FE00
01F800
00F800
00F800
00F800
00F800
01F800
07FE00
07FE00
1F07C0
1F07C0
3E07C0
F801F0
F801F0
F801F0
F801F0
F801F0
ENDCHAR
STARTCHAR afii10040
ENCODING 1062
SWIDTH 540 0
DWIDTH 25 0
BBX 17 31 3 -5
BITMAP
F83E00
F83E00
F83E00
F83E00
F83E00
F83E00
F83E00
F83E00
F83E00
F83E00
F83E00
F83E00
F83E00
F83E00
F83E00
F83E00
F83E00
F83E00
F83E00
F83E00
F83E00
F83E00
F83E00
FFFF80
FFFF80
FFFF80
000F80
000F80
000F80
000F80
000F80
ENDCHAR
STARTCHAR afii10041
ENCODING 1063
SWIDTH 540 0
DWIDTH 25 0
BBX 17 26 3 0
BITMAP
F80F80
F80F80
F80F80
F80F80
F80F80
F80F80
F80F80
F80F80
F80F80
F80F80
3FFF80
3FFF80
3FFF80
000F80
000F80
000F80
000F80
000F80
000F80
000F80
000F80
000F80
000F80
000F80
000F80
000F80
ENDCHAR
STARTCHAR afii10042
ENCODING 1064
SWIDTH 540 0
DWIDTH 25 0
BBX 20 26 0 0
BITMAP
F8F9F0
F8F9F0
F8F9F0
F8F9F0
F8F9F0
F8F9F0
F8F9F0
F8F9F0
F8F9F0
F8F9F0
F8F9F0
F8F9F0
F8F9F0
F8F9F0
F8F9F0
F8F9F0
F8F9F0
F8F9F0
F8F9F0
F8F9F0
F8F9F0
F8F9F0
F8F9F0
FFFFF0
FFFFF0
FFFFF0
ENDCHAR
STARTCHAR afii10043
ENCODING 1065
SWIDTH 540 0
DWIDTH 25 0
BBX 23 31 0 -5
BITMAP
F8F9F0
F8F9F0
F8F9F0
F8F9F0
F8F9F0
F8F9F0
F8F9F0
F8F9F0
F8F9F0
F8F9F0
F8F9F0
F8F9F0
F8F9F0
F8F9F0
F8F9F0
F8F9F0
F8F9F0
F8F9F0
F8F9F0
F8F9F0
F8F9F0
F8F9F0
F8F9F0
FFFFFE
FFFFFE
FFFFFE
00003E
00003E
00003E
00003E
00003E
ENDCHAR
STARTCHAR afii10044
ENCODING 1066
SWIDTH 540 0
DWIDTH 25 0
BBX 20 26 0 0
BITMAP
FFC000
FFC000
FFC000
07C000
07C000
07C000
07C000
07C000
07C000
07C000
07FE00
07FE00
07FE00
07C7C0
07C7C0
07C7C0
07C1F0
07C1F0
07C1F0
07C1F0
07C1F0
07C7C0
07C7C0
07FE00
07FE00
07FE00
ENDCHAR
STARTCHAR afii10045
ENCODING 1067
SWIDTH 540 0
DWIDTH 25 0
BBX 20 26 0 0
BITMAP
F801F0
F801F0
F801F0
F801F0
F801F0
F801F0
F801F0
F801F0
F801F0
F801F0
FFC1F0
FFC1F0
FFC1F0
F8F9F0
F8F9F0
F8F9F0
F8F9F0
F8F9F0
F8F9F0
F8F9F0
F8F9F0
F8F9F0
F8F9F0
FFC1F0
FFC1F0
FFC1F0
ENDCHAR
STARTCHAR afii10046
ENCODING 1068
SWIDTH 540 0
DWIDTH 25 0
BBX 20 26 0 0
BITMAP
F80000
F80000
F80000
F80000
F80000
F80000
F80000
F80000
F80000
F80000
FFFE00
FFFE00
FFFE00
F807C0
F807C0
F807C0
F801F0
F801F0
F801F0
F801F0
F801F0
F807C0
F807C0
FFFE00
FFFE00
FFFE00
ENDCHAR
STARTCHAR afii10047
ENCODING 1069
SWIDTH 540 0
DWIDTH 25 0
BBX 17 26 3 0
BITMAP
3FF000
3FF000
3FF000
F83E00
F83E00
000F80
000F80
000F80
000F80
000F80
00FF80
01FF80
01FF80
000F80
000F80
000F80
000F80
000F80
000F80
000F80
000F80
F83E00
F83E00
3FF000
3FF000
3FF000
ENDCHAR
STARTCHAR afii10048
ENCODING 1070
SWIDTH 540 0
DWIDTH 25 0
BBX 20 26 0 0
BITMAP
F83FC0
F83FC0
F83FC0
F8F9F0
F8F9F0
F8F9F0
F8F9F0
F8F9F0
F8F9F0
F8F9F0
FFF9F0
FFF9F0
FFF9F0
F8F9F0
F8F9F0
F8F9F0
F8F9F0
F8F9F0
F8F9F0
F8F9F0
F8F9F0
F8F9F0
F8F9F0
F83FC0
F83FC0
F83FC0
ENDCHAR
STARTCHAR afii10049
ENCODING 1071
SWIDTH 540 0
DWIDTH 25 0
BBX 17 26 3 0
BITMAP
3FFF80
3FFF80
3FFF80
F80F80
F80F80
F80F80
F80F80
F80F80
F80F80
F80F80
F80F80
F80F80
F80F80
3FFF80
3FFF80
1FFF80
07CF80
07CF80
3E0F80
3E0F80
3E0F80
F80F80
F80F80
F80F80
F80F80
F80F80
ENDCHAR
STARTCHAR afii10065
ENCODING 1072
SWIDTH 540 0
DWIDTH 25 0
BBX 17 18 3 0
BITMAP
3FFE00
3FFE00
000F80
000F80
000F80
000F80
000F80
000F80
3FFF80
3FFF80
F80F80
F80F80
F80F80
F80F80
F80F80
3FFF80
3FFF80
3FFF80
ENDCHAR
STARTCHAR afii10066
ENCODING 1073
SWIDTH 540 0
DWIDTH 25 0
BBX 17 26 3 0
BITMAP
003E00
003E00
003E00
3FF000
3FF000
F80000
F80000
F80000
FFFE00
FFFE00
F80F80
F80F80
F80F80
F80F80
F80F80
F80F80
F80F80
F80F80
F80F80
F80F80
F80F80
F80F80
F80F80
3FFE00
3FFE00
3FFE00
ENDCHAR
STARTCHAR afii10067
ENCODING 1074
SWIDTH 540 0
DWIDTH 25 0
BBX 17 18 3 0
BITMAP
FFFE00
FFFE00
F80F80
F80F80
F80F80
F80F80
F80F80
F80F80
FFFE00
FFFE00
F80F80
F80F80
F80F80
F80F80
F80F80
FFFE00
FFFE00
FFFE00
ENDCHAR
STARTCHAR afii10068
ENCODING 1075
SWIDTH 540 0
DWIDTH 25 0
BBX 17 18 3 0
BITMAP
FFFF80
FFFF80
F80000
F80000
F80000
F80000
F80000
F80000
F80000
F80000
F80000
F80000
F80000
F80000
F80000
F80000
F80000
F80000
ENDCHAR
STARTCHAR afii10069
ENCODING 1076
SWIDTH 540 0
DWIDTH 25 0
BBX 17 20 3 -2
BITMAP
07FE00
07FE00
077E00
063E00
063E00
3E3E00
3E3E00
3E3E00
3E3E00
3E3E00
F83E00
F83E00
F83E00
F83E00
F83E00
FFFF80
FFFF80
FFFF80
C00180
C00180
ENDCHAR
STARTCHAR afii10070
ENCODING 1077
SWIDTH 540 0
DWIDTH 25 0
BBX 20 18 0 0
BITMAP
07FE00
07FE00
1F0F80
1F07C0
1F07C0
F801F0
F801F0
FC01F0
FFFFF0
FFFFF0
F80000
F80000
F80000
1F01F0
1F01F0
07FFC0
07FFC0
07FFC0
ENDCHAR
STARTCHAR afii10072
ENCODING 1078
SWIDTH 540 0
DWIDTH 25 0
BBX 20 18 0 0
BITMAP
F8F9F0
F8F9F0
F8F9F0
F8F9F0
F8F9F0
1FFFC0
1FFFC0
1FFF80
07FE00
07FE00
1FFFC0
1FFFC0
3FFFC0
F8F9F0
F8F9F0
F8F9F0
F8F9F0
F8F9F0
ENDCHAR
STARTCHAR afii10073
ENCODING 1079
SWIDTH 540 0
DWIDTH 25 0
BBX 17 18 3 0
BITMAP
3FFE00
3FFE00
F80F80
F80F80
F80F80
000F80
000F80
000F80
01FE00
01FE00
000F80
000F80
000F80
F80F80
F80F80
3FFE00
3FFE00
3FFE00
ENDCHAR
STARTCHAR afii10074
ENCODING 1080
SWIDTH 540 0
DWIDTH 25 0
BBX 17 18 3 0
BITMAP
F80F80
F80F80
F80F80
F80F80
F80F80
F83F80
F83F80
F83F80
F9CF80
F9CF80
FE0F80
FE0F80
FE0F80
F80F80
F80F80
F80F80
F80F80
F80F80
ENDCHAR
STARTCHAR afii10075
ENCODING 1081
SWIDTH 540 0
DWIDTH 25 0
BBX 17 26 3 0
BITMAP
3E3E00
3E3E00
3E3E00
07F000
07F000
000000
000000
000000
F80F80
F80F80
F80F80
F80F80
F80F80
F83F80
F83F80
F83F80
F9CF80
F9CF80
FE0F80
FE0F80
FE0F80
F80F80
F80F80
F80F80
F80F80
F80F80
ENDCHAR
STARTCHAR afii10076
ENCODING 1082
SWIDTH 540 0
DWIDTH 25 0
BBX 17 18 3 0
BITMAP
F80F80
F80F80
F83E00
F83E00
F83E00
F9F000
F9F000
F9F000
FFC000
FFC000
F9F000
F9F000
F9F800
F83E00
F83E00
F80F80
F80F80
F80F80
ENDCHAR
STARTCHAR afii10077
ENCODING 1083
SWIDTH 540 0
DWIDTH 25 0
BBX 17 18 3 0
BITMAP
01FF80
01FF80
07CF80
07CF80
07CF80
07CF80
07CF80
0F8F80
3E0F80
3E0F80
3E0F80
3E0F80
3E0F80
3E0F80
3E0F80
F80F80
F80F80
F80F80
ENDCHAR
STARTCHAR afii10078
ENCODING 1084
SWIDTH 540 0
DWIDTH 25 0
BBX 17 18 3 0
BITMAP
F80F80
F80F80
FE3F80
FE3F80
FE3F80
FFFF80
FFFF80
FFFF80
F9CF80
F9CF80
F80F80
F80F80
F80F80
F80F80
F80F80
F80F80
F80F80
F80F80
ENDCHAR
STARTCHAR afii10079
ENCODING 1085
SWIDTH 540 0
DWIDTH 25 0
BBX 17 18 3 0
BITMAP
F80F80
F80F80
F80F80
F80F80
F80F80
F80F80
F80F80
F80F80
FFFF80
FFFF80
F80F80
F80F80
F80F80
F80F80
F80F80
F80F80
F80F80
F80F80
ENDCHAR
STARTCHAR afii10080
ENCODING 1086
SWIDTH 540 0
DWIDTH 25 0
BBX 17 18 3 0
BITMAP
3FFE00
3FFE00
F80F80
F80F80
F80F80
F80F80
F80F80
F80F80
F80F80
F80F80
F80F80
F80F80
F80F80
F80F80
F80F80
3FFE00
3FFE00
3FFE00
ENDCHAR
STARTCHAR afii10081
ENCODING 1087
SWIDTH 540 0
DWIDTH 25 0
BBX 17 18 3 0
BITMAP
FFFF80
FFFF80
F80F80
F80F80
F80F80
F80F80
F80F80
F80F80
F80F80
F80F80
F80F80
F80F80
F80F80
F80F80
F80F80
F80F80
F80F80
F80F80
ENDCHAR
STARTCHAR afii10082
ENCODING 1088
SWIDTH 540 0
DWIDTH 25 0
BBX 17 25 3 -7
BITMAP
FFFE00
FFFE00
F80F80
F80F80
F80F80
F80F80
F80F80
F80F80
F80F80
F80F80
F80F80
F80F80
F80F80
F80F80
F80F80
FFFE00
FFFE00
FFFE00
F80000
F80000
F80000
F80000
F80000
F80000
F80000
ENDCHAR
STARTCHAR afii10083
ENCODING 1089
SWIDTH 540 0
DWIDTH 25 0
BBX 17 18 3 0
BITMAP
3FFE00
3FFE00
F80F80
F80F80
F80F80
F80000
F80000
F80000
F80000
F80000
F80000
F80000
F80000
F80F80
F80F80
3FFE00
3FFE00
3FFE00
ENDCHAR
STARTCHAR afii10084
ENCODING 1090
SWIDTH 540 0
DWIDTH 25 0
BBX 20 18 0 0
BITMAP
FFFFF0
FFFFF0
01F800
00F800
00F800
00F800
00F800
00F800
00F800
00F800
00F800
00F800
00F800
00F800
00F800
00F800
00F800
00F800
ENDCHAR
STARTCHAR afii10085
ENCODING 1091
SWIDTH 540 0
DWIDTH 25 0
BBX 17 25 3 -7
BITMAP
F80F80
F80F80
F80F80
F80F80
F80F80
F80F80
F80F80
F80F80
F80F80
F80F80
F80F80
F80F80
F80F80
F80F80
F80F80
3FFF80
3FFF80
3FFF80
000F80
000F80
C00F80
C00F80
C00F80
3FFE00
3FFE00
ENDCHAR
STARTCHAR afii10086
ENCODING 1092
SWIDTH 540 0
DWIDTH 25 0
BBX 20 33 0 -7
BITMAP
00F800
00F800
00F800
00F800
00F800
00F800
00F800
00F800
1FFFC0
1FFFC0
FDF9F0
F8F9F0
F8F9F0
F8F9F0
F8F9F0
F8F9F0
F8F9F0
F8F9F0
F8F9F0
F8F9F0
F8F9F0
F8F9F0
F8F9F0
3FFFC0
1FFFC0
1FFFC0
00F800
00F800
00F800
00F800
00F800
00F800
00F800
ENDCHAR
STARTCHAR afii10087
ENCODING 1093
SWIDTH 540 0
DWIDTH 25 0
BBX 20 18 0 0
BITMAP
F801F0
F801F0
3E07C0
1F07C0
1F07C0
07FE00
07FE00
03FE00
00F800
00F800
07FE00
07FE00
07FF00
1F07C0
1F07C0
F801F0
F801F0
F801F0
ENDCHAR
STARTCHAR afii10088
ENCODING 1094
SWIDTH 540 0
DWIDTH 25 0
BBX 17 23 3 -5
BITMAP
F80F80
F80F80
F80F80
F80F80
F80F80
F80F80
F80F80
F80F80
F80F80
F80F80
F80F80
F80F80
F80F80
F80F80
F80F80
FFFF80
FFFF80
FFFF80
000F80
000F80
000F80
000F80
000F80
ENDCHAR
STARTCHAR afii10089
ENCODING 1095
SWIDTH 540 0
DWIDTH 25 0
BBX 17 18 3 0
BITMAP
F80F80
F80F80
F80F80
F80F80
F80F80
F80F80
F80F80
F80F80
3FFF80
3FFF80
000F80
000F80
000F80
000F80
000F80
000F80
000F80
000F80
ENDCHAR
STARTCHAR afii10090
ENCODING 1096
SWIDTH 540 0
DWIDTH 25 0
BBX 20 18 0 0
BITMAP
F8F9F0
F8F9F0
F8F9F0
F8F9F0
F8F9F0
F8F9F0
F8F9F0
F8F9F0
F8F9F0
F8F9F0
F8F9F0
F8F9F0
F8F9F0
F8F9F0
F8F9F0
FFFFF0
FFFFF0
FFFFF0
ENDCHAR
STARTCHAR afii10091
ENCODING 1097
SWIDTH 540 0
DWIDTH 25 0
BBX 20 23 0 -5
BITMAP
F8F9F0
F8F9F0
F8F9F0
F8F9F0
F8F9F0
F8F9F0
F8F9F0
F8F9F0
F8F9F0
F8F9F0
F8F9F0
F8F9F0
F8F9F0
F8F9F0
F8F9F0
FFFFF0
FFFFF0
FFFFF0
0001F0
0001F0
0001F0
0001F0
0001F0
ENDCHAR
STARTCHAR afii10092
ENCODING 1098
SWIDTH 540 0
DWIDTH 25 0
BBX 20 18 0 0
BITMAP
FFC000
FFC000
07C000
07C000
07C000
07C000
07C000
07E000
07FFC0
07FFC0
07C1F0
07C1F0
07C1F0
07C1F0
07C1F0
07FFC0
07FFC0
07FFC0
ENDCHAR
STARTCHAR afii10093
ENCODING 1099
SWIDTH 540 0
DWIDTH 25 0
BBX 20 18 0 0
BITMAP
F801F0
F801F0
F801F0
F801F0
F801F0
F801F0
F801F0
FC01F0
FFC1F0
FFC1F0
F8F9F0
F8F9F0
F8F9F0
F8F9F0
F8F9F0
FFC1F0
FFC1F0
FFC1F0
ENDCHAR
STARTCHAR afii10094
ENCODING 1100
SWIDTH 540 0
DWIDTH 25 0
BBX 17 18 3 0
BITMAP
F80000
F80000
F80000
F80000
F80000
F80000
F80000
F80000
FFFE00
FFFE00
F80F80
F80F80
F80F80
F80F80
F80F80
FFFE00
FFFE00
FFFE00
ENDCHAR
STARTCHAR afii10095
ENCODING 1101
SWIDTH 540 0
DWIDTH 25 0
BBX 17 18 3 0
BITMAP
3FFE00
3FFE00
F80F80
F80F80
F80F80
000F80
000F80
000F80
01FF80
01FF80
000F80
000F80
000F80
F80F80
F80F80
3FFE00
3FFE00
3FFE00
ENDCHAR
STARTCHAR afii10096
ENCODING 1102
SWIDTH 540 0
DWIDTH 25 0
BBX 20 18 0 0
BITMAP
F83FC0
F83FC0
F8F9F0
F8F9F0
F8F9F0
F8F9F0
F8F9F0
FDF9F0
FFF9F0
FFF9F0
F8F9F0
F8F9F0
F8F9F0
F8F9F0
F8F9F0
F83FC0
F83FC0
F83FC0
ENDCHAR
STARTCHAR afii10097
ENCODING 1103
SWIDTH 540 0
DWIDTH 25 0
BBX 17 18 3 0
BITMAP
3FFF80
3FFF80
F80F80
F80F80
F80F80
F80F80
F80F80
F80F80
3FFF80
3FFF80
07CF80
07CF80
0FCF80
3E0F80
3E0F80
F80F80
F80F80
F80F80
ENDCHAR
STARTCHAR uni0450
ENCODING 1104
SWIDTH 540 0
DWIDTH 25 0
BBX 17 28 3 0
BITMAP
3E0000
3E0000
07C000
07C000
07C000
01F000
01F000
000000
000000
000000
3FFE00
3FFE00
F80F80
F80F80
F80F80
F80F80
F80F80
F80F80
FFFF80
FFFF80
F80000
F80000
F80000
F80F80
F80F80
3FFE00
3FFE00
3FFE00
ENDCHAR
STARTCHAR afii10071
ENCODING 1105
SWIDTH 540 0
DWIDTH 25 0
BBX 17 26 3 0
BITMAP
3E0F80
3E0F80
3E0F80
3E0F80
3E0F80
000000
000000
000000
3FFE00
3FFE00
F80F80
F80F80
F80F80
F80F80
F80F80
F80F80
FFFF80
FFFF80
F80000
F80000
F80000
F80F80
F80F80
3FFE00
3FFE00
3FFE00
ENDCHAR
STARTCHAR afii10099
ENCODING 1106
SWIDTH 540 0
DWIDTH 25 0
BBX 17 31 3 -5
BITMAP
3E0000
3E0000
3E0000
FFF000
FFF000
3E0000
3E0000
3E0000
3FFE00
3FFE00
3F0F80
3E0F80
3E0F80
3E0F80
3E0F80
3E0F80
3E0F80
3E0F80
3E0F80
3E0F80
3E0F80
3E0F80
3E0F80
3E0F80
3E0F80
3E0F80
000F80
000F80
01FE00
01FE00
01FE00
ENDCHAR
STARTCHAR afii10100
ENCODING 1107
SWIDTH 540 0
DWIDTH 25 0
BBX 17 28 3 0
BITMAP
003E00
003E00
01F000
01F000
01F000
07C000
07C000
000000
000000
000000
FFFF80
FFFF80
F80000
F80000
F80000
F80000
F80000
F80000
F80000
F80000
F80000
F80000
F80000
F80000
F80000
F80000
F80000
F80000
ENDCHAR
STARTCHAR afii10101
ENCODING 1108
SWIDTH 540 0
DWIDTH 25 0
BBX 17 18 3 0
BITMAP
3FFE00
3FFE00
F80180
F80180
F80180
F80000
F80000
F80000
FFC000
FFC000
F80000
F80000
F80000
F80180
F80180
3FFE00
3FFE00
3FFE00
ENDCHAR
STARTCHAR afii10102
ENCODING 1109
SWIDTH 540 0
DWIDTH 25 0
BBX 17 18 3 0
BITMAP
3FFE00
3FFE00
F80180
F80180
F80180
F80000
F80000
F80000
3FFE00
3FFE00
000F80
000F80
000F80
C00F80
C00F80
3FFE00
3FFE00
3FFE00
ENDCHAR
STARTCHAR afii10103
ENCODING 1110
SWIDTH 540 0
DWIDTH 25 0
BBX 15 26 3 0
BITMAP
07C0
07C0
07C0
07C0
07C0
0000
0000
0000
3FC0
3FC0
0FC0
07C0
07C0
07C0
07C0
07C0
07C0
07C0
07C0
07C0
07C0
07C0
07C0
FFFE
FFFE
FFFE
ENDCHAR
STARTCHAR afii10104
ENCODING 1111
SWIDTH 540 0
DWIDTH 25 0
BBX 15 26 3 0
BITMAP
F83E
F83E
F83E
F83E
F83E
0000
0000
0000
3FC0
3FC0
0FC0
07C0
07C0
07C0
07C0
07C0
07C0
07C0
07C0
07C0
07C0
07C0
07C0
FFFE
FFFE
FFFE
ENDCHAR
STARTCHAR afii10105
ENCODING 1112
SWIDTH 540 0
DWIDTH 25 0
BBX 15 33 3 -7
BITMAP
003E
003E
003E
003E
003E
0000
0000
0000
01FE
01FE
007E
003E
003E
003E
003E
003E
003E
003E
003E
003E
003E
003E
003E
F83E
F83E
F83E
F83E
F83E
F83E
F83E
F83E
3FF0
3FF0
ENDCHAR
STARTCHAR afii10106
ENCODING 1113
SWIDTH 540 0
DWIDTH 25 0
BBX 23 18 0 0
BITMAP
07FE00
07FE00
1F3E00
1F3E00
1F3E00
1F3E00
1F3E00
1F3F00
1F3FF0
1F3FF0
1F3E3E
1F3E3E
3F3E3E
FF3E3E
FF3E3E
F83FF8
F83FF0
F83FF0
ENDCHAR
STARTCHAR afii10107
ENCODING 1114
SWIDTH 540 0
DWIDTH 25 0
BBX 20 18 0 0
BITMAP
F8F800
F8F800
F8F800
F8F800
F8F800
F8F800
F8F800
FDF800
FFFFC0
FFFFC0
F8F9F0
F8F9F0
F8F9F0
F8F9F0
F8F9F0
F8FFC0
F8FFC0
F8FFC0
ENDCHAR
STARTCHAR afii10108
ENCODING 1115
SWIDTH 540 0
DWIDTH 25 0
BBX 17 26 3 0
BITMAP
3E0000
3E0000
3E0000
FFF000
FFF000
3E0000
3E0000
3E0000
3FFE00
3FFE00
3F0F80
3E0F80
3E0F80
3E0F80
3E0F80
3E0F80
3E0F80
3E0F80
3E0F80
3E0F80
3E0F80
3E0F80
3E0F80
3E0F80
3E0F80
3E0F80
ENDCHAR
STARTCHAR afii10109
ENCODING 1116
SWIDTH 540 0
DWIDTH 25 0
BBX 17 28 3 0
BITMAP
003E00
003E00
01F000
01F000
01F000
07C000
07C000
000000
000000
000000
F80F80
F80F80
F83E00
F83E00
F83E00
F9F000
F9F000
F9F000
FFC000
FFC000
F9F000
F9F000
F9F800
F83E00
F83E00
F80F80
F80F80
F80F80
ENDCHAR
STARTCHAR uni045D
ENCODING 1117
SWIDTH 540 0
DWIDTH 25 0
BBX 17 28 3 0
BITMAP
3E0000
3E0000
07C000
07C000
07C000
01F000
01F000
000000
000000
000000
F80F80
F80F80
F80F80
F80F80
F80F80
F83F80
F83F80
F83F80
F9CF80
F9CF80
FE0F80
FE0F80
FE0F80
F80F80
F80F80
F80F80
F80F80
F80F80
ENDCHAR
STARTCHAR afii10110
ENCODING 1118
SWIDTH 540 0
DWIDTH 25 0
BBX 17 33 3 -7
BITMAP
3E3E00
3E3E00
3E3E00
07F000
07F000
000000
000000
000000
F80F80
F80F80
F80F80
F80F80
F80F80
F80F80
F80F80
F80F80
F80F80
F80F80
F80F80
F80F80
F80F80
F80F80
F80F80
3FFF80
3FFF80
3FFF80
000F80
000F80
F00F80
F80F80
F80F80
3FFE00
3FFE00
ENDCHAR
STARTCHAR afii10193
ENCODING 1119
SWIDTH 540 0
DWIDTH 25 0
BBX 15 23 3 -5
BITMAP
F83E
F83E
F83E
F83E
F83E
F83E
F83E
F83E
F83E
F83E
F83E
F83E
F83E
F83E
F83E
FFFE
FFFE
FFFE
07C0
07C0
07C0
07C0
07C0
ENDCHAR
STARTCHAR afii10050
ENCODING 1168
SWIDTH 540 0
DWIDTH 25 0
BBX 15 31 3 0
BITMAP
003E
003E
003E
003E
003E
FFFE
FFFE
FFFE
F800
F800
F800
F800
F800
F800
F800
F800
F800
F800
F800
F800
F800
F800
F800
F800
F800
F800
F800
F800
F800
F800
F800
ENDCHAR
STARTCHAR afii10098
ENCODING 1169
SWIDTH 540 0
DWIDTH 25 0
BBX 15 23 3 0
BITMAP
003E
003E
003E
003E
003E
FFFE
FFFE
F800
F800
F800
F800
F800
F800
F800
F800
F800
F800
F800
F800
F800
F800
F800
F800
ENDCHAR
STARTCHAR afii57664
ENCODING 1488
SWIDTH 540 0
DWIDTH 25 0
BBX 20 23 0 0
BITMAP
F80600
F80600
FE07F0
FF07F0
FF07F0
1FC7F0
1FC7F0
07FFC0
07FFC0
07FFC0
FFFFC0
FFFFC0
FFFFC0
F83FC0
F83FC0
3F07F0
1F07F0
1F07F0
1FC1F0
1FC1F0
FFC1F0
FFC1F0
FFC1F0
ENDCHAR
STARTCHAR afii57665
ENCODING 1489
SWIDTH 540 0
DWIDTH 25 0
BBX 20 21 0 0
BITMAP
C00000
E00000
E00000
FFFE00
FFFE00
3FFF80
1FFFC0
1FFFC0
0007C0
0007C0
0007C0
0007C0
0007C0
0007C0
0007C0
0007C0
1FFFF0
1FFFF0
FFFFC0
FFFFC0
FFFFC0
ENDCHAR
STARTCHAR afii57666
ENCODING 1490
SWIDTH 540 0
DWIDTH 25 0
BBX 17 21 3 0
BITMAP
F00000
F80000
F80000
3FC000
3FC000
0FF000
07F000
07F000
01F000
01F000
01F000
01F000
01F000
01FE00
01FE00
01FE00
07FF80
07FF80
3FCF80
3FCF80
3FCF80
ENDCHAR
STARTCHAR afii57667
ENCODING 1491
SWIDTH 540 0
DWIDTH 25 0
BBX 20 21 0 0
BITMAP
C00000
E00000
E00000
FFFFF0
FFFFF0
3FFFF0
1FFFF0
1FFFF0
0007C0
0007C0
0007C0
0007C0
0007C0
0007C0
0007C0
0007C0
0007C0
0007C0
0007C0
0007C0
0007C0
ENDCHAR
STARTCHAR afii57668
ENCODING 1492
SWIDTH 540 0
DWIDTH 25 0
BBX 20 21 0 0
BITMAP
F80000
F80000
F80000
FFFFF0
FFFFF0
3FFFF0
1FFFF0
1FFFF0
0007C0
0007C0
0007C0
1F07C0
1F07C0
1F07C0
1F07C0
1F07C0
1F07C0
1F07C0
F807C0
F807C0
F807C0
ENDCHAR
STARTCHAR afii57669
ENCODING 1493
SWIDTH 540 0
DWIDTH 25 0
BBX 12 21 3 0
BITMAP
F000
F800
F800
FFC0
FFC0
0FF0
07F0
07F0
01F0
01F0
01F0
01F0
01F0
01F0
01F0
01F0
01F0
01F0
01F0
01F0
01F0
ENDCHAR
STARTCHAR afii57670
ENCODING 1494
SWIDTH 540 0
DWIDTH 25 0
BBX 15 21 3 0
BITMAP
F000
F800
F800
FFF0
FFF0
3FFC
3FFE
3FFE
07C0
07C0
07C0
07C0
07C0
07C0
07C0
07C0
07C0
07C0
07C0
07C0
07C0
ENDCHAR
STARTCHAR afii57671
ENCODING 1495
SWIDTH 540 0
DWIDTH 25 0
BBX 20 21 0 0
BITMAP
F80000
F80000
F80000
FFFFF0
FFFFF0
3FFFF0
1FFFF0
1FFFF0
1F07C0
1F07C0
1F07C0
1F07C0
1F07C0
1F07C0
1F07C0
1F07C0
1F07C0
1F07C0
F807C0
F807C0
F807C0
ENDCHAR
STARTCHAR afii57672
ENCODING 1496
SWIDTH 540 0
DWIDTH 25 0
BBX 20 21 0 0
BITMAP
F80000
F80000
F80000
FF01F0
FF01F0
3FC7F0
1FC7F0
1FC7F0
1F07F0
1F07F0
1F07F0
1F01F0
1F01F0
1F01F0
1F01F0
1F01F0
1FFFF0
1FFFF0
1FFFC0
1FFFC0
1FFFC0
ENDCHAR
STARTCHAR afii57673
ENCODING 1497
SWIDTH 540 0
DWIDTH 25 0
BBX 12 13 3 8
BITMAP
F000
F800
F800
FFC0
FFC0
3FF0
3FF0
3FF0
01F0
01F0
01F0
01F0
01F0
ENDCHAR
STARTCHAR afii57674
ENCODING 1498
SWIDTH 540 0
DWIDTH 25 0
BBX 20 28 0 -7
BITMAP
C00000
E00000
E00000
FFFFC0
FFFFC0
3FFFF0
1FFFF0
1FFFF0
0007C0
0007C0
000F80
003E00
003E00
003E00
003E00
003E00
003E00
003E00
003E00
003E00
003E00
003E00
003E00
003E00
003E00
003E00
003E00
003E00
ENDCHAR
STARTCHAR afii57675
ENCODING 1499
SWIDTH 540 0
DWIDTH 25 0
BBX 20 21 0 0
BITMAP
F80000
F80000
F80000
FFFFC0
FFFFC0
3FFFF0
1FFFF0
1FFFF0
0001F0
0001F0
0001F0
0001F0
0001F0
0007F0
0007F0
0007F0
1FFFC0
1FFFC0
FFFE00
FFFE00
FFFE00
ENDCHAR
STARTCHAR afii57676
ENCODING 1500
SWIDTH 540 0
DWIDTH 25 0
BBX 20 26 0 0
BITMAP
F80000
F80000
F80000
1F0000
1F0000
1F0000
1F0000
1F0000
1FFFF0
1FFFF0
07FFF0
07FFF0
07FFF0
0001F0
0001F0
0001F0
0001F0
0001F0
0007C0
0007C0
0007C0
003E00
003E00
00F800
00F800
00F800
ENDCHAR
STARTCHAR afii57677
ENCODING 1501
SWIDTH 540 0
DWIDTH 25 0
BBX 20 21 0 0
BITMAP
F80000
F80000
F80000
FFFFC0
FFFFC0
3FFFF0
1FFFF0
1FFFF0
F801F0
F801F0
F801F0
F801F0
F801F0
F801F0
F801F0
F801F0
FFFFF0
FFFFF0
FFFFF0
FFFFF0
FFFFF0
ENDCHAR
STARTCHAR afii57678
ENCODING 1502
SWIDTH 540 0
DWIDTH 25 0
BBX 20 21 0 0
BITMAP
F80000
F80000
F80000
F8FFC0
F8FFC0
3FFFF0
1FFFF0
1FFFF0
1F01F0
1F01F0
3E01F0
F801F0
F801F0
F801F0
F801F0
F801F0
F8FFF0
F8FFF0
E7FFC0
E7FFC0
C7FFC0
ENDCHAR
STARTCHAR afii57679
ENCODING 1503
SWIDTH 540 0
DWIDTH 25 0
BBX 10 30 5 -7
BITMAP
F800
F800
FF00
FF00
FF00
1FC0
1FC0
07C0
07C0
07C0
1F00
1F00
1F00
1F00
1F00
1F00
1F00
1F00
1F00
1F00
1F00
1F00
1F00
1F00
1F00
1F00
1F00
1F00
1F00
1F00
ENDCHAR
STARTCHAR afii57680
ENCODING 1504
SWIDTH 540 0
DWIDTH 25 0
BBX 10 21 5 0
BITMAP
F800
F800
F800
FF00
FF00
3FC0
1FC0
1FC0
07C0
07C0
07C0
07C0
07C0
07C0
07C0
07C0
1FC0
1FC0
FFC0
FFC0
FFC0
ENDCHAR
STARTCHAR afii57681
ENCODING 1505
SWIDTH 540 0
DWIDTH 25 0
BBX 20 21 0 0
BITMAP
F80000
F80000
F80000
FFFFC0
FFFFC0
3FFFF0
1FFFF0
1FFFF0
1F01F0
1F01F0
1F01F0
1F01F0
1F01F0
1F01F0
1F01F0
1F01F0
1FFFC0
1FFFC0
07FE00
07FE00
07FE00
ENDCHAR
STARTCHAR afii57682
ENCODING 1506
SWIDTH 540 0
DWIDTH 25 0
BBX 20 21 0 0
BITMAP
F807C0
F807C0
F807C0
FF07F0
FF07F0
3FC1F0
1FC1F0
1FC1F0
1F01F0
1F01F0
1F01F0
07C1F0
07C1F0
00F9F0
00F9F0
01F9F0
1FFFC0
1FFFC0
FFFE00
FFFE00
FFFE00
ENDCHAR
STARTCHAR afii57683
ENCODING 1507
SWIDTH 540 0
DWIDTH 25 0
BBX 20 28 0 -7
BITMAP
F80000
F80000
F80000
FFFFC0
FFFFC0
3FFFF0
1FFFF0
1FFFF0
F807C0
F807C0
FC0F80
FF3E00
FF3E00
FF3E00
FF3E00
FE3E00
003E00
003E00
003E00
003E00
003E00
003E00
003E00
003E00
003E00
003E00
003E00
003E00
ENDCHAR
STARTCHAR afii57684
ENCODING 1508
SWIDTH 540 0
DWIDTH 25 0
BBX 20 21 0 0
BITMAP
F80000
F80000
F80000
FFFFF0
FFFFF0
3FFFF0
1FFFF0
1FFFF0
1F01F0
1F01F0
1F01F0
1FC1F0
1FC1F0
0007F0
0007F0
0007F0
1FFFC0
1FFFC0
FFFE00
FFFE00
FFFE00
ENDCHAR
STARTCHAR afii57685
ENCODING 1509
SWIDTH 540 0
DWIDTH 25 0
BBX 20 28 0 -7
BITMAP
F807C0
F807C0
F807C0
FFC7F0
FFC7F0
3FC1F0
1FC1F0
1FC1F0
07C7C0
07C7C0
07EF80
07FE00
07FE00
07F800
07F800
07F800
07C000
07C000
07C000
07C000
07C000
07C000
07C000
07C000
07C000
07C000
07C000
07C000
ENDCHAR
STARTCHAR afii57686
ENCODING 1510
SWIDTH 540 0
DWIDTH 25 0
BBX 20 21 0 0
BITMAP
F807C0
F807C0
F807C0
FF07F0
FF07F0
3F07F0
1F07F0
1F07F0
07FE00
07FE00
03FE00
00F800
00F800
0007C0
0007C0
0007C0
1FFFF0
1FFFF0
FFFFC0
FFFFC0
FFFFC0
ENDCHAR
STARTCHAR afii57687
ENCODING 1511
SWIDTH 540 0
DWIDTH 25 0
BBX 20 28 0 -7
BITMAP
F80000
F80000
F80000
FFFFC0
FFFFC0
3FFFF0
1FFFF0
1FFFF0
0001F0
0001F0
0001F0
1F01F0
1F01F0
1F01F0
1F01F0
1F01F0
1F07C0
1F07C0
1F3E00
1F3E00
1F3E00
1F0000
1F0000
1F0000
1F0000
1F0000
1F0000
1F0000
ENDCHAR
STARTCHAR afii57688
ENCODING 1512
SWIDTH 540 0
DWIDTH 25 0
BBX 20 21 0 0
BITMAP
F80000
F80000
F80000
FFFFC0
FFFFC0
3FFFF0
1FFFF0
1FFFF0
0001F0
0001F0
0001F0
0001F0
0001F0
0001F0
0001F0
0001F0
0001F0
0001F0
0001F0
0001F0
0001F0
ENDCHAR
STARTCHAR afii57689
ENCODING 1513
SWIDTH 540 0
DWIDTH 25 0
BBX 20 21 0 0
BITMAP
F8F8F0
F8F9F0
F8F9F0
F8F9F0
F8F9F0
F8F9F0
F8F9F0
F8F9F0
F8F9F0
F8F9F0
F8F9F0
F8F9F0
F8F9F0
E7C1F0
E7C1F0
E7C1F0
FFFFC0
FFFFC0
3FFE00
1FFE00
1FFE00
ENDCHAR
STARTCHAR afii57690
ENCODING 1514
SWIDTH 540 0
DWIDTH 25 0
BBX 20 21 0 0
BITMAP
F80000
F80000
F80000
FFFFC0
FFFFC0
3FFFF0
1FFFF0
1FFFF0
07C1F0
07C1F0
07C1F0
1F01F0
1F01F0
1F01F0
1F01F0
1F01F0
1F01F0
1F01F0
FF01F0
FF01F0
FF01F0
ENDCHAR
STARTCHAR uni0E01
ENCODING 3585
SWIDTH 540 0
DWIDTH 25 0
BBX 20 18 0 0
BITMAP
1FFFC0
1FFFC0
FC01F0
F801F0
F801F0
FF01F0
FF01F0
FF01F0
1F01F0
1F01F0
1F01F0
1F01F0
1F01F0
1F01F0
1F01F0
1F01F0
1F01F0
1F01F0
ENDCHAR
STARTCHAR uni0E02
ENCODING 3586
SWIDTH 540 0
DWIDTH 25 0
BBX 20 18 0 0
BITMAP
1FC1F0
1FC1F0
FDF1F0
F8F9F0
F8F9F0
E7F9F0
E7F9F0
E7F9F0
18F9F0
18F9F0
00F9F0
00F9F0
00F9F0
00F9F0
00F9F0
003FC0
003FC0
003FC0
ENDCHAR
STARTCHAR uni0E03
ENCODING 3587
SWIDTH 540 0
DWIDTH 25 0
BBX 20 18 0 0
BITMAP
E7C1F0
E7C1F0
F9F1F0
F8F9F0
F8F9F0
E0F9F0
E0F9F0
E0F9F0
18F9F0
18F9F0
00F9F0
00F9F0
00F9F0
00F9F0
00F9F0
003FC0
003FC0
003FC0
ENDCHAR
STARTCHAR uni0E04
ENCODING 3588
SWIDTH 540 0
DWIDTH 25 0
BBX 20 18 0 0
BITMAP
1FFFC0
1FFFC0
FC01F0
F801F0
F801F0
F8C1F0
F8C1F0
FCC1F0
FF39F0
FF39F0
38C1F0
18C1F0
38C1F0
F801F0
F801F0
F801F0
F801F0
F801F0
ENDCHAR
STARTCHAR uni0E05
ENCODING 3589
SWIDTH 540 0
DWIDTH 25 0
BBX 20 18 0 0
BITMAP
1F3FC0
1F3FC0
FCC1F0
F8C1F0
F8C1F0
F8C1F0
F8C1F0
FCC1F0
FF39F0
FF39F0
38C1F0
18C1F0
38C1F0
F801F0
F801F0
F801F0
F801F0
F801F0
ENDCHAR
STARTCHAR uni0E06
ENCODING 3590
SWIDTH 540 0
DWIDTH 25 0
BBX 20 18 0 0
BITMAP
E7C1F0
E7C1F0
FFC1F0
FFC1F0
FFC1F0
E7C1F0
E7C1F0
C7C1F0
07C1F0
07C1F0
1FC1F0
1FC1F0
1FC1F0
E7F9F0
E7F9F0
1F07C0
1F07C0
1F07C0
ENDCHAR
STARTCHAR uni0E07
ENCODING 3591
SWIDTH 540 0
DWIDTH 25 0
BBX 17 18 3 0
BITMAP
003E00
003E00
00CF80
01CF80
01CF80
003F80
003F80
003F80
F80F80
F80F80
3E0F80
3E0F80
3E0F80
07CF80
07CF80
01FE00
01FE00
01FE00
ENDCHAR
STARTCHAR uni0E08
ENCODING 3592
SWIDTH 540 0
DWIDTH 25 0
BBX 20 18 0 0
BITMAP
1FFFC0
1FFFC0
E001F0
E001F0
E001F0
07C1F0
07C1F0
07E1F0
18F9F0
18F9F0
07F9F0
07F9F0
07F9F0
00F9F0
00F9F0
003FC0
003FC0
003FC0
ENDCHAR
STARTCHAR uni0E09
ENCODING 3593
SWIDTH 540 0
DWIDTH 25 0
BBX 20 18 0 0
BITMAP
1FFE00
1FFE00
E00F80
E007C0
E007C0
1F07C0
1F07C0
1F07C0
E7C7C0
E7C7C0
1FC7C0
1FC7C0
1FC7C0
07FE30
07FE30
07C1C0
07C1C0
07C1C0
ENDCHAR
STARTCHAR uni0E0A
ENCODING 3594
SWIDTH 540 0
DWIDTH 25 0
BBX 20 21 0 0
BITMAP
0000F0
0001F0
0001F0
1FC1F0
1FC1F0
FDFFC0
F8FFC0
F8FFC0
E7F9F0
E7F9F0
E7F9F0
18F9F0
18F9F0
00F9F0
00F9F0
00F9F0
00F9F0
00F9F0
003FC0
003FC0
003FC0
ENDCHAR
STARTCHAR uni0E0B
ENCODING 3595
SWIDTH 540 0
DWIDTH 25 0
BBX 20 21 0 0
BITMAP
0000F0
0001F0
0001F0
E7C1F0
E7C1F0
F9FFC0
F8FFC0
F8FFC0
E0F9F0
E0F9F0
E0F9F0
18F9F0
18F9F0
00F9F0
00F9F0
00F9F0
00F9F0
00F9F0
003FC0
003FC0
003FC0
ENDCHAR
STARTCHAR uni0E0C
ENCODING 3596
SWIDTH 540 0
DWIDTH 25 0
BBX 20 18 0 0
BITMAP
1FC1F0
1FC1F0
FDF1F0
F8F9F0
F8F9F0
1FF9F0
1FF9F0
3FF9F0
F8F9F0
F8F9F0
F8F9F0
F8F9F0
F8F9F0
E73FF0
E73FF0
18F9F0
18F9F0
18F9F0
ENDCHAR
STARTCHAR uni0E0D
ENCODING 3597
SWIDTH 540 0
DWIDTH 25 0
BBX 20 23 0 -5
BITMAP
1FC1F0
1FC1F0
FDF1F0
F8F9F0
F8F9F0
1FF9F0
1FF9F0
3FF9F0
F8F9F0
F8F9F0
F8F9F0
F8F9F0
F9F9F0
E7F9F0
E7F9F0
183FC0
183FC0
183FC0
003830
003830
003FC0
003FC0
003FC0
ENDCHAR
STARTCHAR uni0E0E
ENCODING 3598
SWIDTH 540 0
DWIDTH 25 0
BBX 23 25 0 -7
BITMAP
07FFF0
07FFF0
1F007E
1F003E
1F003E
1FC03E
1FC03E
1FC03E
07C03E
07C03E
1FC03E
1FC03E
1FC03E
E7C03E
E7C03E
1F383E
1F383E
1F383E
07FE3E
07FE3E
1839FE
1839FE
1839FE
07C000
07C000
ENDCHAR
STARTCHAR uni0E0F
ENCODING 3599
SWIDTH 540 0
DWIDTH 25 0
BBX 23 25 0 -7
BITMAP
07FFF0
07FFF0
1F007E
1F003E
1F003E
1FC03E
1FC03E
1FC03E
07C03E
07C03E
1FC03E
1FC03E
1FC03E
E7C03E
E7C03E
18C03E
18C03E
18C03E
07C63E
07C63E
19F9FE
18F9FE
18F9FE
070000
070000
ENDCHAR
STARTCHAR uni0E10
ENCODING 3600
SWIDTH 540 0
DWIDTH 25 0
BBX 20 25 0 -7
BITMAP
1FFE30
1FFE30
FC01C0
F801C0
F801C0
FFFFC0
FFFFC0
FFFFC0
07C1F0
07C1F0
18F9F0
18F9F0
19F9F0
07F9F0
07F9F0
003FC0
003FC0
003FC0
1F07F0
1F07F0
E739F0
E739F0
E739F0
18C7F0
18C7F0
ENDCHAR
STARTCHAR uni0E11
ENCODING 3601
SWIDTH 540 0
DWIDTH 25 0
BBX 23 18 0 0
BITMAP
E7C1F0
E7C1F0
FFC67E
FFC63E
FFC63E
E7C63E
E7C63E
C7E63E
07F83E
07F83E
07F83E
07F83E
07F83E
07C03E
07C03E
07C03E
07C03E
07C03E
ENDCHAR
STARTCHAR uni0E12
ENCODING 3602
SWIDTH 540 0
DWIDTH 25 0
BBX 20 18 0 0
BITMAP
18C1F0
18C1F0
E731F0
E739F0
E739F0
E039F0
E039F0
E039F0
FF39F0
FF39F0
E739F0
E739F0
E739F0
F8FFF0
F8FFF0
E0F9F0
E0F9F0
C0F9F0
ENDCHAR
STARTCHAR uni0E13
ENCODING 3603
SWIDTH 540 0
DWIDTH 25 0
BBX 20 18 0 0
BITMAP
1F07C0
1F07C0
FCC7C0
F8C7C0
F8C7C0
1FC7C0
1FC7C0
3FC7C0
F8C7C0
F8C7C0
F8C7C0
F8C7C0
F9C7C0
E7C630
E7C630
18F9C0
18F9C0
18F9C0
ENDCHAR
STARTCHAR uni0E14
ENCODING 3604
SWIDTH 540 0
DWIDTH 25 0
BBX 20 18 0 0
BITMAP
1FFFC0
1FFFC0
FC01F0
F801F0
F801F0
F8C1F0
F8C1F0
FCC1F0
FF39F0
FF39F0
F8C1F0
F8C1F0
F8C1F0
FF01F0
FF01F0
3801F0
1801F0
1801F0
ENDCHAR
STARTCHAR uni0E15
ENCODING 3605
SWIDTH 540 0
DWIDTH 25 0
BBX 20 18 0 0
BITMAP
1F3FC0
1F3FC0
FCC1F0
F8C1F0
F8C1F0
F8C1F0
F8C1F0
FCC1F0
FF39F0
FF39F0
F8C1F0
F8C1F0
F8C1F0
FF01F0
FF01F0
3801F0
1801F0
1801F0
ENDCHAR
STARTCHAR uni0E16
ENCODING 3606
SWIDTH 540 0
DWIDTH 25 0
BBX 20 18 0 0
BITMAP
1FFFC0
1FFFC0
FC01F0
F801F0
F801F0
FF01F0
FF01F0
FF01F0
1F01F0
1F01F0
1F01F0
1F01F0
1F01F0
18C1F0
18C1F0
0701F0
0701F0
0701F0
ENDCHAR
STARTCHAR uni0E17
ENCODING 3607
SWIDTH 540 0
DWIDTH 25 0
BBX 23 18 0 0
BITMAP
1F01F0
1F01F0
E7C67E
E7C63E
E7C63E
1FC63E
1FC63E
1FE63E
07F83E
07F83E
07F83E
07F83E
07F83E
07C03E
07C03E
07C03E
07C03E
07C03E
ENDCHAR
STARTCHAR uni0E18
ENCODING 3608
SWIDTH 540 0
DWIDTH 25 0
BBX 20 18 0 0
BITMAP
1FFE30
1FFE30
FC01C0
F801C0
F801C0
FFFFC0
FFFFC0
FFFFC0
1F01F0
1F01F0
1F01F0
1F01F0
1F01F0
1F01F0
1F01F0
07FFC0
07FFC0
07FFC0
ENDCHAR
STARTCHAR uni0E19
ENCODING 3609
SWIDTH 540 0
DWIDTH 25 0
BBX 23 18 0 0
BITMAP
1F01F0
1F01F0
E7C1F0
E7C1F0
E7C1F0
1FC1F0
1FC1F0
1FC1F0
07C1F0
07C1F0
07C7F0
07C7F0
07C7F0
07F9CE
07F9CE
07C030
07C030
07C030
ENDCHAR
STARTCHAR uni0E1A
ENCODING 3610
SWIDTH 540 0
DWIDTH 25 0
BBX 23 18 0 0
BITMAP
1F003E
1F003E
E7C03E
E7C03E
E7C03E
1FC03E
1FC03E
1FC03E
07C03E
07C03E
07C03E
07C03E
07C03E
07C03E
07C03E
00FFF8
00FFF0
00FFF0
ENDCHAR
STARTCHAR uni0E1B
ENCODING 3611
SWIDTH 540 0
DWIDTH 25 0
BBX 23 23 0 0
BITMAP
00003E
00003E
00003E
00003E
00003E
1F003E
1F003E
E7C03E
E7C03E
E7C03E
1FC03E
1FC03E
1FC03E
07C03E
07C03E
07C03E
07C03E
07C03E
07C03E
07C03E
00FFF8
00FFF0
00FFF0
ENDCHAR
STARTCHAR uni0E1C
ENCODING 3612
SWIDTH 540 0
DWIDTH 25 0
BBX 20 18 0 0
BITMAP
1801F0
1801F0
E601F0
E701F0
E701F0
F801F0
F801F0
F801F0
F801F0
F801F0
F8F9F0
F8F9F0
F8F9F0
F8F9F0
F8F9F0
3F07C0
1F07C0
1F07C0
ENDCHAR
STARTCHAR uni0E1D
ENCODING 3613
SWIDTH 540 0
DWIDTH 25 0
BBX 20 23 0 0
BITMAP
0001F0
0001F0
0001F0
0001F0
0001F0
1801F0
1801F0
E601F0
E701F0
E701F0
F801F0
F801F0
F801F0
F801F0
F801F0
F8F9F0
F8F9F0
F8F9F0
F8F9F0
F8F9F0
3F07C0
1F07C0
1F07C0
ENDCHAR
STARTCHAR uni0E1E
ENCODING 3614
SWIDTH 540 0
DWIDTH 25 0
BBX 23 18 0 0
BITMAP
1F003E
1F003E
E7C03E
E7C03E
E7C03E
1FC63E
1FC63E
1FC63E
07C63E
07C63E
07F9FE
07F9FE
07F9FE
07F9FE
07F9FE
07C03E
07C03E
07C03E
ENDCHAR
STARTCHAR uni0E1F
ENCODING 3615
SWIDTH 540 0
DWIDTH 25 0
BBX 23 23 0 0
BITMAP
00003E
00003E
00003E
00003E
00003E
1F003E
1F003E
E7C03E
E7C03E
E7C03E
1FC63E
1FC63E
1FC63E
07C63E
07C63E
07F9FE
07F9FE
07F9FE
07F9FE
07F9FE
07C03E
07C03E
07C03E
ENDCHAR
STARTCHAR uni0E20
ENCODING 3616
SWIDTH 540 0
DWIDTH 25 0
BBX 23 18 0 0
BITMAP
07FFF0
07FFF0
1F007E
1F003E
1F003E
1FC03E
1FC03E
1FC03E
07C03E
07C03E
1FC03E
1FC03E
1FC03E
E7C03E
E7C03E
1F003E
1F003E
1F003E
ENDCHAR
STARTCHAR uni0E21
ENCODING 3617
SWIDTH 540 0
DWIDTH 25 0
BBX 20 18 0 0
BITMAP
1F01F0
1F01F0
E7C1F0
E7C1F0
E7C1F0
1FC1F0
1FC1F0
1FC1F0
07C1F0
07C1F0
1FC1F0
1FC1F0
1FC1F0
E7F9F0
E7F9F0
1F07C0
1F07C0
1F07C0
ENDCHAR
STARTCHAR uni0E22
ENCODING 3618
SWIDTH 540 0
DWIDTH 25 0
BBX 20 18 0 0
BITMAP
1F01F0
1F01F0
FCC1F0
F8C1F0
F8C1F0
FF01F0
FF01F0
FF01F0
1FC1F0
1FC1F0
F801F0
F801F0
F801F0
F801F0
F801F0
3FFFC0
1FFFC0
1FFFC0
ENDCHAR
STARTCHAR uni0E23
ENCODING 3619
SWIDTH 540 0
DWIDTH 25 0
BBX 20 18 0 0
BITMAP
1FFE30
1FFE30
FC01C0
F801C0
F801C0
FFFE00
FFFE00
FFFF00
0007C0
0007C0
003FC0
003FC0
003FC0
00C7C0
00C7C0
003E00
003E00
003E00
ENDCHAR
STARTCHAR uni0E24
ENCODING 3620
SWIDTH 540 0
DWIDTH 25 0
BBX 20 23 0 -5
BITMAP
1FFFC0
1FFFC0
FC01F0
F801F0
F801F0
FF01F0
FF01F0
FF01F0
1F01F0
1F01F0
1F01F0
1F01F0
1F01F0
18C1F0
18C1F0
0701F0
0701F0
0701F0
0001F0
0001F0
0001F0
0001F0
0001F0
ENDCHAR
STARTCHAR uni0E25
ENCODING 3621
SWIDTH 540 0
DWIDTH 25 0
BBX 20 18 0 0
BITMAP
1FFFC0
1FFFC0
E001F0
E001F0
E001F0
1FC1F0
1FC1F0
3FE1F0
F8F9F0
F8F9F0
F83FF0
F83FF0
F83FF0
E707F0
E707F0
1801F0
1801F0
1801F0
ENDCHAR
STARTCHAR uni0E26
ENCODING 3622
SWIDTH 540 0
DWIDTH 25 0
BBX 23 23 0 -5
BITMAP
07FFF0
07FFF0
1F007E
1F003E
1F003E
1FC03E
1FC03E
1FC03E
07C03E
07C03E
1FC03E
1FC03E
1FC03E
E7C03E
E7C03E
1F003E
1F003E
1F003E
00003E
00003E
00003E
00003E
00003E
ENDCHAR
STARTCHAR uni0E27
ENCODING 3623
SWIDTH 540 0
DWIDTH 25 0
BBX 20 18 0 0
BITMAP
1FFFC0
1FFFC0
E001F0
E001F0
E001F0
0001F0
0001F0
0001F0
0001F0
0001F0
0007F0
0007F0
0007F0
0039F0
0039F0
0007C0
0007C0
0007C0
ENDCHAR
STARTCHAR uni0E28
ENCODING 3624
SWIDTH 540 0
DWIDTH 25 0
BBX 20 21 0 0
BITMAP
0000F0
0001F0
0001F0
1FFFC0
1FFFC0
FC01F0
F801F0
F801F0
F8C1F0
F8C1F0
FCC1F0
FF39F0
FF39F0
38C1F0
18C1F0
38C1F0
F801F0
F801F0
F801F0
F801F0
F801F0
ENDCHAR
STARTCHAR uni0E29
ENCODING 3625
SWIDTH 540 0
DWIDTH 25 0
BBX 23 18 0 0
BITMAP
1F003E
1F003E
E7C63E
E7C63E
E7C63E
1FF9FE
1FF9FE
1FF9FE
07C7FE
07C7FE
07C03E
07C03E
07C03E
07C03E
07C03E
00FFF8
00FFF0
00FFF0
ENDCHAR
STARTCHAR uni0E2A
ENCODING 3626
SWIDTH 540 0
DWIDTH 25 0
BBX 20 21 0 0
BITMAP
0000F0
0001F0
0001F0
1FFFC0
1FFFC0
E001F0
E001F0
E001F0
1FC1F0
1FC1F0
3FE1F0
F8F9F0
F8F9F0
F83FF0
F83FF0
F83FF0
E707F0
E707F0
1801F0
1801F0
1801F0
ENDCHAR
STARTCHAR uni0E2B
ENCODING 3627
SWIDTH 540 0
DWIDTH 25 0
BBX 23 18 0 0
BITMAP
1F0030
1F0030
E7C0CE
E7C1CE
E7C1CE
1FC1F0
1FC1F0
1FC1F8
07C63E
07C63E
07F83E
07F83E
07F83E
07C03E
07C03E
07C03E
07C03E
07C03E
ENDCHAR
STARTCHAR uni0E2C
ENCODING 3628
SWIDTH 540 0
DWIDTH 25 0
BBX 23 21 0 0
BITMAP
00003E
00003E
00003E
1F07F0
1F07F0
E7C07E
E7C03E
E7C03E
1FC63E
1FC63E
1FC63E
07C63E
07C63E
07F9FE
07F9FE
07F9FE
07F9FE
07F9FE
07C03E
07C03E
07C03E
ENDCHAR
STARTCHAR uni0E2D
ENCODING 3629
SWIDTH 540 0
DWIDTH 25 0
BBX 20 18 0 0
BITMAP
1FFFC0
1FFFC0
E001F0
E001F0
E001F0
1801F0
1801F0
1801F0
E701F0
E701F0
F801F0
F801F0
F801F0
F801F0
F801F0
3FFFC0
1FFFC0
1FFFC0
ENDCHAR
STARTCHAR uni0E2E
ENCODING 3630
SWIDTH 540 0
DWIDTH 25 0
BBX 20 21 0 0
BITMAP
0000F0
0001F0
0001F0
1FFFF0
1FFFF0
FC0FC0
F807C0
F807C0
1FF9F0
1FF9F0
1FF1F0
1801F0
1801F0
E701F0
E701F0
E601F0
F801F0
F801F0
3FFFC0
1FFFC0
1FFFC0
ENDCHAR
STARTCHAR uni0E2F
ENCODING 3631
SWIDTH 540 0
DWIDTH 25 0
BBX 20 18 0 0
BITMAP
1807F0
1807F0
E619F0
E739F0
E739F0
1FC1F0
1FC1F0
1FC1F0
0001F0
0001F0
0001F0
0001F0
0001F0
0001F0
0001F0
0001F0
0001F0
0001F0
ENDCHAR
STARTCHAR uni0E30
ENCODING 3632
SWIDTH 540 0
DWIDTH 25 0
BBX 20 18 0 0
BITMAP
1801F0
1801F0
E607C0
E707C0
E707C0
1FFE00
1FFE00
1FFE00
000000
000000
1801F0
1801F0
1801F0
E707C0
E707C0
1FFE00
1FFE00
1FFE00
ENDCHAR
STARTCHAR uni0E31
ENCODING 3633
SWIDTH 540 0
DWIDTH 25 0
BBX 17 7 3 21
BITMAP
380F80
380F80
C63E00
C63E00
C63E00
3FF000
3FF000
ENDCHAR
STARTCHAR uni0E32
ENCODING 3634
SWIDTH 540 0
DWIDTH 25 0
BBX 20 18 0 0
BITMAP
1FFFC0
1FFFC0
E001F0
E001F0
E001F0
0001F0
0001F0
0001F0
0001F0
0001F0
0001F0
0001F0
0001F0
0001F0
0001F0
0001F0
0001F0
0001F0
ENDCHAR
STARTCHAR uni0E33
ENCODING 3635
SWIDTH 540 0
DWIDTH 25 0
BBX 23 23 0 0
BITMAP
180000
180000
E60000
E70000
E70000
183FF0
183FF0
00C07E
00C03E
00C03E
00003E
00003E
00003E
00003E
00003E
00003E
00003E
00003E
00003E
00003E
00003E
00003E
00003E
ENDCHAR
STARTCHAR uni0E34
ENCODING 3636
SWIDTH 540 0
DWIDTH 25 0
BBX 20 7 0 21
BITMAP
1FFE00
1FFE00
F807C0
F807C0
F807C0
FFFFF0
FFFFF0
ENDCHAR
STARTCHAR uni0E35
ENCODING 3637
SWIDTH 540 0
DWIDTH 25 0
BBX 20 7 0 21
BITMAP
1FF9F0
1FF9F0
F807F0
F807F0
F807F0
FFFFF0
FFFFF0
ENDCHAR
STARTCHAR uni0E36
ENCODING 3638
SWIDTH 540 0
DWIDTH 25 0
BBX 20 7 0 21
BITMAP
1FC1C0
1FC1C0
F83E30
F83E30
F83E30
FFFFC0
FFFFC0
ENDCHAR
STARTCHAR uni0E37
ENCODING 3639
SWIDTH 540 0
DWIDTH 25 0
BBX 20 7 0 21
BITMAP
1FC630
1FC630
F83E30
F83E30
F83E30
FFFFF0
FFFFF0
ENDCHAR
STARTCHAR uni0E38
ENCODING 3640
SWIDTH 540 0
DWIDTH 25 0
BBX 10 8 10 -10
BITMAP
1F00
1F00
1F00
E7C0
E7C0
1FC0
1FC0
1FC0
ENDCHAR
STARTCHAR uni0E39
ENCODING 3641
SWIDTH 540 0
DWIDTH 25 0
BBX 15 8 5 -10
BITMAP
FF1E
FF3E
FF3E
E73E
E73E
1FFE
1FFE
1FFE
ENDCHAR
STARTCHAR uni0E3A
ENCODING 3642
SWIDTH 540 0
DWIDTH 25 0
BBX 7 5 13 -7
BITMAP
FE
FE
FE
FE
FE
ENDCHAR
STARTCHAR uni0E3F
ENCODING 3647
SWIDTH 540 0
DWIDTH 25 0
BBX 20 26 0 0
BITMAP
00F800
00F800
00F800
FFFFC0
FFFFC0
F9F9F0
F8F9F0
F8F9F0
F8F9F0
F8F9F0
FFFFC0
FFFFC0
FFFFC0
F8F9F0
F8F9F0
F8F9F0
F8F9F0
F8F9F0
F8F9F0
F8F9F0
F9F9F0
FFFFC0
FFFFC0
00F800
00F800
00F800
ENDCHAR
STARTCHAR uni0E40
ENCODING 3648
SWIDTH 540 0
DWIDTH 25 0
BBX 7 18 8 0
BITMAP
F8
F8
F8
F8
F8
F8
F8
F8
F8
F8
F8
F8
F8
C6
C6
38
38
38
ENDCHAR
STARTCHAR uni0E41
ENCODING 3649
SWIDTH 540 0
DWIDTH 25 0
BBX 17 18 3 0
BITMAP
F83E00
F83E00
F83E00
F83E00
F83E00
F83E00
F83E00
F83E00
F83E00
F83E00
F83E00
F83E00
F83E00
C63180
C63180
380E00
380E00
380E00
ENDCHAR
STARTCHAR uni0E42
ENCODING 3650
SWIDTH 540 0
DWIDTH 25 0
BBX 20 23 0 0
BITMAP
1FFE30
1FFE30
F801C0
F801C0
F801C0
FFF800
FFF800
003E00
003E00
003E00
003E00
003E00
003E00
003E00
003E00
003E00
003E00
003E00
0039C0
0039C0
000600
000600
000600
ENDCHAR
STARTCHAR uni0E43
ENCODING 3651
SWIDTH 540 0
DWIDTH 25 0
BBX 17 26 3 0
BITMAP
3FF000
3FF000
3FF000
F83E00
F83E00
C63E00
C63E00
C63E00
383E00
383E00
003E00
003E00
003E00
003E00
003E00
003E00
003E00
003E00
003E00
003E00
003E00
003180
003180
000E00
000E00
000E00
ENDCHAR
STARTCHAR uni0E44
ENCODING 3652
SWIDTH 540 0
DWIDTH 25 0
BBX 20 23 0 0
BITMAP
E03FC0
E03FC0
18C7C0
18C7C0
18C7C0
0707C0
0707C0
0007C0
0007C0
0007C0
0007C0
0007C0
0007C0
0007C0
0007C0
0007C0
0007C0
0007C0
000630
000630
0001C0
0001C0
0001C0
ENDCHAR
STARTCHAR uni0E45
ENCODING 3653
SWIDTH 540 0
DWIDTH 25 0
BBX 20 23 0 -5
BITMAP
1FFFC0
1FFFC0
E001F0
E001F0
E001F0
0001F0
0001F0
0001F0
0001F0
0001F0
0001F0
0001F0
0001F0
0001F0
0001F0
0001F0
0001F0
0001F0
0001F0
0001F0
0001F0
0001F0
0001F0
ENDCHAR
STARTCHAR uni0E46
ENCODING 3654
SWIDTH 540 0
DWIDTH 25 0
BBX 20 25 0 -7
BITMAP
1F3FC0
1F3FC0
FCC1F0
F8C1F0
F8C1F0
F801F0
F801F0
F801F0
E701F0
E701F0
1801F0
1801F0
1801F0
0001F0
0001F0
0001F0
0001F0
0001F0
0001F0
0001F0
0001F0
0001F0
0001F0
0007C0
0007C0
ENDCHAR
STARTCHAR uni0E47
ENCODING 3655
SWIDTH 540 0
DWIDTH 25 0
BBX 17 10 3 21
BITMAP
000180
000180
000180
3FFE00
3FFE00
F9CF80
F9CF80
F9CF80
3E3E00
3E3E00
ENDCHAR
STARTCHAR uni0E48
ENCODING 3656
SWIDTH 540 0
DWIDTH 25 0
BBX 5 5 15 31
BITMAP
F8
F8
F8
F8
F8
ENDCHAR
STARTCHAR uni0E49
ENCODING 3657
SWIDTH 540 0
DWIDTH 25 0
BBX 17 5 3 31
BITMAP
FE0F80
FE0F80
FF0F80
3FFE00
3FFE00
ENDCHAR
STARTCHAR uni0E4A
ENCODING 3658
SWIDTH 540 0
DWIDTH 25 0
BBX 17 5 3 31
BITMAP
F9F180
F9F180
F9F980
C63E00
C63E00
ENDCHAR
STARTCHAR uni0E4B
ENCODING 3659
SWIDTH 540 0
DWIDTH 25 0
BBX 10 8 10 28
BITMAP
1F00
1F00
3F00
FFC0
FFC0
1F00
1F00
1F00
ENDCHAR
STARTCHAR uni0E4C
ENCODING 3660
SWIDTH 540 0
DWIDTH 25 0
BBX 15 5 5 31
BITMAP
FFC6
FFC6
FFE6
F8F8
F8F8
ENDCHAR
STARTCHAR uni0E4D
ENCODING 3661
SWIDTH 540 0
DWIDTH 25 0
BBX 7 7 8 21
BITMAP
38
38
C6
C6
C6
38
38
ENDCHAR
STARTCHAR uni0E4E
ENCODING 3662
SWIDTH 540 0
DWIDTH 25 0
BBX 12 12 8 21
BITMAP
01F0
01F0
07C0
07C0
07C0
3FC0
3FC0
F800
F800
F800
3FC0
3FC0
ENDCHAR
STARTCHAR uni0E4F
ENCODING 3663
SWIDTH 540 0
DWIDTH 25 0
BBX 17 18 3 0
BITMAP
07F000
07F000
180C00
380E00
380E00
C1C180
C1C180
C1C180
C63180
C63180
C1C180
C1C180
C1C180
380E00
380E00
07F000
07F000
07F000
ENDCHAR
STARTCHAR uni0E50
ENCODING 3664
SWIDTH 540 0
DWIDTH 25 0
BBX 20 18 0 0
BITMAP
07FE00
07FE00
1F0F80
1F07C0
1F07C0
F801F0
F801F0
F801F0
F801F0
F801F0
F801F0
F801F0
F801F0
1F07C0
1F07C0
07FE00
07FE00
07FE00
ENDCHAR
STARTCHAR uni0E51
ENCODING 3665
SWIDTH 540 0
DWIDTH 25 0
BBX 20 18 0 0
BITMAP
07FE00
07FE00
1F0F80
1F07C0
1F07C0
F8C1F0
F8C1F0
FCC1F0
FF39F0
FF39F0
3FC1F0
1FC1F0
1FC1F0
0007C0
0007C0
07FE00
07FE00
07FE00
ENDCHAR
STARTCHAR uni0E52
ENCODING 3666
SWIDTH 540 0
DWIDTH 25 0
BBX 23 21 0 0
BITMAP
F80000
F80000
F80000
1F39F0
1F39F0
1FC67E
1FC63E
1FC63E
1FF83E
1FF83E
1FF83E
1FC63E
1FC63E
1F383E
1F383E
1F383E
1F003E
1F003E
07FFF8
07FFF0
07FFF0
ENDCHAR
STARTCHAR uni0E53
ENCODING 3667
SWIDTH 540 0
DWIDTH 25 0
BBX 20 18 0 0
BITMAP
1F3FC0
1F3FC0
FCC1F0
F8C1F0
F8C1F0
F8C1F0
F8C1F0
F8C1F0
F8C1F0
F8C1F0
F801F0
F801F0
F801F0
E701F0
E701F0
1801F0
1801F0
1801F0
ENDCHAR
STARTCHAR uni0E54
ENCODING 3668
SWIDTH 540 0
DWIDTH 25 0
BBX 20 21 0 0
BITMAP
000030
000030
000030
07FFC0
07FFC0
1F0000
1F0000
1F0000
F80600
F80600
F80600
F839C0
F839C0
F83E00
F83E00
F83F00
1F07C0
1F07C0
07FFF0
07FFF0
07FFF0
ENDCHAR
STARTCHAR uni0E55
ENCODING 3669
SWIDTH 540 0
DWIDTH 25 0
BBX 20 23 0 0
BITMAP
003800
003800
00C630
00C630
00C630
07FFC0
07FFC0
1F0000
1F0000
1F0000
F80600
F80600
F80600
F839C0
F839C0
F83E00
F83E00
F83F00
1F07C0
1F07C0
07FFF0
07FFF0
07FFF0
ENDCHAR
STARTCHAR uni0E56
ENCODING 3670
SWIDTH 540 0
DWIDTH 25 0
BBX 23 21 0 0
BITMAP
C00000
E00000
E00000
18FFC0
18FFC0
0701F0
0701F0
0701F0
00003E
00003E
00003E
00003E
00003E
00C03E
00C03E
00C03E
0739F0
0739F0
00FFC0
00FFC0
00FFC0
ENDCHAR
STARTCHAR uni0E57
ENCODING 3671
SWIDTH 540 0
DWIDTH 25 0
BBX 23 23 0 0
BITMAP
00003E
00003E
00003E
00003E
00003E
1F383E
1F383E
FCC63E
F8C63E
F8C63E
F8C63E
F8C63E
F8C63E
F8C63E
F8C63E
F8063E
F8063E
F8063E
E7063E
E7063E
1807F8
1807F0
1807F0
ENDCHAR
STARTCHAR uni0E58
ENCODING 3672
SWIDTH 540 0
DWIDTH 25 0
BBX 20 21 0 0
BITMAP
000030
000030
000030
07FFC0
07FFC0
1F0000
1F0000
1F0000
F807C0
F807C0
F807C0
F839F0
F839F0
F807F0
F807F0
F807F0
1FC1F0
1FC1F0
073FC0
073FC0
073FC0
ENDCHAR
STARTCHAR uni0E59
ENCODING 3673
SWIDTH 540 0
DWIDTH 25 0
BBX 20 21 0 0
BITMAP
000030
000030
000030
0007F0
0007F0
1E19C0
1F39C0
1F39C0
F8F800
F8F800
F8F800
F83E00
F83E00
FF3E00
FF3E00
FF3F00
18C7C0
18C7C0
0707C0
0707C0
0707C0
ENDCHAR
STARTCHAR uni0E5A
ENCODING 3674
SWIDTH 540 0
DWIDTH 25 0
BBX 20 18 0 0
BITMAP
F8FFF0
F8FFF0
FFF9F0
FFF9F0
FFF9F0
00F9F0
00F9F0
00F9F0
00F9F0
00F9F0
00F9F0
00F9F0
00F9F0
00F9F0
00F9F0
07C7C0
07C7C0
07C7C0
ENDCHAR
STARTCHAR uni0E5B
ENCODING 3675
SWIDTH 540 0
DWIDTH 25 0
BBX 20 16 0 0
BITMAP
180000
180000
180000
E70000
E70000
E70000
E739F0
E739F0
E73E00
E73E00
E73E00
E0C000
E0C000
1F0000
1F0000
1F0000
ENDCHAR
STARTCHAR uni1E02
ENCODING 7682
SWIDTH 540 0
DWIDTH 25 0
BBX 17 33 3 0
BITMAP
07C000
07C000
07C000
07C000
07C000
000000
000000
FFFE00
FFFE00
FFFE00
F80F80
F80F80
F80F80
F80F80
F80F80
F80F80
F80F80
FFFE00
FFFE00
FFFE00
F80F80
F80F80
F80F80
F80F80
F80F80
F80F80
F80F80
F80F80
F80F80
F80F80
FFFE00
FFFE00
FFFE00
ENDCHAR
STARTCHAR uni1E03
ENCODING 7683
SWIDTH 540 0
DWIDTH 25 0
BBX 17 33 3 0
BITMAP
07C000
07C000
07C000
07C000
07C000
000000
000000
F80000
F80000
F80000
F80000
F80000
F80000
F80000
F80000
FFFE00
FFFE00
F80F80
F80F80
F80F80
F80F80
F80F80
F80F80
F80F80
F80F80
F80F80
F80F80
F80F80
F80F80
F80F80
FFFE00
FFFE00
FFFE00
ENDCHAR
STARTCHAR uni1E0A
ENCODING 7690
SWIDTH 540 0
DWIDTH 25 0
BBX 17 33 3 0
BITMAP
07C000
07C000
07C000
07C000
07C000
000000
000000
FFF000
FFF000
FFF000
F83E00
F83E00
F80F80
F80F80
F80F80
F80F80
F80F80
F80F80
F80F80
F80F80
F80F80
F80F80
F80F80
F80F80
F80F80
F80F80
F80F80
F80F80
F83E00
F83E00
FFF000
FFF000
FFF000
ENDCHAR
STARTCHAR uni1E0B
ENCODING 7691
SWIDTH 540 0
DWIDTH 25 0
BBX 17 33 3 0
BITMAP
07C000
07C000
07C000
07C000
07C000
000000
000000
000F80
000F80
000F80
000F80
000F80
000F80
000F80
000F80
3FFF80
3FFF80
F80F80
F80F80
F80F80
F80F80
F80F80
F80F80
F80F80
F80F80
F80F80
F80F80
F80F80
F80F80
F80F80
3FFF80
3FFF80
3FFF80
ENDCHAR
STARTCHAR uni1E1E
ENCODING 7710
SWIDTH 540 0
DWIDTH 25 0
BBX 17 33 3 0
BITMAP
07C000
07C000
07C000
07C000
07C000
000000
000000
FFFF80
FFFF80
FFFF80
F80000
F80000
F80000
F80000
F80000
F80000
F80000
FFF000
FFF000
FFF000
F80000
F80000
F80000
F80000
F80000
F80000
F80000
F80000
F80000
F80000
F80000
F80000
F80000
ENDCHAR
STARTCHAR uni1E1F
ENCODING 7711
SWIDTH 540 0
DWIDTH 25 0
BBX 15 33 3 0
BITMAP
07C0
07C0
07C0
07C0
07C0
0000
0000
07F0
07F0
07F0
3E3E
3E3E
3E3E
3E3E
3E3E
3E00
3E00
3E00
3E00
3E00
FFC0
FFC0
FF80
3E00
3E00
3E00
3E00
3E00
3E00
3E00
3E00
3E00
3E00
ENDCHAR
STARTCHAR uni1E40
ENCODING 7744
SWIDTH 540 0
DWIDTH 25 0
BBX 17 33 3 0
BITMAP
07C000
07C000
07C000
07C000
07C000
000000
000000
F80F80
F80F80
F80F80
FE3F80
FE3F80
FFFF80
FFFF80
FFFF80
F9CF80
F9CF80
F80F80
F80F80
F80F80
F80F80
F80F80
F80F80
F80F80
F80F80
F80F80
F80F80
F80F80
F80F80
F80F80
F80F80
F80F80
F80F80
ENDCHAR
STARTCHAR uni1E41
ENCODING 7745
SWIDTH 540 0
DWIDTH 25 0
BBX 20 26 0 0
BITMAP
00F800
00F800
00F800
00F800
00F800
000000
000000
000000
FFFFC0
FFFFC0
FDF9F0
F8F9F0
F8F9F0
F8F9F0
F8F9F0
F8F9F0
F8F9F0
F8F9F0
F8F9F0
F8F9F0
F8F9F0
F8F9F0
F8F9F0
F801F0
F801F0
F801F0
ENDCHAR
STARTCHAR uni1E56
ENCODING 7766
SWIDTH 540 0
DWIDTH 25 0
BBX 17 33 3 0
BITMAP
07C000
07C000
07C000
07C000
07C000
000000
000000
FFF000
FFF000
FFF000
F83E00
F83E00
F80F80
F80F80
F80F80
F80F80
F80F80
F83E00
F83E00
F83E00
FFF000
FFF000
FFF000
F80000
F80000
F80000
F80000
F80000
F80000
F80000
F80000
F80000
F80000
ENDCHAR
STARTCHAR uni1E57
ENCODING 7767
SWIDTH 540 0
DWIDTH 25 0
BBX 17 33 3 -7
BITMAP
07C000
07C000
07C000
07C000
07C000
000000
000000
000000
FFF000
FFF000
F87C00
F83E00
F83E00
F80F80
F80F80
F80F80
F80F80
F80F80
F80F80
F80F80
F80F80
F83E00
F83E00
FFF000
FFF000
FFF000
F80000
F80000
F80000
F80000
F80000
F80000
F80000
ENDCHAR
STARTCHAR uni1E60
ENCODING 7776
SWIDTH 540 0
DWIDTH 25 0
BBX 17 33 3 0
BITMAP
07C000
07C000
07C000
07C000
07C000
000000
000000
3FFE00
3FFE00
3FFE00
F80F80
F80F80
F80000
F80000
F80000
F80000
F80000
3FFC00
3FFE00
3FFE00
000F80
000F80
000F80
000F80
000F80
000F80
000F80
000F80
F80F80
F80F80
3FFE00
3FFE00
3FFE00
ENDCHAR
STARTCHAR uni1E61
ENCODING 7777
SWIDTH 540 0
DWIDTH 25 0
BBX 17 26 3 0
BITMAP
07C000
07C000
07C000
07C000
07C000
000000
000000
000000
3FFE00
3FFE00
F80F80
F80F80
F80F80
F80000
F80000
F80000
3FFE00
3FFE00
000F80
000F80
000F80
F80F80
F80F80
3FFE00
3FFE00
3FFE00
ENDCHAR
STARTCHAR uni1E6A
ENCODING 7786
SWIDTH 540 0
DWIDTH 25 0
BBX 15 33 3 0
BITMAP
07C0
07C0
07C0
07C0
07C0
0000
0000
FFFE
FFFE
FFFE
07C0
07C0
07C0
07C0
07C0
07C0
07C0
07C0
07C0
07C0
07C0
07C0
07C0
07C0
07C0
07C0
07C0
07C0
07C0
07C0
07C0
07C0
07C0
ENDCHAR
STARTCHAR uni1E6B
ENCODING 7787
SWIDTH 540 0
DWIDTH 25 0
BBX 17 31 3 0
BITMAP
07C000
07C000
07C000
07C000
07C000
000000
000000
000000
07C000
07C000
07C000
07C000
07C000
FFFE00
FFFE00
0FC000
07C000
07C000
07C000
07C000
07C000
07C000
07C000
07C000
07C000
07C000
07CF80
07CF80
01FE00
01FE00
01FE00
ENDCHAR
STARTCHAR Wgrave
ENCODING 7808
SWIDTH 540 0
DWIDTH 25 0
BBX 17 36 3 0
BITMAP
3E0000
3E0000
1F0000
07C000
07C000
01F000
01F000
01F000
000000
000000
F80F80
F80F80
F80F80
F80F80
F80F80
F80F80
F80F80
F80F80
F80F80
F80F80
F88F80
F9CF80
F9CF80
F9CF80
F9CF80
F9CF80
F9CF80
F9CF80
FFFF80
FFFF80
FFFF80
FE3F80
FE3F80
380E00
380E00
380E00
ENDCHAR
STARTCHAR wgrave
ENCODING 7809
SWIDTH 540 0
DWIDTH 25 0
BBX 20 28 0 0
BITMAP
07C000
07C000
00F800
00F800
00F800
003E00
003E00
000000
000000
000000
F801F0
F801F0
F801F0
F801F0
F801F0
F8F9F0
F8F9F0
F8F9F0
F8F9F0
F8F9F0
F8F9F0
F8F9F0
F9F9F0
FFFFF0
FFFFF0
3F07C0
1F07C0
1F07C0
ENDCHAR
STARTCHAR Wacute
ENCODING 7810
SWIDTH 540 0
DWIDTH 25 0
BBX 17 36 3 0
BITMAP
003E00
003E00
007C00
01F000
01F000
07C000
07C000
07C000
000000
000000
F80F80
F80F80
F80F80
F80F80
F80F80
F80F80
F80F80
F80F80
F80F80
F80F80
F88F80
F9CF80
F9CF80
F9CF80
F9CF80
F9CF80
F9CF80
F9CF80
FFFF80
FFFF80
FFFF80
FE3F80
FE3F80
380E00
380E00
380E00
ENDCHAR
STARTCHAR wacute
ENCODING 7811
SWIDTH 540 0
DWIDTH 25 0
BBX 20 28 0 0
BITMAP
003E00
003E00
00F800
00F800
00F800
07C000
07C000
000000
000000
000000
F801F0
F801F0
F801F0
F801F0
F801F0
F8F9F0
F8F9F0
F8F9F0
F8F9F0
F8F9F0
F8F9F0
F8F9F0
F9F9F0
FFFFF0
FFFFF0
3F07C0
1F07C0
1F07C0
ENDCHAR
STARTCHAR Wdieresis
ENCODING 7812
SWIDTH 540 0
DWIDTH 25 0
BBX 17 33 3 0
BITMAP
3E3E00
3E3E00
3E3E00
3E3E00
3E3E00
000000
000000
F80F80
F80F80
F80F80
F80F80
F80F80
F80F80
F80F80
F80F80
F80F80
F80F80
F88F80
F9CF80
F9CF80
F9CF80
F9CF80
F9CF80
F9CF80
F9CF80
FFFF80
FFFF80
FFFF80
FE3F80
FE3F80
380E00
380E00
380E00
ENDCHAR
STARTCHAR wdieresis
ENCODING 7813
SWIDTH 540 0
DWIDTH 25 0
BBX 20 26 0 0
BITMAP
1F07C0
1F07C0
1F07C0
1F07C0
1F07C0
000000
000000
000000
F801F0
F801F0
F801F0
F801F0
F801F0
F8F9F0
F8F9F0
F8F9F0
F8F9F0
F8F9F0
F8F9F0
F8F9F0
F9F9F0
FFFFF0
FFFFF0
3F07C0
1F07C0
1F07C0
ENDCHAR
STARTCHAR Ygrave
ENCODING 7922
SWIDTH 540 0
DWIDTH 25 0
BBX 20 36 0 0
BITMAP
1F0000
1F0000
1F0000
07C000
07C000
00F800
00F800
00F800
000000
000000
F801F0
F801F0
F801F0
F801F0
F801F0
3E07C0
1F07C0
1F07C0
07FE00
07FE00
01F800
00F800
00F800
00F800
00F800
00F800
00F800
00F800
00F800
00F800
00F800
00F800
00F800
00F800
00F800
00F800
ENDCHAR
STARTCHAR ygrave
ENCODING 7923
SWIDTH 540 0
DWIDTH 25 0
BBX 17 35 3 -7
BITMAP
3E0000
3E0000
07C000
07C000
07C000
01F000
01F000
000000
000000
000000
F80F80
F80F80
F80F80
F80F80
F80F80
3E3E00
3E3E00
3E3E00
3E3E00
3E3E00
3E3E00
3E3E00
3E3E00
07F000
07F000
07F000
07F000
07F000
07C000
07C000
C7C000
C7C000
C7C000
3E0000
3E0000
ENDCHAR
STARTCHAR uni2010
ENCODING 8208
SWIDTH 540 0
DWIDTH 25 0
BBX 15 3 3 10
BITMAP
FFFE
FFFE
FFFC
ENDCHAR
STARTCHAR uni2011
ENCODING 8209
SWIDTH 540 0
DWIDTH 25 0
BBX 15 3 3 10
BITMAP
FFFE
FFFE
FFFC
ENDCHAR
STARTCHAR figuredash
ENCODING 8210
SWIDTH 540 0
DWIDTH 25 0
BBX 17 3 3 10
BITMAP
FFFF80
FFFF80
FFFF80
ENDCHAR
STARTCHAR endash
ENCODING 8211
SWIDTH 540 0
DWIDTH 25 0
BBX 20 3 0 10
BITMAP
FFFFF0
FFFFF0
FFFFF0
ENDCHAR
STARTCHAR emdash
ENCODING 8212
SWIDTH 540 0
DWIDTH 25 0
BBX 23 3 0 10
BITMAP
FFFFFE
FFFFFE
FFFFFE
ENDCHAR
STARTCHAR afii00208
ENCODING 8213
SWIDTH 540 0
DWIDTH 25 0
BBX 23 3 0 10
BITMAP
FFFFFE
FFFFFE
FFFFFE
ENDCHAR
STARTCHAR uni2016
ENCODING 8214
SWIDTH 540 0
DWIDTH 25 0
BBX 13 26 5 0
BITMAP
F8F8
F8F8
F8F8
F8F8
F8F8
F8F8
F8F8
F8F8
F8F8
F8F8
F8F8
F8F8
F8F8
F8F8
F8F8
F8F8
F8F8
F8F8
F8F8
F8F8
F8F8
F8F8
F8F8
F8F8
F8F8
F8F8
ENDCHAR
STARTCHAR underscoredbl
ENCODING 8215
SWIDTH 540 0
DWIDTH 25 0
BBX 17 8 3 -10
BITMAP
FFFF80
FFFF80
FFFF80
000000
000000
FFFF80
FFFF80
FFFF80
ENDCHAR
STARTCHAR quoteleft
ENCODING 8216
SWIDTH 540 0
DWIDTH 25 0
BBX 7 10 8 16
BITMAP
3E
3E
3E
F8
F8
FE
FE
FE
FE
FE
ENDCHAR
STARTCHAR quoteright
ENCODING 8217
SWIDTH 540 0
DWIDTH 25 0
BBX 7 10 8 16
BITMAP
FE
FE
FE
FE
FE
3E
3E
3E
F8
F8
ENDCHAR
STARTCHAR quotesinglbase
ENCODING 8218
SWIDTH 540 0
DWIDTH 25 0
BBX 8 10 5 -2
BITMAP
FF
FF
FF
FF
FF
1F
1F
1F
F8
F8
ENDCHAR
STARTCHAR quotereversed
ENCODING 8219
SWIDTH 540 0
DWIDTH 25 0
BBX 8 10 5 16
BITMAP
FF
FF
FF
FF
FF
F8
F8
F8
1F
1F
ENDCHAR
STARTCHAR quotedblleft
ENCODING 8220
SWIDTH 540 0
DWIDTH 25 0
BBX 17 10 3 16
BITMAP
3E0F80
3E0F80
3E0F80
F83E00
F83E00
FE3F80
FE3F80
FE3F80
FE3F80
FE3F80
ENDCHAR
STARTCHAR quotedblright
ENCODING 8221
SWIDTH 540 0
DWIDTH 25 0
BBX 17 10 3 16
BITMAP
FE3F80
FE3F80
FE3F80
FE3F80
FE3F80
3E0F80
3E0F80
3E0F80
F83E00
F83E00
ENDCHAR
STARTCHAR quotedblbase
ENCODING 8222
SWIDTH 540 0
DWIDTH 25 0
BBX 17 10 3 -2
BITMAP
FE3F80
FE3F80
FE3F80
FE3F80
FE3F80
3E0F80
3E0F80
3E0F80
F83E00
F83E00
ENDCHAR
STARTCHAR uni201F
ENCODING 8223
SWIDTH 540 0
DWIDTH 25 0
BBX 17 10 3 16
BITMAP
FE3F80
FE3F80
FE3F80
FE3F80
FE3F80
F83E00
F83E00
F83E00
3E0F80
3E0F80
ENDCHAR
STARTCHAR dagger
ENCODING 8224
SWIDTH 540 0
DWIDTH 25 0
BBX 20 33 0 -5
BITMAP
00F800
00F800
07FE00
07FE00
07FE00
00F800
00F800
18F8C0
18F9C0
38F9C0
FFFFF0
FFFFF0
3DF9C0
18F9C0
18F9C0
00F800
00F800
01F800
07FE00
07FE00
00F800
00F800
00F800
00F800
00F800
00F800
00F800
00F800
00F800
00F800
00F800
00F800
00F800
ENDCHAR
STARTCHAR daggerdbl
ENCODING 8225
SWIDTH 540 0
DWIDTH 25 0
BBX 20 33 0 -5
BITMAP
00F800
00F800
07FE00
07FE00
07FE00
00F800
00F800
18F8C0
18F9C0
38F9C0
FFFFF0
FFFFF0
3DF9C0
18F9C0
18F9C0
00F800
00F800
00F800
18F9C0
18F9C0
FFFFF0
FFFFF0
FFFFF0
18F9C0
18F9C0
00F800
00F800
00F800
07FE00
07FE00
01F800
00F800
00F800
ENDCHAR
STARTCHAR bullet
ENCODING 8226
SWIDTH 540 0
DWIDTH 25 0
BBX 10 10 5 8
BITMAP
1F00
1F00
7FC0
FFC0
FFC0
FFC0
FFC0
7FC0
1F00
1F00
ENDCHAR
STARTCHAR uni2023
ENCODING 8227
SWIDTH 540 0
DWIDTH 25 0
BBX 10 18 5 5
BITMAP
E000
E000
F800
F800
F800
FF00
FF00
FFC0
FFC0
FFC0
FF00
FF00
FE00
F800
F800
E000
E000
C000
ENDCHAR
STARTCHAR onedotenleader
ENCODING 8228
SWIDTH 540 0
DWIDTH 25 0
BBX 5 5 3 0
BITMAP
F8
F8
F8
F8
F8
ENDCHAR
STARTCHAR twodotenleader
ENCODING 8229
SWIDTH 540 0
DWIDTH 25 0
BBX 12 5 3 0
BITMAP
F9F0
F9F0
F9F0
F9F0
F9F0
ENDCHAR
STARTCHAR ellipsis
ENCODING 8230
SWIDTH 540 0
DWIDTH 25 0
BBX 20 5 0 0
BITMAP
F8F9F0
F8F9F0
F8F9F0
F8F9F0
F8F9F0
ENDCHAR
STARTCHAR uni2027
ENCODING 8231
SWIDTH 540 0
DWIDTH 25 0
BBX 7 8 8 10
BITMAP
38
38
FE
FE
FE
38
38
10
ENDCHAR
STARTCHAR perthousand
ENCODING 8240
SWIDTH 540 0
DWIDTH 25 0
BBX 23 26 0 0
BITMAP
1801F0
1801F0
3801F0
FF07C0
FF07C0
FF07C0
FF07C0
FF07C0
183E00
183E00
00F800
00F800
00F800
00F800
00F800
01F800
07C630
07C630
1F3FFE
1F3FFE
1F3FFE
1F3FFE
1F3FFE
F80638
F80630
F80630
ENDCHAR
STARTCHAR minute
ENCODING 8242
SWIDTH 540 0
DWIDTH 25 0
BBX 8 10 5 16
BITMAP
1F
1F
1F
1F
1F
1F
1F
1F
F8
F8
ENDCHAR
STARTCHAR second
ENCODING 8243
SWIDTH 540 0
DWIDTH 25 0
BBX 15 10 3 16
BITMAP
3E3E
3E3E
3E3E
3E3E
3E3E
3E3E
3E3E
3E3E
F9F0
F9F0
ENDCHAR
STARTCHAR uni2034
ENCODING 8244
SWIDTH 540 0
DWIDTH 25 0
BBX 23 10 0 16
BITMAP
1F3E3E
1F3E3E
1F3E3E
1F3E3E
1F3E3E
1F3E3E
1F3E3E
3F3E3E
F8F9F0
F8F9F0
ENDCHAR
STARTCHAR uni2035
ENCODING 8245
SWIDTH 540 0
DWIDTH 25 0
BBX 8 10 5 16
BITMAP
F8
F8
F8
F8
F8
F8
F8
F8
1F
1F
ENDCHAR
STARTCHAR uni2036
ENCODING 8246
SWIDTH 540 0
DWIDTH 25 0
BBX 15 10 3 16
BITMAP
F9F0
F9F0
F9F0
F9F0
F9F0
F9F0
F9F0
F9F0
3E3E
3E3E
ENDCHAR
STARTCHAR uni2037
ENCODING 8247
SWIDTH 540 0
DWIDTH 25 0
BBX 23 10 0 16
BITMAP
F8F9F0
F8F9F0
F8F9F0
F8F9F0
F8F9F0
F8F9F0
F8F9F0
F8F9F8
1F3E3E
1F3E3E
ENDCHAR
STARTCHAR guilsinglleft
ENCODING 8249
SWIDTH 540 0
DWIDTH 25 0
BBX 10 16 5 5
BITMAP
07C0
07C0
07C0
1F00
1F00
7C00
F800
F800
F800
F800
7C00
1F00
1F00
07C0
07C0
07C0
ENDCHAR
STARTCHAR guilsinglright
ENCODING 8250
SWIDTH 540 0
DWIDTH 25 0
BBX 10 16 5 5
BITMAP
F800
F800
F800
1F00
1F00
07C0
07C0
07C0
07C0
07C0
07C0
1F00
1F00
F800
F800
F800
ENDCHAR
STARTCHAR exclamdbl
ENCODING 8252
SWIDTH 540 0
DWIDTH 25 0
BBX 13 28 5 0
BITMAP
F8F8
F8F8
F8F8
F8F8
F8F8
F8F8
F8F8
F8F8
F8F8
F8F8
F8F8
F8F8
F8F8
F8F8
F8F8
F8F8
F8F8
78F0
0000
0000
0000
0000
0000
F8F8
F8F8
F8F8
F8F8
F8F8
ENDCHAR
STARTCHAR uni203E
ENCODING 8254
SWIDTH 540 0
DWIDTH 25 0
BBX 23 2 0 26
BITMAP
FFFFFE
FFFFFE
ENDCHAR
STARTCHAR fraction
ENCODING 8260
SWIDTH 540 0
DWIDTH 25 0
BBX 20 26 0 0
BITMAP
0001F0
0001F0
0001F0
0007C0
0007C0
0007C0
0007C0
0007C0
003E00
003E00
00F800
00F800
00F800
00F800
00F800
01F000
07C000
07C000
1F0000
1F0000
1F0000
1F0000
1F0000
F80000
F80000
F80000
ENDCHAR
STARTCHAR dong
ENCODING 8363
SWIDTH 540 0
DWIDTH 25 0
BBX 20 31 3 -5
BITMAP
000F80
000F80
000FC0
01FFF0
01FFF0
000FC0
000F80
000F80
3FFF80
3FFF80
F80F80
F80F80
F80F80
F80F80
F80F80
F80F80
F80F80
F80F80
F80F80
F80F80
F80F80
F80F80
F80F80
3FFF80
3FFF80
3FFF80
000000
000000
3FFE00
3FFE00
3FFE00
ENDCHAR
STARTCHAR Euro
ENCODING 8364
SWIDTH 540 0
DWIDTH 25 0
BBX 17 26 3 0
BITMAP
01FE00
01FE00
01FE00
07CF80
07CF80
3E0000
3E0000
3E0000
FFC000
FFC000
3F0000
3E0000
3E0000
FFC000
FFC000
FF8000
3E0000
3E0000
3E0000
3E0000
3E0000
07CF80
07CF80
01FE00
01FE00
01FE00
ENDCHAR
STARTCHAR uni20AF
ENCODING 8367
SWIDTH 540 0
DWIDTH 25 0
BBX 20 26 0 0
BITMAP
00F800
00F800
00F800
1FFE00
1FFE00
F9FFC0
F8FFC0
F8FFC0
00F9F0
00F9F0
00F9F0
00F9F0
00F9F0
00F9F0
00F9F0
00F9F0
00F9F0
00F9F0
1FF9F0
1FF9F0
3FF9F0
F8F9F0
F8F9F0
3F3FC0
1F3FC0
1F3FC0
ENDCHAR
STARTCHAR afii61352
ENCODING 8470
SWIDTH 540 0
DWIDTH 25 0
BBX 23 26 0 0
BITMAP
FFC000
FFC000
FFC000
FFC000
FFC000
F9F800
F8F800
F8F800
F8F800
F8F800
F8F8F0
F8F9F0
F8F9F0
F8FFFE
F8FFFE
F8FFFE
F8FFFE
F8FFFE
F8F9F8
F8F9F0
F8F8F0
F8F800
F8F800
F8FFFE
F8FFFE
F8FFFE
ENDCHAR
STARTCHAR trademark
ENCODING 8482
SWIDTH 540 0
DWIDTH 25 0
BBX 23 12 0 16
BITMAP
FFFE3E
FFFE3E
3F3FFE
1F3FFE
1F3FFE
1F3E3E
1F3E3E
1F3E3E
1F3E3E
1F3E3E
1F3E3E
1F3E3E
ENDCHAR
STARTCHAR Omega
ENCODING 8486
SWIDTH 540 0
DWIDTH 25 0
BBX 20 26 0 0
BITMAP
07FE00
07FE00
07FE00
1F07C0
1F07C0
F801F0
F801F0
F801F0
F801F0
F801F0
F801F0
F801F0
F801F0
F801F0
F801F0
F801F0
F801F0
F801F0
3F07C0
1F07C0
1F07C0
1F07C0
1F07C0
FF07F0
FF07F0
FF07F0
ENDCHAR
STARTCHAR oneeighth
ENCODING 8539
SWIDTH 540 0
DWIDTH 25 0
BBX 20 26 0 0
BITMAP
F80000
F80000
F80000
F80000
F80000
F80000
F80000
F80000
F80000
F80000
F81F80
F83FC0
F83FC0
F8F9F0
F8F9F0
F8F9F0
003FC0
003FC0
00F9F0
00F9F0
00F9F0
00F9F0
00F9F0
003FC0
003FC0
003FC0
ENDCHAR
STARTCHAR threeeighths
ENCODING 8540
SWIDTH 540 0
DWIDTH 25 0
BBX 23 26 0 0
BITMAP
FF0000
FF0000
FF0000
07C000
07C000
FF0000
FF0000
FF0000
07C000
07C000
07C7F0
07C7F0
07C7F0
FF3E3E
FF3E3E
FE1F7E
0007F0
0007F0
003E3E
003E3E
003E3E
003E3E
003E3E
0007F8
0007F0
0007F0
ENDCHAR
STARTCHAR fiveeighths
ENCODING 8541
SWIDTH 540 0
DWIDTH 25 0
BBX 23 26 0 0
BITMAP
FFC000
FFC000
FFC000
F80000
F80000
FFC000
FFC000
FFC000
07C000
07C000
07C7F0
07C7F0
07C7F0
FF3E3E
FF3E3E
FE1F7E
0007F0
0007F0
003E3E
003E3E
003E3E
003E3E
003E3E
0007F8
0007F0
0007F0
ENDCHAR
STARTCHAR seveneighths
ENCODING 8542
SWIDTH 540 0
DWIDTH 25 0
BBX 23 26 0 0
BITMAP
FFC000
FFC000
FFC000
07C000
07C000
07C000
07C000
07C000
1F0000
1F0000
1F07F0
1F07F0
1F07F0
1F3E3E
1F3E3E
1E1F7E
0007F0
0007F0
003E3E
003E3E
003E3E
003E3E
003E3E
0007F8
0007F0
0007F0
ENDCHAR
STARTCHAR arrowleft
ENCODING 8592
SWIDTH 540 0
DWIDTH 25 0
BBX 17 20 3 3
BITMAP
01C000
01C000
07C000
07C000
07C000
3E0000
3E0000
FFFF80
FFFF80
FFFF80
FFFF80
FFFF80
FFFF80
3E0000
3E0000
07C000
07C000
07C000
01C000
01C000
ENDCHAR
STARTCHAR arrowup
ENCODING 8593
SWIDTH 540 0
DWIDTH 25 0
BBX 20 26 0 0
BITMAP
00F800
00F800
00F800
07FE00
07FE00
1FFFC0
1FFFC0
3FFFC0
F8F9F0
F8F9F0
00F800
00F800
00F800
00F800
00F800
00F800
00F800
00F800
00F800
00F800
00F800
00F800
00F800
00F800
00F800
00F800
ENDCHAR
STARTCHAR arrowright
ENCODING 8594
SWIDTH 540 0
DWIDTH 25 0
BBX 17 20 3 3
BITMAP
01C000
01C000
01F000
01F000
01F000
003E00
003E00
FFFF80
FFFF80
FFFF80
FFFF80
FFFF80
FFFF80
003E00
003E00
01F000
01F000
01F000
01C000
01C000
ENDCHAR
STARTCHAR arrowdown
ENCODING 8595
SWIDTH 540 0
DWIDTH 25 0
BBX 20 26 0 0
BITMAP
00F800
00F800
00F800
00F800
00F800
00F800
00F800
00F800
00F800
00F800
00F800
00F800
00F800
00F800
00F800
00F800
F8F9F0
F8F9F0
3FFFC0
1FFFC0
1FFFC0
07FE00
07FE00
00F800
00F800
00F800
ENDCHAR
STARTCHAR universal
ENCODING 8704
SWIDTH 540 0
DWIDTH 25 0
BBX 17 26 3 0
BITMAP
F80F80
F80F80
F80F80
F80F80
F80F80
F80F80
F80F80
F80F80
3E3E00
3E3E00
3FFE00
3FFE00
3FFE00
3E3E00
3E3E00
1F7C00
07F000
07F000
07F000
07F000
07F000
07F000
07F000
01C000
01C000
01C000
ENDCHAR
STARTCHAR existential
ENCODING 8707
SWIDTH 540 0
DWIDTH 25 0
BBX 17 26 3 0
BITMAP
FFFF80
FFFF80
FFFF80
000F80
000F80
000F80
000F80
000F80
000F80
000F80
07FF80
07FF80
07FF80
000F80
000F80
000F80
000F80
000F80
000F80
000F80
000F80
000F80
000F80
FFFF80
FFFF80
FFFF80
ENDCHAR
STARTCHAR minus
ENCODING 8722
SWIDTH 540 0
DWIDTH 25 0
BBX 20 3 0 10
BITMAP
FFFFF0
FFFFF0
FFFFF0
ENDCHAR
STARTCHAR notequal
ENCODING 8800
SWIDTH 540 0
DWIDTH 25 0
BBX 17 15 3 3
BITMAP
003E00
003E00
FFFF80
FFFF80
FFFF80
01F000
01F000
01F000
07C000
07C000
FFFF80
FFFF80
FFFF80
3E0000
3E0000
ENDCHAR
STARTCHAR lessequal
ENCODING 8804
SWIDTH 540 0
DWIDTH 25 0
BBX 15 28 3 -2
BITMAP
003E
003E
003E
01F0
01F0
07C0
07C0
07C0
3E00
3E00
F800
F800
F800
3E00
3E00
1F00
07C0
07C0
01F0
01F0
01F8
003E
003E
0000
0000
0000
FFFE
FFFE
ENDCHAR
STARTCHAR greaterequal
ENCODING 8805
SWIDTH 540 0
DWIDTH 25 0
BBX 15 28 3 -2
BITMAP
F800
F800
F800
3E00
3E00
0FC0
07C0
07C0
01F0
01F0
007C
003E
003E
01F0
01F0
01F0
07C0
07C0
3E00
3E00
3E00
F800
F800
0000
0000
0000
FFFE
FFFE
ENDCHAR
STARTCHAR uni23BA
ENCODING 9146
SWIDTH 540 0
DWIDTH 25 0
BBX 23 5 0 31
BITMAP
FFFFFE
FFFFFE
FFFFFE
FFFFFE
FFFFFE
ENDCHAR
STARTCHAR uni23BB
ENCODING 9147
SWIDTH 540 0
DWIDTH 25 0
BBX 23 5 0 21
BITMAP
FFFFFE
FFFFFE
FFFFFE
FFFFFE
FFFFFE
ENDCHAR
STARTCHAR uni23BC
ENCODING 9148
SWIDTH 540 0
DWIDTH 25 0
BBX 23 5 0 0
BITMAP
FFFFFE
FFFFFE
FFFFFE
FFFFFE
FFFFFE
ENDCHAR
STARTCHAR uni23BD
ENCODING 9149
SWIDTH 540 0
DWIDTH 25 0
BBX 23 5 0 -10
BITMAP
FFFFFE
FFFFFE
FFFFFE
FFFFFE
FFFFFE
ENDCHAR
STARTCHAR uni2409
ENCODING 9225
SWIDTH 540 0
DWIDTH 25 0
BBX 20 26 0 0
BITMAP
F8F800
F8F800
F8F800
F8F800
F8F800
FFF800
FFF800
FFF800
F8F800
F8F800
F8F800
F8F800
F8F800
003FF0
003FF0
001FF0
0007C0
0007C0
0007C0
0007C0
0007C0
0007C0
0007C0
0007C0
0007C0
0007C0
ENDCHAR
STARTCHAR uni240A
ENCODING 9226
SWIDTH 540 0
DWIDTH 25 0
BBX 20 26 0 0
BITMAP
F80000
F80000
F80000
F80000
F80000
F80000
F80000
F80000
F80000
F80000
FFC000
FFC000
FFC000
003FF0
003FF0
003FF0
003E00
003E00
003FC0
003FC0
003FC0
003E00
003E00
003E00
003E00
003E00
ENDCHAR
STARTCHAR uni240B
ENCODING 9227
SWIDTH 540 0
DWIDTH 25 0
BBX 20 26 0 0
BITMAP
F8F800
F8F800
F8F800
F8F800
F8F800
F8F800
F8F800
F8F800
1FC000
1FC000
070000
070000
070000
003FF0
003FF0
001FF0
0007C0
0007C0
0007C0
0007C0
0007C0
0007C0
0007C0
0007C0
0007C0
0007C0
ENDCHAR
STARTCHAR uni240C
ENCODING 9228
SWIDTH 540 0
DWIDTH 25 0
BBX 20 26 0 0
BITMAP
FFC000
FFC000
FFC000
F80000
F80000
FE0000
FF0000
FF0000
F80000
F80000
F80000
F80000
F80000
003FF0
003FF0
003FF0
003E00
003E00
003FC0
003FC0
003FC0
003E00
003E00
003E00
003E00
003E00
ENDCHAR
STARTCHAR uni240D
ENCODING 9229
SWIDTH 540 0
DWIDTH 25 0
BBX 20 26 0 0
BITMAP
1FC000
1FC000
3FC000
F80000
F80000
F80000
F80000
F80000
F80000
F80000
3FC000
1FC000
1FC000
00FFC0
00FFC0
00FFC0
00F9F0
00F9F0
00FFC0
00FFC0
00FFC0
00F9F0
00F9F0
00F9F0
00F9F0
00F9F0
ENDCHAR
STARTCHAR uni2424
ENCODING 9252
SWIDTH 540 0
DWIDTH 25 0
BBX 20 28 0 0
BITMAP
FFC000
FFC000
F8F800
F8F800
F8F800
F8F800
F8F800
F8F800
F8F800
F8F800
F8F800
F8F800
000000
000000
000000
00F800
00F800
00F800
00F800
00F800
00F800
00F800
00F800
00F800
00F800
00FFF0
00FFF0
00FFF0
ENDCHAR
STARTCHAR SF100000
ENCODING 9472
SWIDTH 540 0
DWIDTH 25 0
BBX 23 6 0 10
BITMAP
FFFFFE
FFFFFE
FFFFFE
FFFFFE
FFFFFE
FFFFFE
ENDCHAR
STARTCHAR SF110000
ENCODING 9474
SWIDTH 540 0
DWIDTH 25 0
BBX 5 46 10 -10
BITMAP
F8
F8
F8
F8
F8
F8
F8
F8
F8
F8
F8
F8
F8
F8
F8
F8
F8
F8
F8
F8
F8
F8
F8
F8
F8
F8
F8
F8
F8
F8
F8
F8
F8
F8
F8
F8
F8
F8
F8
F8
F8
F8
F8
F8
F8
F8
ENDCHAR
STARTCHAR SF010000
ENCODING 9484
SWIDTH 540 0
DWIDTH 25 0
BBX 13 26 10 -10
BITMAP
7FF8
FFF8
FFF8
FFF8
FFF8
FFF8
F800
F800
F800
F800
F800
F800
F800
F800
F800
F800
F800
F800
F800
F800
F800
F800
F800
F800
F800
F800
ENDCHAR
STARTCHAR SF030000
ENCODING 9488
SWIDTH 540 0
DWIDTH 25 0
BBX 15 26 0 -10
BITMAP
FFFE
FFFE
FFFE
FFFE
FFFE
FFFE
003E
003E
003E
003E
003E
003E
003E
003E
003E
003E
003E
003E
003E
003E
003E
003E
003E
003E
003E
003E
ENDCHAR
STARTCHAR SF020000
ENCODING 9492
SWIDTH 540 0
DWIDTH 25 0
BBX 13 26 10 10
BITMAP
F800
F800
F800
F800
F800
F800
F800
F800
F800
F800
F800
F800
F800
F800
F800
F800
F800
F800
F800
F800
FFF8
FFF8
FFF8
FFF8
FFF8
7FF8
ENDCHAR
STARTCHAR SF040000
ENCODING 9496
SWIDTH 540 0
DWIDTH 25 0
BBX 15 26 0 10
BITMAP
003E
003E
003E
003E
003E
003E
003E
003E
003E
003E
003E
003E
003E
003E
003E
003E
003E
003E
003E
003E
FFFE
FFFE
FFFE
FFFE
FFFE
FFFE
ENDCHAR
STARTCHAR SF080000
ENCODING 9500
SWIDTH 540 0
DWIDTH 25 0
BBX 13 46 10 -10
BITMAP
F800
F800
F800
F800
F800
F800
F800
F800
F800
F800
F800
F800
F800
F800
F800
F800
F800
F800
F800
F800
FFF8
FFF8
FFF8
FFF8
FFF8
FFF8
F800
F800
F800
F800
F800
F800
F800
F800
F800
F800
F800
F800
F800
F800
F800
F800
F800
F800
F800
F800
ENDCHAR
STARTCHAR SF090000
ENCODING 9508
SWIDTH 540 0
DWIDTH 25 0
BBX 15 46 0 -10
BITMAP
003E
003E
003E
003E
003E
003E
003E
003E
003E
003E
003E
003E
003E
003E
003E
003E
003E
003E
003E
003E
FFFE
FFFE
FFFE
FFFE
FFFE
FFFE
003E
003E
003E
003E
003E
003E
003E
003E
003E
003E
003E
003E
003E
003E
003E
003E
003E
003E
003E
003E
ENDCHAR
STARTCHAR SF060000
ENCODING 9516
SWIDTH 540 0
DWIDTH 25 0
BBX 23 26 0 -10
BITMAP
FFFFFE
FFFFFE
FFFFFE
FFFFFE
FFFFFE
FFFFFE
003E00
003E00
003E00
003E00
003E00
003E00
003E00
003E00
003E00
003E00
003E00
003E00
003E00
003E00
003E00
003E00
003E00
003E00
003E00
003E00
ENDCHAR
STARTCHAR SF070000
ENCODING 9524
SWIDTH 540 0
DWIDTH 25 0
BBX 23 26 0 10
BITMAP
003E00
003E00
003E00
003E00
003E00
003E00
003E00
003E00
003E00
003E00
003E00
003E00
003E00
003E00
003E00
003E00
003E00
003E00
003E00
003E00
FFFFFE
FFFFFE
FFFFFE
FFFFFE
FFFFFE
FFFFFE
ENDCHAR
STARTCHAR SF050000
ENCODING 9532
SWIDTH 540 0
DWIDTH 25 0
BBX 23 46 0 -10
BITMAP
003E00
003E00
003E00
003E00
003E00
003E00
003E00
003E00
003E00
003E00
003E00
003E00
003E00
003E00
003E00
003E00
003E00
003E00
003E00
003E00
FFFFFE
FFFFFE
FFFFFE
FFFFFE
FFFFFE
FFFFFE
003E00
003E00
003E00
003E00
003E00
003E00
003E00
003E00
003E00
003E00
003E00
003E00
003E00
003E00
003E00
003E00
003E00
003E00
003E00
003E00
ENDCHAR
STARTCHAR uni256D
ENCODING 9581
SWIDTH 540 0
DWIDTH 25 0
BBX 13 26 10 -10
BITMAP
03F8
07F8
07F8
1FF8
1FF8
3FF8
FF00
FF00
F800
F800
F800
F800
F800
F800
F800
F800
F800
F800
F800
F800
F800
F800
F800
F800
F800
F800
ENDCHAR
STARTCHAR uni256E
ENCODING 9582
SWIDTH 540 0
DWIDTH 25 0
BBX 15 26 0 -10
BITMAP
FFC0
FFC0
FFC0
FFF8
FFF8
FFF8
00FE
00FE
003E
003E
003E
003E
003E
003E
003E
003E
003E
003E
003E
003E
003E
003E
003E
003E
003E
003E
ENDCHAR
STARTCHAR uni256F
ENCODING 9583
SWIDTH 540 0
DWIDTH 25 0
BBX 15 26 0 10
BITMAP
003E
003E
003E
003E
003E
003E
003E
003E
003E
003E
003E
003E
003E
003E
003E
003E
003E
003E
00FE
00FE
FFF8
FFF8
FFF8
FFC0
FFC0
FFC0
ENDCHAR
STARTCHAR uni2570
ENCODING 9584
SWIDTH 540 0
DWIDTH 25 0
BBX 13 26 10 10
BITMAP
F800
F800
F800
F800
F800
F800
F800
F800
F800
F800
F800
F800
F800
F800
F800
F800
F800
F800
FF00
FF00
3FF8
1FF8
1FF8
07F8
07F8
03F8
ENDCHAR
STARTCHAR shade
ENCODING 9618
SWIDTH 540 0
DWIDTH 25 0
BBX 23 46 0 -10
BITMAP
E739CE
E739CE
E739CE
18C630
18C630
E739CE
E739CE
E739CE
18C630
18C630
E739CE
E739CE
E739CE
18C630
18C630
E739CE
E739CE
E739CE
18C630
18C630
E739CE
E739CE
E739CE
18C630
18C630
18C630
E739CE
E739CE
18C630
18C630
18C630
E739CE
E739CE
18C630
18C630
18C630
E739CE
E739CE
18C630
18C630
18C630
E739CE
E739CE
18C630
18C630
18C630
ENDCHAR
STARTCHAR uni25AE
ENCODING 9646
SWIDTH 540 0
DWIDTH 25 0
BBX 15 23 3 0
BITMAP
FFFE
FFFE
FFFE
FFFE
FFFE
FFFE
FFFE
FFFE
FFFE
FFFE
FFFE
FFFE
FFFE
FFFE
FFFE
FFFE
FFFE
FFFE
FFFE
FFFE
FFFE
FFFE
FFFE
ENDCHAR
STARTCHAR uni25C6
ENCODING 9670
SWIDTH 540 0
DWIDTH 25 0
BBX 23 23 0 0
BITMAP
003800
003800
00FE00
00FE00
00FE00
07FFC0
07FFC0
1FFFF0
1FFFF0
1FFFF0
FFFFFE
FFFFFE
FFFFFE
1FFFF0
1FFFF0
07FFC0
07FFC0
07FFC0
00FE00
00FE00
003800
003800
003800
ENDCHAR
STARTCHAR musicalnote
ENCODING 9834
SWIDTH 540 0
DWIDTH 25 0
BBX 20 26 0 0
BITMAP
00FE00
00FE00
00FE00
00FFC0
00FFC0
00F9F0
00F9F0
00F9F0
00F9F0
00F9F0
00F800
00F800
00F800
00F800
00F800
01F800
1FF800
1FF800
FFF800
FFF800
FFF800
FFF800
FFF800
3FC000
1FC000
1FC000
ENDCHAR
STARTCHAR uniFFFD
ENCODING 65533
SWIDTH 540 0
DWIDTH 25 0
BBX 20 26 0 0
BITMAP
1FFFC0
1FFFC0
3FFFC0
F801F0
F801F0
E0F830
E0F830
E0F830
FFF830
FFF830
FFE0F0
FFC1F0
FFC1F0
FF07F0
FF07F0
FF07F0
FF07F0
FF07F0
FFFFF0
FFFFF0
FFFFF0
FF07F0
FF07F0
3FFFC0
1FFFC0
1FFFC0
ENDCHAR
ENDFONT
